<svg version="1.0" xmlns="http://www.w3.org/2000/svg"
 width="700.000000pt" height="700.000000pt" viewBox="0 0 700.000000 700.000000"
 preserveAspectRatio="xMidYMid meet">
<g transform="translate(0.000000,700.000000) scale(0.100000,-0.100000)"
fill="#000000" stroke="none">
<path d="M3288 6984 c-2 -1 -41 -5 -88 -9 -47 -4 -92 -8 -100 -10 -14 -2 -104
-15 -140 -20 -29 -4 -96 -17 -165 -32 -38 -8 -78 -16 -87 -18 -133 -27 -433
-126 -566 -186 -34 -16 -65 -29 -68 -29 -12 0 -265 -130 -339 -175 -205 -123
-450 -303 -566 -415 -9 -8 -38 -36 -65 -61 -74 -71 -193 -196 -254 -269 -30
-36 -57 -67 -60 -70 -13 -13 -123 -164 -172 -235 -260 -381 -477 -913 -544
-1332 -3 -19 -8 -45 -10 -57 -2 -11 -7 -41 -10 -66 -3 -25 -7 -55 -9 -67 -2
-12 -6 -57 -10 -100 -3 -43 -8 -94 -11 -113 -12 -86 -5 -419 11 -565 2 -16 7
-57 10 -90 11 -99 54 -320 85 -442 134 -511 384 -988 729 -1394 61 -71 323
-332 397 -394 214 -181 503 -366 759 -487 143 -67 369 -156 466 -182 30 -8 86
-24 124 -35 39 -11 81 -22 95 -25 161 -33 276 -55 325 -61 32 -4 68 -9 79 -11
131 -25 627 -24 801 1 17 2 50 7 75 10 71 8 137 20 333 60 10 2 27 7 37 10 10
3 27 8 37 10 316 72 760 273 1068 484 205 140 335 248 526 440 424 425 727
945 886 1521 43 158 60 234 88 415 3 22 8 45 10 51 25 77 26 871 0 914 -1 3
-6 32 -10 65 -3 33 -18 112 -31 175 -14 63 -27 126 -30 140 -12 61 -92 309
-144 450 -37 102 -143 323 -207 435 -44 77 -210 335 -222 345 -3 3 -26 32 -51
65 -126 166 -325 377 -486 514 -102 87 -108 92 -179 147 -48 37 -262 184 -268
184 -3 0 -34 17 -68 38 -176 107 -470 240 -674 305 -118 38 -288 84 -345 93
-19 3 -37 7 -40 9 -8 5 -175 33 -235 40 -27 3 -57 8 -65 10 -46 12 -611 30
-622 19z m-228 -1212 c14 -5 41 -26 60 -46 l34 -36 2 -288 c1 -158 4 -433 5
-611 l2 -323 30 -19 c36 -21 56 -14 127 51 221 201 555 224 879 61 143 -72
309 -220 417 -371 53 -74 85 -110 99 -110 12 0 48 33 233 211 195 189 364 304
503 343 180 52 377 55 539 9 54 -16 140 -52 150 -64 3 -3 11 -8 17 -10 7 -2
39 -26 72 -54 115 -98 183 -244 183 -390 0 -45 -6 -110 -12 -145 -30 -167
-153 -335 -298 -409 -46 -23 -163 -50 -197 -45 -11 2 -40 4 -65 5 -65 3 -175
43 -236 84 -76 52 -139 124 -233 262 -113 168 -150 195 -252 187 -51 -4 -182
-66 -254 -119 -122 -91 -224 -277 -285 -519 -24 -94 -24 -106 -6 -106 9 0 27
32 46 83 35 90 66 161 112 252 61 121 70 117 96 -42 31 -190 33 -211 37 -428
3 -205 -5 -308 -36 -442 -6 -27 -13 -58 -15 -70 -11 -59 -70 -219 -115 -313
-80 -167 -167 -289 -303 -425 -223 -222 -476 -360 -769 -420 -10 -2 -26 -6
-35 -9 -86 -25 -471 -26 -587 -1 -11 2 -37 7 -58 10 -271 38 -577 147 -747
266 l-54 38 -3 248 c-1 137 -5 815 -8 1508 -3 693 -7 1276 -9 1295 -3 19 -5
43 -5 52 -1 26 -56 83 -109 114 -155 89 -199 187 -140 310 37 79 53 87 590
293 327 125 371 140 436 150 51 7 122 0 162 -17z"/>
<path d="M3304 3936 c-45 -20 -80 -56 -109 -115 l-27 -53 5 -801 c2 -441 7
-811 10 -822 3 -11 10 -40 17 -65 34 -126 104 -190 208 -190 163 0 315 316
359 750 16 149 9 517 -11 630 -3 14 -7 41 -10 60 -31 210 -117 432 -207 534
-68 77 -159 105 -235 72z"/>
</g>
</svg>
