<?xml version="1.0" encoding="utf-8"?>
<!-- Generator: Adobe Illustrator 25.4.1, SVG Export Plug-In . SVG Version: 6.00 Build 0)  -->
<svg version="1.1" id="Ebene_1" xmlns="http://www.w3.org/2000/svg" xmlns:xlink="http://www.w3.org/1999/xlink" x="0px" y="0px"
	 viewBox="0 0 283.42 283.42" style="enable-background:new 0 0 283.42 283.42;" xml:space="preserve">
<style type="text/css">
	.st0{fill:#FFFFFF;}
</style>
<path class="st0" d="M154.82,77.41c14.47,0.66,18.19,3.07,18.19,15.12v21.75h-62.87V92.53c0-12,3.94-14.46,18.19-15.12V64.82H56.2
	v12.59c14.68,0.66,18.19,3.07,18.19,15.12v98.43c0,12-3.51,14.46-18.19,15.12v12.58h72.13v-12.6c-14.25-0.66-18.19-3.07-18.19-15.12
	v-15.87c3.64-13.45,16.72-22.88,31.43-22.88s27.8,9.43,31.44,22.87v15.9c0,12-3.72,14.46-18.19,15.12v12.58h72.35v-12.6
	c-14.69-0.64-18.43-3-18.43-15.1V92.53c0-12,3.72-14.46,18.41-15.12V64.82h-72.33L154.82,77.41L154.82,77.41z M173,152.77
	c-7.12-8.2-17.72-13.31-31.44-13.31s-24.31,5.11-31.43,13.31v-25.91H173L173,152.77L173,152.77z M241.9,41.49
	C186.55-13.84,96.83-13.83,41.49,41.52s-55.32,145.07,0.03,200.41s145.07,55.32,200.41-0.03c26.57-26.57,41.49-62.61,41.49-100.19
	C283.42,104.12,268.48,68.07,241.9,41.49L241.9,41.49z M141.68,270.87c-71.34,0-129.17-57.83-129.17-129.17
	S70.34,12.53,141.68,12.53S270.85,70.36,270.85,141.7l0,0l0,0c0.01,71.32-57.79,129.14-129.11,129.17l0,0H141.68z"/>
</svg>
