<svg id="Ebene_1" data-name="Ebene 1" xmlns="http://www.w3.org/2000/svg" viewBox="0 0 283.42 283.42"><path d="M204.4,127c14.47.66,18.19,3.07,18.19,15.12v21.75H159.72V142.11c0-12.05,3.94-14.46,18.19-15.12V114.4H105.78V127c14.68.66,18.19,3.07,18.19,15.12v98.44c0,12-3.51,14.46-18.19,15.12v12.58h72.13v-12.6c-14.25-.66-18.19-3.07-18.19-15.12V224.65c3.64-13.45,16.72-22.88,31.43-22.88s27.8,9.43,31.44,22.87v15.91c0,12-3.72,14.46-18.19,15.12v12.58h72.35v-12.6c-14.69-.64-18.43-3-18.43-15.1V142.11c0-12.05,3.72-14.46,18.41-15.12V114.4H204.4Zm18.19,75.36c-7.12-8.2-17.72-13.31-31.44-13.31s-24.31,5.11-31.43,13.31V176.44h62.87ZM291.48,91.07A141.71,141.71,0,1,0,333,191.29,141.71,141.71,0,0,0,291.48,91.07ZM191.26,320.45A129.17,129.17,0,1,1,320.43,191.28h0A129.16,129.16,0,0,1,191.27,320.45Z" transform="translate(-49.58 -49.58)"/></svg>