<svg xmlns="http://www.w3.org/2000/svg" version="1.1" xmlns:xlink="http://www.w3.org/1999/xlink" width="1000" height="1000"><style>
    #light-icon {
      display: inline;
    }
    #dark-icon {
      display: none;
    }

    @media (prefers-color-scheme: dark) {
      #light-icon {
        display: none;
      }
      #dark-icon {
        display: inline;
      }
    }
  </style><g id="light-icon"><svg xmlns="http://www.w3.org/2000/svg" version="1.1" xmlns:xlink="http://www.w3.org/1999/xlink" width="1000" height="1000"><g clip-path="url(#SvgjsClipPath1067)"><rect width="1000" height="1000" fill="#ffffff"></rect><g transform="matrix(3.5377358490566038,0,0,3.5377358490566038,50,402.4292452830189)"><svg xmlns="http://www.w3.org/2000/svg" xmlns:xlink="http://www.w3.org/1999/xlink" id="Ebene_1" data-name="Ebene 1" viewBox="0 0 254.4 55.16" width="254.4" height="55.16"><defs><clipPath id="SvgjsClipPath1067"><rect width="1000" height="1000" x="0" y="0" rx="350" ry="350"></rect></clipPath></defs><path d="M219.73 48.16h6.42v-18.2c0-7.26 4.11-10.05 8.33-10.05 3.99 0 6.78 2.5 6.78 8.86v19.39h6.43V28.11c0-8.86-4.28-13.62-11.07-13.62-4.76 0-8.45 2.44-10.47 6.54h-.12v-5.59h-6.31v32.72ZM214.14 30.32c0-10.11-6.72-15.82-15.65-15.82-9.46 0-16.06 6.6-16.06 17.31s6.48 17.31 16.12 17.31c7.97 0 13.8-4.52 15.23-11.01H207c-1.19 3.51-4.28 5.71-8.39 5.71-5.59 0-9.04-4.22-9.34-10.05h24.87zm-24.81-1.55c.59-5.06 3.57-8.98 9.34-8.98s8.86 3.69 8.86 8.98zM163.81 20.86v18.56c0 5.83 3.03 8.75 8.8 8.75h8.03v-5.41h-6.48c-2.5 0-3.93-1.07-3.93-3.87V20.86h10.17v-5.41h-10.17V6.52h-6.43v8.92h-16.54V6.52h-6.42v8.92h-6.43v5.41h6.43v18.56c0 5.83 3.03 8.75 8.8 8.75h8.03v-5.41h-6.48c-2.5 0-3.93-1.07-3.93-3.87V20.85h16.54ZM132.16 30.32c0-10.11-6.72-15.82-15.65-15.82-9.46 0-16.06 6.6-16.06 17.31s6.48 17.31 16.12 17.31c7.97 0 13.8-4.52 15.23-11.01h-6.78c-1.19 3.51-4.28 5.71-8.39 5.71-5.59 0-9.04-4.22-9.34-10.05h24.87zm-24.8-1.55c.6-5.06 3.57-8.98 9.34-8.98s8.86 3.69 8.86 8.98zM71.6 48.16h27.9v-5.41H80.29v-.06l17.9-22.43v-4.82h-25.4v5.36h16.78v.06L71.6 43.29zM67.68 42.75c-1.55 0-2.14-.6-2.14-2.14V25.74c0-6.48-3.75-11.24-13.27-11.24s-13.92 4.52-14.4 11.54h6.6c.3-3.99 3.33-6.25 7.85-6.25 3.81 0 6.78 1.61 6.78 4.88 0 2.38-1.55 3.75-4.82 3.75h-5.24c-6.48 0-12.43 2.86-12.43 10.29 0 6.84 4.94 10.41 11.24 10.41 5.12 0 9.34-2.38 11.42-7.38h.12v1.55c0 3.03 1.96 4.88 5.35 4.88h4.28v-5.41h-1.37Zm-8.57-9.4c0 7.2-4.64 10.41-9.58 10.41-4.34 0-6.13-2.38-6.13-5.17s1.78-5.12 6.31-5.18l2.56-.06c3.69-.06 5.65-1.13 6.72-3.39h.12zM6.52 48.16h6.66V30.02h19.99v-5.53H13.18V12.05h22.31V6.52H6.52z" class="cls-1"></path></svg></g></g></svg></g><g id="dark-icon"><svg xmlns="http://www.w3.org/2000/svg" version="1.1" xmlns:xlink="http://www.w3.org/1999/xlink" width="1000" height="1000"><g clip-path="url(#SvgjsClipPath1068)"><rect width="1000" height="1000" fill="#ffffff"></rect><g transform="matrix(3.5377358490566038,0,0,3.5377358490566038,50,402.4292452830189)"><svg xmlns="http://www.w3.org/2000/svg" xmlns:xlink="http://www.w3.org/1999/xlink" id="Ebene_1" data-name="Ebene 1" viewBox="0 0 254.4 55.16" width="254.4" height="55.16"><defs><clipPath id="SvgjsClipPath1068"><rect width="1000" height="1000" x="0" y="0" rx="350" ry="350"></rect></clipPath></defs><path d="M219.73 48.16h6.42v-18.2c0-7.26 4.11-10.05 8.33-10.05 3.99 0 6.78 2.5 6.78 8.86v19.39h6.43V28.11c0-8.86-4.28-13.62-11.07-13.62-4.76 0-8.45 2.44-10.47 6.54h-.12v-5.59h-6.31v32.72ZM214.14 30.32c0-10.11-6.72-15.82-15.65-15.82-9.46 0-16.06 6.6-16.06 17.31s6.48 17.31 16.12 17.31c7.97 0 13.8-4.52 15.23-11.01H207c-1.19 3.51-4.28 5.71-8.39 5.71-5.59 0-9.04-4.22-9.34-10.05h24.87zm-24.81-1.55c.59-5.06 3.57-8.98 9.34-8.98s8.86 3.69 8.86 8.98zM163.81 20.86v18.56c0 5.83 3.03 8.75 8.8 8.75h8.03v-5.41h-6.48c-2.5 0-3.93-1.07-3.93-3.87V20.86h10.17v-5.41h-10.17V6.52h-6.43v8.92h-16.54V6.52h-6.42v8.92h-6.43v5.41h6.43v18.56c0 5.83 3.03 8.75 8.8 8.75h8.03v-5.41h-6.48c-2.5 0-3.93-1.07-3.93-3.87V20.85h16.54ZM132.16 30.32c0-10.11-6.72-15.82-15.65-15.82-9.46 0-16.06 6.6-16.06 17.31s6.48 17.31 16.12 17.31c7.97 0 13.8-4.52 15.23-11.01h-6.78c-1.19 3.51-4.28 5.71-8.39 5.71-5.59 0-9.04-4.22-9.34-10.05h24.87zm-24.8-1.55c.6-5.06 3.57-8.98 9.34-8.98s8.86 3.69 8.86 8.98zM71.6 48.16h27.9v-5.41H80.29v-.06l17.9-22.43v-4.82h-25.4v5.36h16.78v.06L71.6 43.29zM67.68 42.75c-1.55 0-2.14-.6-2.14-2.14V25.74c0-6.48-3.75-11.24-13.27-11.24s-13.92 4.52-14.4 11.54h6.6c.3-3.99 3.33-6.25 7.85-6.25 3.81 0 6.78 1.61 6.78 4.88 0 2.38-1.55 3.75-4.82 3.75h-5.24c-6.48 0-12.43 2.86-12.43 10.29 0 6.84 4.94 10.41 11.24 10.41 5.12 0 9.34-2.38 11.42-7.38h.12v1.55c0 3.03 1.96 4.88 5.35 4.88h4.28v-5.41h-1.37Zm-8.57-9.4c0 7.2-4.64 10.41-9.58 10.41-4.34 0-6.13-2.38-6.13-5.17s1.78-5.12 6.31-5.18l2.56-.06c3.69-.06 5.65-1.13 6.72-3.39h.12zM6.52 48.16h6.66V30.02h19.99v-5.53H13.18V12.05h22.31V6.52H6.52z" class="cls-1"></path></svg></g></g></svg></g></svg>