<?xml version="1.0" encoding="UTF-8"?>
<svg id="Ebene_1" xmlns="http://www.w3.org/2000/svg" version="1.1" viewBox="0 0 2385.6 869">
  <!-- Generator: Adobe Illustrator 29.8.2, SVG Export Plug-In . SVG Version: 2.1.1 Build 3)  -->
  <path d="M2329.9,868.8c-2.2.2-5.8.2-8,0-20.7-2.2-37.9-19.8-40-40.5V281.5c9.2-56.5,84.3-53.9,88,6v534.8c-.3,23.2-16.5,44-40,46.5Z"/>
  <path d="M2332.2.1c76.1,6.9,68.6,120.7-7.5,117-71.8-3.5-73.2-111.6-.5-117,2.4-.2,5.7-.2,8,0Z"/>
  <path d="M1974,626.5c94-49.7,135.9-161,94.4-260.5-38.9-93.3-144-146.1-242.4-117.5-21.6,6.3-41.5,16.7-60.5,28.5-13.3-53.2-88-44.9-90.6,9.4v537.8c1,22.9,18,42.1,41,44.5,2.3.2,4.7-.2,7,0,4.4-1.3,8.7-1.8,13-3.5,11.6-4.5,27-22.2,27-35v-216.4c10.1,4.4,19.3,10.6,29.3,15.2,18.3,8.4,39.3,15,59.3,17.7,10.3,1.4,20.8,1.4,31.2,2.4l119.4,201c5.5,6.8,12.3,12.5,20.6,15.4,4.1,1.5,8.1,2,12.3,3.2h7c33.2-3.4,51.6-38.2,35.2-67.6l-103.1-174.7ZM1781.8,502.6c-44.1-76.3,10.1-171.4,98-172.4,90.2-1,146.4,98,99,175-44.6,72.5-154.3,71.1-197-2.6Z"/>
  <path d="M1308,868.8h-15c-97.3-4.1-177.7-82.6-183-180.4v-407.9c9.3-54.8,83.7-52.4,88,5v400.9c14.4,124.2,192,122,204-2v-399.9c4.2-58.3,84.3-57.4,88,0-1.5,140.5,2.8,281.5-2.2,421.8-12.9,89.7-89.9,158-179.8,162.6Z"/>
  <path d="M1399,.1c76.1,6.9,68.6,120.7-7.5,117-71.8-3.5-73.2-111.6-.5-117,2.4-.2,5.7-.2,8,0Z"/>
  <path d="M1223,.1c75.7,7,68.9,120.4-7.5,117-71.6-3.2-73.4-111.6-.5-117,2.4-.2,5.7-.2,8,0Z"/>
  <path d="M739,868.8h-17c-119.4-7.3-201.7-106.7-194-225.5,3.9-61,83.8-58.5,88.1-5,2.2,27.1-2.5,44.1,8.8,71.2,38.7,92.5,170.4,92.9,209.6.3,30.8-72.7-20-152.7-98-157.9-41.8-2.8-74.2,2.3-113.5-17.5-118.1-59.3-111.9-227.5,8.4-280.6,82.2-36.3,184,7.9,209.7,94.6,16.2,54.8-58.7,81.3-82.4,34.4s-10.1-30.6-31.7-43.3c-56.8-33.4-124,27.4-94.5,86.4s77.7,33.5,120,38c81.7,8.6,154.4,72.3,174.2,151.7,31.2,124.8-59.9,247-187.7,253.1Z"/>
  <path d="M0,281c2.3-20.3,18.5-36.6,38.6-39.9h306.8c37.7,6,52.8,52.9,22.1,77.8-4.8,3.9-17,10-23,10h-105.5v501.3c0,18.5-22.6,36.6-40,38.5h-7c-5.4-1.4-10-1.8-15.2-4.3-13.3-6.2-25.8-23.3-25.8-38.2v-497.3H39.6c-6.5,0-18.9-6.7-24-11-9.1-7.7-13.5-17.3-15.5-29,.2-2.6-.3-5.4,0-8Z"/>
</svg>