<?xml version="1.0" encoding="UTF-8"?>
<svg xmlns="http://www.w3.org/2000/svg" version="1.1" viewBox="0 0 572.85 208.56">
  <path d="M3.21,75.89c2.13,2.07,4.68,3.11,7.63,3.11h25.42v118.72c0,2.95,1.04,5.49,3.11,7.63,2.07,2.13,4.58,3.2,7.53,3.2s5.44-1.07,7.48-3.2c2.04-2.13,3.06-4.68,3.06-7.63v-118.72h23.91c2.95,0,5.49-1.04,7.63-3.11,2.13-2.07,3.2-4.58,3.2-7.53s-1.07-5.46-3.2-7.53-4.68-3.11-7.63-3.11H10.83c-2.95,0-5.49,1.04-7.63,3.11-2.13,2.07-3.2,4.58-3.2,7.53s1.07,5.46,3.2,7.53h.01ZM130.52,178.66c2.51,5.93,5.98,11.11,10.4,15.54s9.56,7.92,15.39,10.5c5.84,2.58,12.18,3.86,19.02,3.86s13.02-1.28,18.92-3.86c5.9-2.57,11.06-6.07,15.49-10.5,4.43-4.42,7.89-9.59,10.4-15.49,2.51-5.9,3.77-12.27,3.77-19.11s-1.29-12.91-3.86-18.78-6.07-11.01-10.5-15.44c-4.42-4.42-9.6-7.92-15.53-10.5-5.93-2.57-12.22-3.86-18.88-3.86l-8.47-.38h-.38c-4.52,0-8.32-1.47-11.39-4.42-3.08-2.95-4.61-6.62-4.61-11.01s1.54-8.13,4.61-11.2,6.87-4.61,11.39-4.61c3.45,0,6.57,1,9.37,3.01,2.79,2.01,4.69,4.68,5.7,8,1,2.82,2.79,4.9,5.37,6.21,1.57.82,3.17,1.22,4.8,1.22,1.07,0,2.17-.19,3.3-.57,2.89-.88,5.02-2.64,6.4-5.27.88-1.57,1.32-3.2,1.32-4.9,0-1.07-.19-2.17-.57-3.3-1.32-3.83-3.12-7.36-5.41-10.59-2.29-3.23-5.02-6.01-8.19-8.33s-6.65-4.1-10.45-5.32-7.67-1.84-11.63-1.84c-5.15,0-10,1-14.55,3.01s-8.51,4.68-11.86,8c-3.36,3.33-6.02,7.28-8,11.86s-2.97,9.45-2.97,14.59.96,9.93,2.87,14.36c1.91,4.42,4.55,8.32,7.91,11.67,3.36,3.36,7.28,6.03,11.77,8,4.49,1.98,9.31,2.97,14.45,2.97l8.47.38h.57c3.83,0,7.39.71,10.69,2.12,3.3,1.41,6.2,3.34,8.71,5.79,2.51,2.45,4.47,5.32,5.88,8.62,1.41,3.29,2.12,6.79,2.12,10.5s-.71,7.39-2.12,10.69c-1.41,3.29-3.34,6.2-5.79,8.71-2.45,2.51-5.35,4.47-8.71,5.88s-6.89,2.12-10.59,2.12-7.24-.71-10.59-2.12c-3.36-1.41-6.26-3.37-8.71-5.88-2.45-2.51-4.38-5.41-5.79-8.71-1.41-3.29-2.12-6.86-2.12-10.69v-5.46c0-2.95-1.02-5.48-3.06-7.58s-4.53-3.15-7.49-3.15-5.46,1.05-7.53,3.15c-2.07,2.1-3.11,4.63-3.11,7.58v5.46c0,6.78,1.26,13.13,3.76,19.06h.01ZM269.88,180.49c2.39,5.59,5.63,10.44,9.74,14.55s8.93,7.39,14.45,9.84c5.52,2.45,11.49,3.67,17.89,3.67s12.28-1.22,17.85-3.67,10.41-5.73,14.51-9.84,7.34-8.96,9.73-14.55c2.38-5.59,3.57-11.58,3.57-17.98v-93.96c0-2.95-1.03-5.49-3.09-7.63-2.06-2.13-4.56-3.2-7.5-3.2s-5.44,1.07-7.5,3.2-3.09,4.68-3.09,7.63v93.96c0,3.33-.63,6.5-1.88,9.51-1.26,3.01-3.01,5.62-5.27,7.81-2.26,2.2-4.88,3.94-7.86,5.22-2.98,1.29-6.14,1.93-9.46,1.93s-6.65-.64-9.6-1.93-5.52-3.03-7.72-5.22c-2.2-2.2-3.94-4.8-5.23-7.81s-1.93-6.18-1.93-9.51v-93.96c0-2.95-1.02-5.49-3.06-7.63-2.04-2.13-4.53-3.2-7.48-3.2s-5.46,1.07-7.53,3.2-3.11,4.68-3.11,7.63v93.96c0,6.4,1.19,12.4,3.58,17.98h-.01ZM405.1,205.35c2.07,2.13,4.58,3.2,7.53,3.2s5.44-1.07,7.48-3.2c2.04-2.13,3.06-4.68,3.06-7.63v-50.46c4.27,2.7,8.71,4.79,13.32,6.26,4.61,1.48,9.43,2.21,14.45,2.21h.75l28.15,47.45c1.07,1.76,2.43,3.09,4.09,4s3.4,1.36,5.23,1.36c2.13,0,3.98-.5,5.55-1.51,2.57-1.44,4.24-3.61,4.99-6.5.25-.94.34-1.88.28-2.83,0-1.88-.47-3.67-1.41-5.37l-24.85-41.99c7.97-4.14,14.39-10.06,19.25-17.75s7.3-16.3,7.3-25.84c0-6.65-1.27-12.98-3.81-18.97-2.54-5.99-6.04-11.22-10.5-15.68s-9.68-7.97-15.68-10.54c-5.99-2.57-12.32-3.86-18.97-3.86-5.15,0-10.04.79-14.69,2.35-4.65,1.57-8.94,3.7-12.9,6.4-.5-2.57-1.77-4.68-3.81-6.31s-4.35-2.45-6.92-2.45c-2.95,0-5.52,1.07-7.72,3.2s-3.3,4.68-3.3,7.63v129.17c0,2.95,1.04,5.49,3.11,7.63h0l.02.03ZM426.09,96.14c1.44-3.33,3.4-6.24,5.89-8.76,2.48-2.51,5.4-4.47,8.76-5.88,3.36-1.41,6.89-2.12,10.59-2.12,3.89,0,7.5.71,10.83,2.12s6.25,3.37,8.76,5.88c2.51,2.51,4.47,5.45,5.88,8.8,1.41,3.36,2.12,6.89,2.12,10.59s-.71,7.23-2.12,10.59c-1.41,3.36-3.38,6.28-5.88,8.76-2.51,2.48-5.45,4.43-8.8,5.84-3.36,1.41-6.95,2.12-10.78,2.12s-7.24-.71-10.59-2.12c-3.36-1.41-6.28-3.36-8.76-5.84s-4.44-5.4-5.89-8.76c-1.44-3.36-2.16-6.89-2.16-10.59s.72-7.31,2.16-10.64h-.01ZM550.67,205.35c2.07,2.13,4.58,3.2,7.53,3.2s5.44-1.07,7.48-3.2c2.04-2.13,3.06-4.68,3.06-7.63V68.55c0-2.95-1.02-5.49-3.06-7.63-2.04-2.13-4.53-3.2-7.48-3.2s-5.46,1.07-7.53,3.2-3.11,4.68-3.11,7.63v129.17c0,2.95,1.03,5.49,3.11,7.63h0Z"/>
  <path d="M292.48,28.16c7.78,0,14.08-6.31,14.08-14.08s-6.31-14.08-14.08-14.08-14.08,6.31-14.08,14.08,6.31,14.08,14.08,14.08h0Z"/>
  <path d="M334.73,28.16c7.78,0,14.08-6.31,14.08-14.08s-6.3-14.08-14.08-14.08-14.08,6.31-14.08,14.08,6.31,14.08,14.08,14.08h0Z"/>
  <path d="M558.77,28.16c7.78,0,14.08-6.31,14.08-14.08s-6.31-14.08-14.08-14.08-14.08,6.31-14.08,14.08,6.31,14.08,14.08,14.08h0Z"/>
</svg>
