<?xml version="1.0" standalone="no"?>
<!DOCTYPE svg PUBLIC "-//W3C//DTD SVG 20010904//EN"
 "http://www.w3.org/TR/2001/REC-SVG-20010904/DTD/svg10.dtd">
<svg version="1.0" xmlns="http://www.w3.org/2000/svg"
 width="192.000000pt" height="192.000000pt" viewBox="0 0 192.000000 192.000000"
 preserveAspectRatio="xMidYMid meet">
<metadata>
Created by potrace 1.14, written by Peter Selinger 2001-2017
</metadata>
<g transform="translate(0.000000,192.000000) scale(0.100000,-0.100000)"
fill="#000000" stroke="none">
<path d="M1022 1473 c-35 -14 -72 -47 -72 -63 0 -5 -4 -10 -8 -10 -4 0 -14
-16 -21 -35 -7 -19 -16 -35 -20 -35 -4 0 -8 -6 -8 -12 0 -7 -7 -37 -16 -65 -9
-29 -13 -53 -10 -53 3 0 0 -7 -7 -14 -6 -8 -13 -39 -15 -68 -2 -29 -6 -60 -9
-68 -7 -21 -14 -103 -15 -176 -1 -55 -5 -67 -47 -130 -68 -101 -170 -195 -211
-194 -5 0 -15 -3 -24 -5 -21 -7 -80 18 -103 44 -11 12 -16 21 -11 21 4 0 3 6
-3 13 -28 34 -33 243 -8 326 3 9 8 31 11 49 8 47 64 221 83 257 9 17 17 36 18
43 1 7 11 28 22 46 19 32 19 35 4 49 -9 9 -24 17 -32 19 -8 2 -17 6 -20 9 -9
10 -100 59 -111 59 -5 0 -21 -11 -35 -25 -23 -23 -75 -56 -99 -61 -5 -2 -21
-6 -35 -10 -14 -3 -40 -7 -57 -8 -18 -1 -35 -5 -38 -8 -3 -3 -24 -2 -45 2 -40
7 -52 1 -56 -27 -2 -13 -10 -66 -19 -130 -5 -34 -3 -43 12 -51 23 -13 162 -13
185 -1 10 6 19 5 23 -1 4 -6 10 -8 15 -5 5 3 3 -10 -5 -28 -8 -19 -12 -37 -9
-40 3 -3 2 -12 -2 -19 -8 -13 -10 -19 -19 -68 -13 -73 -17 -107 -17 -125 1
-10 -4 -25 -10 -32 -6 -7 -7 -13 -2 -13 5 0 10 -45 10 -100 1 -55 7 -106 12
-113 6 -7 12 -26 15 -42 4 -34 17 -68 28 -75 4 -3 9 -11 11 -19 5 -22 86 -98
129 -120 21 -12 39 -19 39 -16 0 2 12 0 28 -6 27 -10 109 -13 147 -5 40 8 111
40 142 63 17 12 34 23 38 23 3 0 29 24 56 52 l50 53 19 -25 c10 -13 16 -29 13
-34 -3 -5 -1 -6 5 -2 7 4 12 3 12 -2 0 -19 77 -85 105 -90 11 -2 22 -7 25 -10
9 -12 44 -17 126 -17 75 1 88 4 155 38 61 31 207 147 185 147 -3 0 2 9 12 19
33 36 57 69 60 82 2 8 7 16 10 19 11 8 75 142 75 156 0 8 5 14 10 14 6 0 7 3
4 7 -4 3 -2 11 3 18 5 6 11 20 13 31 2 10 7 26 10 34 3 8 11 32 17 53 l12 38
21 -28 c35 -45 108 -109 120 -105 4 1 7 -3 7 -8 0 -6 5 -10 10 -10 6 0 10 54
10 141 l0 141 -35 48 c-19 26 -35 51 -35 56 0 4 -7 15 -15 24 -9 10 -18 27
-20 40 -2 12 -9 27 -14 34 -5 6 -19 41 -31 78 -20 62 -23 66 -48 63 -15 -2
-28 -4 -29 -6 -4 -2 -10 -4 -48 -13 -97 -23 -105 -28 -98 -55 4 -14 7 -36 7
-48 0 -13 3 -23 6 -23 10 0 6 -75 -5 -82 -6 -5 -6 -8 1 -8 7 0 10 -12 7 -27
-2 -16 -5 -44 -6 -63 -1 -19 -6 -41 -10 -47 -5 -7 -5 -13 -1 -13 3 0 0 -8 -7
-17 -10 -12 -10 -15 -1 -9 9 5 10 2 3 -16 -4 -13 -14 -41 -21 -63 -23 -79 -63
-175 -72 -175 -5 0 -7 -4 -3 -9 3 -5 -1 -16 -9 -24 -8 -8 -12 -17 -9 -21 4 -3
1 -6 -5 -6 -6 0 -13 -9 -17 -20 -8 -26 -133 -153 -144 -146 -5 3 -11 -1 -15
-9 -3 -8 -12 -12 -20 -9 -8 3 -17 1 -21 -5 -4 -8 -12 -8 -27 0 -15 8 -19 8
-14 0 12 -18 -47 11 -68 34 -25 28 -45 79 -50 132 -1 12 -5 25 -8 28 -3 4 7
31 22 60 15 29 26 56 22 59 -3 3 0 6 6 6 7 0 11 3 10 8 -1 4 4 21 11 37 7 17
13 38 14 48 1 9 4 17 8 17 4 0 11 15 15 33 4 17 9 35 10 40 1 4 2 8 4 10 1 1
3 9 5 17 2 8 6 24 9 35 18 66 23 95 19 95 -3 0 0 7 7 15 9 11 9 15 1 15 -7 0
-9 5 -5 12 11 18 12 101 1 116 -5 6 -6 12 -3 12 13 0 -29 61 -52 76 -31 21
-80 24 -120 7z"/>
</g>
</svg>
