<?xml version="1.0" standalone="no"?>
<!DOCTYPE svg PUBLIC "-//W3C//DTD SVG 20010904//EN"
 "http://www.w3.org/TR/2001/REC-SVG-20010904/DTD/svg10.dtd">
<svg version="1.0" xmlns="http://www.w3.org/2000/svg"
 width="764.000000pt" height="764.000000pt" viewBox="0 0 764.000000 764.000000"
 preserveAspectRatio="xMidYMid meet">
<metadata>
Created by potrace 1.14, written by Peter Selinger 2001-2017
</metadata>
<g transform="translate(0.000000,764.000000) scale(0.100000,-0.100000)"
fill="#000000" stroke="none">
<path d="M0 7629 c0 -5 5 -7 10 -4 5 3 10 8 10 11 0 2 -4 4 -10 4 -5 0 -10 -5
-10 -11z"/>
<path d="M7610 7636 c0 -2 7 -9 15 -16 12 -10 15 -10 15 4 0 9 -7 16 -15 16
-8 0 -15 -2 -15 -4z"/>
<path d="M252 6758 l3 -263 35 -1 c47 -2 189 -14 220 -19 14 -2 43 -6 65 -10
71 -10 159 -36 213 -63 102 -50 161 -130 198 -267 18 -68 19 -149 19 -2300 0
-1227 -3 -2254 -7 -2282 -11 -80 -51 -186 -88 -231 -84 -105 -228 -159 -473
-178 -40 -3 -88 -7 -107 -9 -19 -2 -45 -4 -57 -4 l-23 -1 0 -259 c0 -198 3
-260 13 -263 10 -3 2924 -2 2979 1 16 1 17 22 17 261 -1 259 -1 260 -22 261
-12 1 -33 2 -47 3 -14 2 -68 6 -120 10 -51 4 -97 9 -100 11 -3 2 -25 6 -49 10
-117 17 -244 76 -305 142 -40 43 -78 126 -96 217 -15 68 -18 148 -19 491 -2
454 -4 438 69 601 69 152 241 369 365 460 22 16 42 31 45 34 24 26 263 160
286 160 5 0 20 6 34 13 41 21 207 66 304 81 115 18 352 13 466 -9 170 -33 355
-105 493 -192 200 -124 381 -326 480 -533 78 -165 77 -158 78 -580 0 -206 -3
-404 -6 -440 -27 -283 -143 -401 -445 -451 -53 -9 -204 -23 -286 -28 -21 -1
-21 -4 -20 -263 l1 -262 1505 0 1505 0 3 262 2 262 -22 1 c-13 0 -39 2 -58 4
-19 2 -67 6 -107 9 -106 9 -150 16 -230 37 -211 53 -301 153 -339 374 -11 66
-13 476 -11 2290 2 2030 4 2216 19 2278 64 258 230 347 691 369 l57 3 0 262 0
263 -1509 0 -1508 0 0 -260 c0 -143 3 -260 6 -261 13 -2 60 -7 141 -13 193
-15 320 -45 405 -96 71 -42 91 -61 129 -125 35 -57 62 -151 71 -240 5 -63 7
-1056 1 -1062 -3 -3 -2037 -6 -2544 -3 l-74 0 4 558 4 557 25 82 c52 167 142
245 337 293 94 22 222 38 350 44 l37 1 3 263 2 262 -1505 0 -1505 0 2 -262z
m4863 -2330 c5 -5 6 -228 5 -896 l0 -172 -85 83 c-318 315 -743 471 -1260 462
-99 -2 -189 -6 -201 -8 -12 -3 -45 -8 -75 -12 -170 -20 -444 -110 -574 -188
-56 -34 -191 -120 -195 -126 -3 -3 -27 -24 -55 -46 -27 -22 -78 -69 -112 -104
l-63 -64 0 535 c0 294 2 537 4 539 6 6 2605 4 2611 -3z"/>
<path d="M7625 10 c-3 -5 -1 -10 4 -10 6 0 11 5 11 10 0 6 -2 10 -4 10 -3 0
-8 -4 -11 -10z"/>
</g>
</svg>
