<svg xmlns="http://www.w3.org/2000/svg" viewBox="0 0 137.6 23.7"><path fill="#fff" d="m43.9 0-4 23.7h93.7l4-23.7zm-13 20.2c-2 0-3.9-1.1-4.9-2.9-.5-1-.8-2.1-.8-3.3-1.3-.6-2.3-1.5-3.1-2.5-.5 2.4-1.6 4.7-3.1 6.3s-3.3 2.3-5.1 1.9c-1.2-.3-2.1-1.1-2.7-2.3-2 2.4-3.9 2.7-5.2 2.5-1.4-.2-2.5-1-3.1-2.4-1-2.1-.6-5.3.2-8.1-.9.2-2 .3-3.1 0l.4-2.7c2.5.4 4-.8 4.4-1.2v-.2l2.4 1.3v.3c-1.7 2.9-2.8 7.5-1.9 9.5.2.5.6.8 1.1.8.7.1 1.5-.3 2.3-1.1.6-.6 1.2-1.5 1.7-2.3 0-.8 0-1.6.1-2.4.2-1.8.9-6 3.1-6s1.1.3 1.4.9c.7 1.4-.4 5.1-1.9 8.1 0 .5.1.9.2 1.3.4 1.2.9 1.3 1.1 1.3.8.2 1.7-.2 2.6-1.1 2.1-2.2 3.3-6.6 2.6-9.5v-.3l2.6-.7v.3c.2.9 1.3 4 3.6 5.4.2-.5.5-1.1.8-1.6 1.4-2.4 4-4.6 7.2-3.9 1.8.4 3.1 1.7 3.3 3.2s-.3 2.9-1.4 4c-1.7 1.6-4.5 2.3-7.8 1.9 0 .4.2.9.4 1.2.5.9 1.5 1.5 2.6 1.5 1.8 0 3.1-.7 3.7-1.5l2.1 1.7c-1.2 1.5-3.4 2.5-5.8 2.5m-2.6-8c2.8.3 4.7-.3 5.5-1.2.5-.5.7-1 .6-1.7 0-.3-.5-.7-1.2-.9-.6-.1-2.6-.3-4.4 2.7-.2.3-.4.7-.5 1"/><path d="M69.6 10.3v3.2q0 2.4-1.8 2.4c-1.8 0-1.7-.8-1.7-2.2V7.3h-3.3v7.4c0 2.6 1.6 4.4 4 4.4s2.5-.5 3.2-1.4v1.2h3.2V7.1h-3.4v3.1Zm21.8-3.8v12.1h3.3V3.4h-3.3zm10.3-3.1h-3.3v3.1h3.3zm-3.4 6.9v8.4h3.3V9.4h-3.3v.8Zm-44-3.4c-1.4 0-2.4.5-3.2 1.6V7.2h-4.6l-.5 3.1h1.8v11.8h3.3v-4.5c1.2 1 2 1.3 3.4 1.3 3 0 5.5-2.7 5.5-5.9s-2.6-6-5.7-6m-.4 8.7c-1.6 0-2.8-1.2-2.8-2.8s1.3-2.8 2.8-2.8 2.8 1.2 2.8 2.8-1.2 2.8-2.8 2.8m74.1-.2v-3.7c0-3-1.6-4.9-4-4.9s-2.4.6-3.1 1.8V3.4h-3.3v15.3h3.3v-6.1c0-1.5.7-2.3 2-2.3s1.9.7 1.9 2.4v6h4.5l.5-3.1h-1.7Zm-16.8-8.2c-.5-.4-1.2-.6-2-.6-2.4 0-4.3 1.7-4.3 3.8s.5 2.2 1.5 2.7c.7.5.9.5 3 1.1 1.2.4 1.6.6 1.6 1.2s-.5 1-1.2 1-1.7-.1-1.8-1h-2.8l-.5 2.9h3.1c.7.4 1.5.7 2.4.7 2.4 0 4.3-1.7 4.3-3.9s-.1-1-.3-1.5c-.5-1-1.2-1.5-2.7-2l-1.5-.4c-1.2-.3-1.5-.6-1.5-1.1s.5-.8 1.1-.8 1.5 0 1.6.8h2.8l.5-2.9h-3.2Zm-27.8-.4c-1.4 0-2.4.4-3.1 1.3V3.4h-4.6l-.5 3.1H77v12.1h3.3v-1.3c.9 1.1 1.9 1.5 3.2 1.5 3 0 5.5-2.7 5.5-6s-2.5-6-5.6-6m-.5 8.9c-1.5 0-2.7-1.3-2.7-2.8s1.2-2.8 2.7-2.8 2.7 1.2 2.7 2.8-1.2 2.8-2.7 2.8"/></svg>
