<svg xmlns="http://www.w3.org/2000/svg" viewBox="0 0 137.6 23.7"><path d="m43.9 0-4 23.7h93.7l4-23.7z"/><path fill="#fff" d="M69.6 10.3v3.2q0 2.4-1.8 2.4c-1.8 0-1.7-.8-1.7-2.2V7.3h-3.3v7.4c0 2.6 1.6 4.4 4 4.4s2.5-.5 3.2-1.4v1.2h3.2V7.1h-3.4v3.1h-.2Zm21.8-3.8v12.1h3.3V3.4h-3.3zm10.3-3.1h-3.3v3.1h3.3zm-3.4 6.9v8.4h3.3V9.4h-3.3v.8Zm-44-3.4c-1.4 0-2.4.5-3.2 1.6V7.2h-4.6l-.5 3.1h1.8v11.8h3.3v-4.5c1.2 1 2 1.3 3.4 1.3 3 0 5.5-2.7 5.5-5.9s-2.6-6-5.7-6m-.4 8.7c-1.6 0-2.8-1.2-2.8-2.8s1.3-2.8 2.8-2.8 2.8 1.2 2.8 2.8-1.2 2.8-2.8 2.8m74.1-.2v-3.7c0-3-1.6-4.9-4-4.9s-2.4.6-3.1 1.8V3.4h-3.3v15.3h3.3v-6.1c0-1.5.7-2.3 2-2.3s1.9.7 1.9 2.4v6h4.5l.5-3.1H128Zm-16.8-8.2c-.5-.4-1.2-.6-2-.6-2.4 0-4.3 1.7-4.3 3.8s.5 2.2 1.5 2.7c.7.5.9.5 3 1.1 1.2.4 1.6.6 1.6 1.2s-.5 1-1.2 1-1.7-.1-1.8-1h-2.8l-.5 2.9h3.1c.7.4 1.5.7 2.4.7 2.4 0 4.3-1.7 4.3-3.9s0-1-.3-1.5c-.5-1-1.2-1.5-2.7-2l-1.5-.4c-1.2-.3-1.5-.6-1.5-1.1s.5-.8 1.1-.8 1.5 0 1.6.8h2.8l.5-2.9zm-27.8-.4c-1.4 0-2.4.4-3.1 1.3V3.4h-4.6l-.5 3.1H77v12.1h3.3v-1.3c.9 1.1 1.9 1.5 3.2 1.5 3 0 5.5-2.7 5.5-6s-2.5-6-5.6-6m-.5 8.9c-1.5 0-2.7-1.3-2.7-2.8s1.2-2.8 2.7-2.8 2.7 1.2 2.7 2.8-1.2 2.8-2.7 2.8"/><path d="M30.9 17.4c-1.1 0-2.1-.6-2.6-1.5-.2-.3-.4-.8-.4-1.2 3.3.4 6.1-.3 7.8-1.9 1.1-1.1 1.6-2.5 1.4-4S35.6 6 33.8 5.6c-3.2-.7-5.8 1.5-7.2 3.9-.3.5-.6 1.1-.8 1.6-2.3-1.4-3.4-4.5-3.6-5.4v-.3l-2.6.7v.3c.7 2.9-.5 7.3-2.6 9.5-.9.9-1.8 1.3-2.6 1.1-.2 0-.7 0-1.1-1.3 0-.4-.2-.8-.2-1.3 1.5-3 2.6-6.7 1.9-8.1s.8-.9-1.4-.9-2.9 4.2-3.1 6v2.4c-.5.8-1.1 1.7-1.7 2.3-.8.8-1.6 1.2-2.3 1.1-.5 0-.9-.3-1.1-.8-.9-2 .2-6.6 1.9-9.5v-.3L4.9 5.3v.2C4.5 5.9 3 7.1.5 6.7L.1 9.4c1.1.3 2.2.2 3.1 0-.8 2.8-1.2 6-.2 8.1.6 1.4 1.7 2.2 3.1 2.4 1.3.2 3.2-.1 5.2-2.5.6 1.2 1.5 2 2.7 2.3 1.8.4 3.6-.3 5.1-1.9s2.6-3.9 3.1-6.3c.8 1 1.8 1.9 3.1 2.5 0 1.2.3 2.3.8 3.3 1 1.8 2.9 2.9 4.9 2.9 2.4 0 4.6-1.1 5.8-2.6l-2.1-1.7c-.6.8-1.9 1.5-3.7 1.5ZM28.3 12c.1-.3.3-.7.5-1 1.8-3 3.8-2.8 4.4-2.7.7.2 1.2.6 1.2.9 0 .7-.1 1.2-.6 1.7-.8.9-2.7 1.5-5.5 1.2Z"/></svg>