<?xml version="1.0" standalone="no"?>
<!DOCTYPE svg PUBLIC "-//W3C//DTD SVG 20010904//EN"
 "http://www.w3.org/TR/2001/REC-SVG-20010904/DTD/svg10.dtd">
<svg version="1.0" xmlns="http://www.w3.org/2000/svg"
 width="470.000000pt" height="470.000000pt" viewBox="0 0 470.000000 470.000000"
 preserveAspectRatio="xMidYMid meet">
<metadata>
Created by potrace 1.14, written by Peter Selinger 2001-2017
</metadata>
<g transform="translate(0.000000,470.000000) scale(0.100000,-0.100000)"
fill="#000000" stroke="none">
<path d="M2210 4689 c-728 -43 -1405 -434 -1813 -1051 -181 -273 -298 -568
-358 -903 -21 -114 -24 -161 -24 -385 1 -222 4 -272 24 -385 117 -656 477
-1206 1031 -1577 124 -82 363 -202 506 -251 595 -208 1234 -171 1799 103 298
144 594 380 800 635 504 627 655 1449 405 2207 -333 1010 -1304 1669 -2370
1607z m400 -260 c310 -37 629 -153 890 -326 729 -482 1082 -1336 903 -2188
-34 -166 -83 -306 -162 -470 -211 -435 -536 -761 -974 -976 -294 -144 -581
-209 -917 -209 -580 1 -1107 227 -1511 647 -378 394 -579 894 -579 1441 0 340
66 630 210 920 402 810 1244 1267 2140 1161z"/>
<path d="M1274 3336 c-38 -38 -45 -85 -20 -135 21 -40 56 -51 156 -51 l90 0 0
-800 0 -800 -87 0 c-152 0 -203 -29 -203 -116 0 -34 6 -51 29 -76 l29 -33 371
-3 c333 -2 375 -1 407 14 66 31 82 124 30 173 -34 32 -78 41 -208 41 l-118 0
0 701 c0 455 -4 725 -11 770 -6 39 -9 72 -7 74 1 1 116 -263 255 -589 l252
-591 111 0 112 0 261 593 c143 325 261 591 262 590 2 -2 -3 -39 -11 -83 -10
-61 -13 -246 -13 -772 l-1 -693 -122 -1 c-68 0 -138 -5 -157 -12 -79 -28 -101
-122 -42 -181 l31 -31 358 -3 c242 -2 369 0 395 8 87 25 104 146 28 197 -19
13 -53 18 -133 21 l-108 4 0 799 0 799 91 0 c94 0 122 8 151 44 20 24 23 83 7
119 -24 54 -44 57 -336 57 l-268 0 -250 -570 c-158 -360 -253 -565 -258 -557
-5 6 -117 262 -251 567 l-242 555 -273 3 -273 2 -34 -34z"/>
</g>
</svg>
