<svg xmlns="http://www.w3.org/2000/svg" version="1" xmlns:xlink="http://www.w3.org/1999/xlink" width="1200" zoomAndPan="magnify" viewBox="0 0 900 899.99999" height="1200" preserveAspectRatio="xMidYMid meet"><metadata><rdf:RDF xmlns:rdf="http://www.w3.org/1999/02/22-rdf-syntax-ns#" xmlns:dc="http://purl.org/dc/elements/1.1/"><rdf:Description><dc:creator>RealFaviconGenerator</dc:creator><dc:source>https://realfavicongenerator.net</dc:source></rdf:Description></rdf:RDF></metadata><defs><g></g><clipPath id="00ffa03ad4"><rect x="0" width="500" y="0" height="900"></rect></clipPath></defs><rect x="-90" width="1080" fill="#ffffff" y="-89.999999" height="1079.999988" fill-opacity="1"></rect><rect x="-90" width="1080" fill="#4e2996" y="-89.999999" height="1079.999988" fill-opacity="1"></rect><g transform="matrix(1, 0, 0, 1, 200, 0.000000000000108392)"><g clip-path="url(#00ffa03ad4)"><g fill="#ffffff" fill-opacity="1"><g transform="translate(0.669057, 727.458332)"><g><path d="M 464.90625 -125.203125 C 464.90625 -98.347656 462.363281 -71.671875 457.28125 -45.171875 C 452.207031 -18.679688 441.863281 5.265625 426.25 26.671875 C 410.644531 48.085938 387.054688 65.144531 355.484375 77.84375 C 323.910156 90.550781 281.269531 96.90625 227.5625 96.90625 C 205.050781 96.90625 182.363281 95.816406 159.5 93.640625 C 136.632812 91.460938 116.671875 88.191406 99.609375 83.828125 C 82.554688 79.472656 71.128906 74.03125 65.328125 67.5 C 61.703125 63.875 59.890625 56.617188 59.890625 45.734375 L 59.890625 30.484375 C 59.890625 13.066406 60.066406 -3.988281 60.421875 -20.6875 C 60.785156 -37.382812 62.785156 -48.269531 66.421875 -53.34375 C 70.046875 -58.425781 73.671875 -62.238281 77.296875 -64.78125 C 80.929688 -67.320312 86.738281 -68.59375 94.71875 -68.59375 C 108.507812 -68.59375 118.128906 -66.957031 123.578125 -63.6875 C 129.023438 -60.425781 138.28125 -56.976562 151.34375 -53.34375 C 153.519531 -53.34375 160.59375 -52.796875 172.5625 -51.703125 C 184.539062 -50.617188 196.703125 -49.710938 209.046875 -48.984375 C 221.390625 -48.265625 228.285156 -47.90625 229.734375 -47.90625 C 249.328125 -47.90625 264.929688 -53.347656 276.546875 -64.234375 C 288.160156 -75.117188 293.96875 -85.28125 293.96875 -94.71875 C 293.96875 -105.613281 288.890625 -111.0625 278.734375 -111.0625 C 275.097656 -111.0625 268.742188 -109.242188 259.671875 -105.609375 C 250.597656 -101.984375 244.25 -99.441406 240.625 -97.984375 C 230.457031 -95.085938 220.472656 -93.640625 210.671875 -93.640625 C 200.878906 -93.640625 194.53125 -93.640625 191.625 -93.640625 C 158.238281 -93.640625 131.378906 -100.171875 111.046875 -113.234375 C 90.722656 -126.296875 75.117188 -142.082031 64.234375 -160.59375 C 53.347656 -179.101562 45.546875 -197.066406 40.828125 -214.484375 C 36.109375 -231.910156 33.023438 -244.976562 31.578125 -253.6875 C 28.671875 -268.207031 26.488281 -280.910156 25.03125 -291.796875 C 23.582031 -302.679688 22.859375 -320.828125 22.859375 -346.234375 C 22.859375 -357.847656 23.945312 -373.085938 26.125 -391.953125 C 28.300781 -410.828125 31.566406 -429.519531 35.921875 -448.03125 C 40.285156 -466.539062 45.003906 -481.601562 50.078125 -493.21875 C 57.335938 -509.1875 65.320312 -522.796875 74.03125 -534.046875 C 82.75 -545.296875 89.644531 -553.460938 94.71875 -558.546875 C 104.15625 -568.703125 116.859375 -579.222656 132.828125 -590.109375 C 148.796875 -601.003906 169.117188 -606.453125 193.796875 -606.453125 L 199.25 -606.453125 C 207.226562 -606.453125 216.296875 -605.539062 226.453125 -603.71875 C 236.617188 -601.90625 245.695312 -598.820312 253.6875 -594.46875 C 260.21875 -591.570312 266.382812 -587.765625 272.1875 -583.046875 C 278 -578.328125 281.628906 -575.96875 283.078125 -575.96875 C 285.984375 -575.96875 287.4375 -578.503906 287.4375 -583.578125 C 287.4375 -588.660156 287.800781 -591.566406 288.53125 -592.296875 C 290.707031 -595.203125 292.335938 -597.5625 293.421875 -599.375 C 294.515625 -601.1875 297.601562 -602.09375 302.6875 -602.09375 C 313.570312 -602.09375 323.367188 -601.726562 332.078125 -601 C 340.785156 -600.28125 350.222656 -599.921875 360.390625 -599.921875 C 372.003906 -599.921875 382.523438 -600.460938 391.953125 -601.546875 C 401.390625 -602.640625 411.914062 -603.1875 423.53125 -603.1875 C 444.582031 -603.1875 456.738281 -600.460938 460 -595.015625 C 463.269531 -589.578125 464.90625 -579.960938 464.90625 -566.171875 C 464.90625 -554.554688 464.539062 -544.390625 463.8125 -535.671875 C 463.09375 -526.960938 462.734375 -516.800781 462.734375 -505.1875 C 462.734375 -489.21875 463.09375 -474.519531 463.8125 -461.09375 C 464.539062 -447.664062 464.90625 -432.609375 464.90625 -415.921875 C 464.90625 -398.492188 464.359375 -380.890625 463.265625 -363.109375 C 462.179688 -345.328125 461.273438 -327.722656 460.546875 -310.296875 C 459.828125 -276.179688 460.375 -245.332031 462.1875 -217.75 C 464 -190.164062 464.90625 -159.316406 464.90625 -125.203125 Z M 287.4375 -327.71875 L 287.4375 -366.921875 C 287.4375 -372.722656 286.53125 -381.429688 284.71875 -393.046875 C 282.90625 -404.660156 279.09375 -415.1875 273.28125 -424.625 C 267.476562 -434.0625 258.40625 -438.414062 246.0625 -437.6875 C 238.082031 -436.238281 231.550781 -433.695312 226.46875 -430.0625 C 218.476562 -424.988281 212.488281 -417.003906 208.5 -406.109375 C 204.507812 -395.222656 201.96875 -384.335938 200.875 -373.453125 C 199.789062 -362.566406 199.25 -354.21875 199.25 -348.40625 C 199.25 -323 202.332031 -301.585938 208.5 -284.171875 C 214.664062 -266.753906 227.550781 -258.046875 247.15625 -258.046875 C 261.664062 -258.046875 272.003906 -264.578125 278.171875 -277.640625 C 284.347656 -290.703125 287.4375 -307.394531 287.4375 -327.71875 Z M 287.4375 -327.71875 "></path></g></g></g></g></g></svg>