<?xml version="1.0" standalone="no"?>
<!DOCTYPE svg PUBLIC "-//W3C//DTD SVG 20010904//EN"
 "http://www.w3.org/TR/2001/REC-SVG-20010904/DTD/svg10.dtd">
<svg version="1.0" xmlns="http://www.w3.org/2000/svg"
 width="512.000000pt" height="512.000000pt" viewBox="0 0 512.000000 512.000000"
 preserveAspectRatio="xMidYMid meet">
<metadata>
Created by potrace 1.14, written by Peter Selinger 2001-2017
</metadata>
<g transform="translate(0.000000,512.000000) scale(0.100000,-0.100000)"
fill="#000000" stroke="none">
<path d="M1338 4905 c-2 -2 -23 -6 -48 -9 -53 -7 -97 -16 -157 -30 -13 -4 -31
-8 -40 -10 -66 -15 -256 -90 -283 -111 -8 -6 -30 -17 -47 -25 -18 -7 -33 -16
-33 -20 0 -4 -8 -10 -17 -14 -25 -8 -48 -23 -133 -89 -75 -59 -200 -174 -200
-184 0 -3 -8 -13 -18 -22 -10 -9 -38 -43 -62 -76 -24 -33 -47 -61 -52 -63 -4
-2 -8 -7 -8 -11 0 -5 -22 -47 -50 -95 -27 -48 -50 -88 -50 -90 0 -2 -8 -21
-17 -42 -9 -22 -17 -41 -18 -44 -1 -3 -7 -18 -14 -35 -7 -16 -14 -37 -16 -45
-2 -8 -10 -34 -19 -58 -9 -24 -15 -46 -15 -50 1 -4 0 -9 -1 -12 -2 -7 -7 -29
-14 -65 -3 -16 -9 -46 -13 -65 -10 -46 -10 -381 0 -445 7 -47 12 -70 35 -170
12 -47 38 -126 59 -175 33 -77 88 -185 95 -188 4 -2 8 -8 8 -13 0 -6 19 -38
41 -71 44 -64 55 -79 104 -136 17 -19 518 -523 1114 -1120 l1084 -1085 49 51
c27 29 51 52 52 52 5 0 126 123 127 129 1 3 36 38 79 76 43 39 78 73 79 76 1
4 192 199 196 199 5 0 125 124 125 129 1 3 19 20 40 36 21 17 39 32 40 35 0 5
271 280 275 280 4 0 125 124 126 129 1 3 39 41 84 84 46 42 81 77 78 77 -3 0
13 15 35 33 23 17 41 34 41 37 1 5 272 280 276 280 1 0 31 29 67 65 35 36 64
65 63 65 -1 0 42 43 94 95 52 52 96 95 96 95 4 0 125 124 125 127 0 2 10 14
23 26 113 110 258 361 311 537 9 30 21 69 26 85 5 17 12 44 15 60 2 17 10 59
17 95 12 69 15 361 4 420 -7 34 -14 76 -20 115 -18 107 -130 402 -158 413 -4
2 -8 8 -8 14 0 15 -87 144 -139 208 -76 91 -221 230 -241 230 -5 0 -10 4 -10
9 0 14 -181 127 -275 170 -83 39 -241 94 -300 104 -16 3 -41 8 -55 12 -120 27
-435 27 -561 -1 -13 -3 -37 -8 -53 -10 -110 -20 -363 -127 -461 -194 -24 -16
-48 -30 -54 -30 -6 0 -11 -4 -11 -8 0 -4 -12 -15 -27 -24 -16 -9 -47 -34 -70
-55 -75 -67 -95 -83 -101 -83 -4 0 -23 15 -43 33 -92 83 -109 97 -109 92 0 -4
-7 1 -16 9 -24 24 -101 76 -113 76 -6 0 -11 5 -11 10 0 6 -4 10 -10 10 -5 0
-31 13 -59 29 -27 16 -52 27 -55 24 -3 -4 -6 0 -6 7 0 7 -3 11 -6 8 -3 -4 -34
7 -69 23 -34 15 -73 30 -86 33 -13 3 -40 10 -59 16 -31 10 -58 17 -135 35 -57
13 -115 17 -267 20 -91 2 -168 2 -170 0z"/>
</g>
</svg>
