<?xml version="1.0" encoding="UTF-8"?><svg id="Ebene_1" xmlns="http://www.w3.org/2000/svg" viewBox="0 0 570.46 242.27"><g><path d="M0,3.01H87.4V22.16H22.16V55.31h57.26v18.08H22.16v56.2H0V3.01Z"/><path d="M102.11,3.01h60.45c13.94,0,24.4,3.01,31.38,9.04,6.97,6.03,10.46,14.42,10.46,25.17,0,6.03-.89,11.02-2.66,14.98-1.77,3.96-3.84,7.15-6.2,9.57-2.37,2.42-4.7,4.17-7,5.23-2.3,1.06-3.99,1.77-5.05,2.13v.35c1.89,.24,3.93,.83,6.12,1.77,2.19,.95,4.22,2.45,6.12,4.52,1.89,2.07,3.46,4.76,4.7,8.07,1.24,3.31,1.86,7.45,1.86,12.41,0,7.45,.56,14.21,1.68,20.3,1.12,6.09,2.86,10.43,5.23,13.03h-23.75c-1.66-2.72-2.63-5.73-2.93-9.04-.3-3.31-.44-6.5-.44-9.57,0-5.79-.35-10.78-1.06-14.98-.71-4.19-2.01-7.68-3.9-10.46-1.89-2.78-4.46-4.81-7.71-6.12-3.25-1.3-7.42-1.95-12.5-1.95h-32.62v52.12h-22.16V3.01Zm22.16,57.61h36.34c7.09,0,12.47-1.68,16.13-5.05,3.66-3.37,5.5-8.42,5.5-15.16,0-4.02-.59-7.3-1.77-9.84-1.18-2.54-2.81-4.52-4.88-5.94-2.07-1.42-4.43-2.36-7.09-2.84-2.66-.47-5.41-.71-8.24-.71h-35.99V60.63Z"/><path d="M265.02,3.01h23.58l48.75,126.57h-23.75l-11.88-33.51h-50.52l-11.88,33.51h-22.87L265.02,3.01Zm-7.8,76.23h38.65l-18.97-54.42h-.53l-19.15,54.42Z"/><path d="M454.17,129.59h-14.18l-3.37-14.89c-5.91,6.74-11.82,11.41-17.73,14-5.91,2.6-12.71,3.9-20.39,3.9-9.46,0-17.94-1.75-25.44-5.23-7.51-3.48-13.86-8.24-19.06-14.27-5.2-6.03-9.19-13.06-11.97-21.1-2.78-8.04-4.17-16.6-4.17-25.71s1.39-17.49,4.17-25.53c2.78-8.04,6.76-15.07,11.97-21.1,5.2-6.03,11.55-10.81,19.06-14.36,7.5-3.55,15.98-5.32,25.44-5.32,6.85,0,13.38,.92,19.59,2.75,6.2,1.83,11.73,4.55,16.58,8.15,4.84,3.61,8.86,8.13,12.05,13.56,3.19,5.44,5.2,11.7,6.03,18.79h-21.63c-.59-4.14-1.86-7.77-3.81-10.9-1.95-3.13-4.4-5.76-7.36-7.89-2.96-2.13-6.27-3.72-9.93-4.79-3.66-1.06-7.51-1.6-11.52-1.6-6.74,0-12.56,1.36-17.46,4.08-4.91,2.72-8.89,6.35-11.97,10.9-3.08,4.55-5.35,9.72-6.83,15.51-1.48,5.79-2.22,11.7-2.22,17.73s.74,11.94,2.22,17.73c1.48,5.79,3.75,10.96,6.83,15.51,3.07,4.55,7.06,8.19,11.97,10.9,4.9,2.72,10.73,4.08,17.46,4.08,5.67,.12,10.69-.62,15.07-2.22,4.37-1.6,8.07-3.9,11.08-6.91s5.29-6.71,6.83-11.08c1.53-4.37,2.36-9.22,2.48-14.54h-33.68v-16.84h53.89v66.66Z"/><path d="M478.1,3.01h91.12V22.16h-68.96V55.31h63.82v18.08h-63.82v37.05h70.2v19.15h-92.36V3.01Z"/></g><g><path d="M32.51,165.49c4.86,0,9.38,.77,13.56,2.31,4.19,1.54,7.81,3.86,10.87,6.94,3.06,3.09,5.45,6.94,7.18,11.57,1.72,4.63,2.59,10.06,2.59,16.3,0,5.47-.7,10.52-2.11,15.15-1.41,4.63-3.54,8.62-6.39,11.99-2.85,3.37-6.4,6.01-10.66,7.94-4.26,1.93-9.27,2.89-15.04,2.89H0v-75.1H32.51Zm-1.16,61.22c2.39,0,4.71-.38,6.97-1.16,2.25-.77,4.26-2.05,6.02-3.84,1.76-1.79,3.17-4.12,4.22-7,1.06-2.87,1.58-6.38,1.58-10.52,0-3.79-.37-7.21-1.11-10.26s-1.95-5.66-3.64-7.84c-1.69-2.17-3.92-3.84-6.7-5-2.78-1.16-6.21-1.74-10.29-1.74h-11.82v47.33h14.78Z"/><path d="M133.41,165.49v13.88h-39.79v16.09h36.52v12.83h-36.52v18.41h40.63v13.88h-57.21v-75.1h56.36Z"/><path d="M157.26,222.07c.91,1.75,2.13,3.17,3.64,4.26,1.51,1.09,3.29,1.89,5.33,2.42,2.04,.53,4.15,.79,6.33,.79,1.48,0,3.06-.12,4.75-.37,1.69-.25,3.27-.72,4.75-1.42,1.48-.7,2.71-1.67,3.69-2.89,.98-1.23,1.48-2.79,1.48-4.68,0-2.03-.65-3.68-1.95-4.94-1.3-1.26-3.01-2.31-5.12-3.16-2.11-.84-4.5-1.58-7.18-2.21-2.68-.63-5.38-1.33-8.13-2.1-2.81-.7-5.56-1.56-8.23-2.58-2.67-1.02-5.07-2.33-7.18-3.94-2.11-1.61-3.82-3.63-5.12-6.05-1.3-2.42-1.95-5.35-1.95-8.78,0-3.86,.83-7.21,2.48-10.05,1.65-2.84,3.82-5.21,6.49-7.1,2.67-1.89,5.7-3.3,9.08-4.21,3.38-.91,6.75-1.37,10.13-1.37,3.94,0,7.72,.44,11.35,1.32,3.62,.88,6.84,2.3,9.66,4.26,2.81,1.96,5.05,4.47,6.7,7.52,1.65,3.05,2.48,6.75,2.48,11.1h-16.04c-.14-2.24-.62-4.1-1.42-5.58-.81-1.47-1.88-2.63-3.22-3.47-1.34-.84-2.87-1.44-4.59-1.79-1.73-.35-3.61-.53-5.65-.53-1.34,0-2.68,.14-4.01,.42-1.34,.28-2.55,.77-3.64,1.47-1.09,.7-1.99,1.58-2.69,2.63-.7,1.05-1.06,2.38-1.06,4,0,1.47,.28,2.67,.84,3.58,.56,.91,1.67,1.75,3.32,2.52,1.65,.77,3.94,1.54,6.86,2.31,2.92,.77,6.74,1.75,11.45,2.95,1.41,.28,3.36,.79,5.86,1.53,2.5,.74,4.98,1.91,7.44,3.52,2.46,1.61,4.59,3.77,6.39,6.47,1.79,2.7,2.69,6.15,2.69,10.36,0,3.44-.67,6.63-2.01,9.57-1.34,2.95-3.32,5.49-5.96,7.63-2.64,2.14-5.91,3.8-9.82,5-3.91,1.19-8.43,1.79-13.56,1.79-4.15,0-8.18-.51-12.08-1.53-3.9-1.02-7.35-2.61-10.34-4.79-2.99-2.17-5.37-4.94-7.12-8.31-1.76-3.37-2.6-7.36-2.53-11.99h16.04c0,2.52,.46,4.66,1.37,6.42Z"/><path d="M234.62,179.37v-13.88h61.74v13.88h-22.59v61.22h-16.57v-61.22h-22.59Z"/><path d="M333.73,165.49l28.18,75.1h-17.2l-5.7-16.72h-28.18l-5.91,16.72h-16.68l28.5-75.1h16.99Zm.95,46.07l-9.5-27.56h-.21l-9.82,27.56h19.53Z"/><path d="M409.3,240.01c-3.59,1.51-7.21,2.26-10.87,2.26-5.77,0-10.96-1-15.57-3-4.61-2-8.5-4.75-11.66-8.26s-5.59-7.63-7.28-12.36c-1.69-4.73-2.53-9.83-2.53-15.3s.84-10.82,2.53-15.62c1.69-4.8,4.12-8.99,7.28-12.57s7.05-6.38,11.66-8.41c4.61-2.03,9.8-3.05,15.57-3.05,3.87,0,7.62,.58,11.24,1.74,3.62,1.16,6.89,2.86,9.82,5.1,2.92,2.25,5.33,5.02,7.23,8.31,1.9,3.3,3.06,7.08,3.48,11.36h-15.83c-.99-4.21-2.89-7.36-5.7-9.47-2.82-2.1-6.23-3.16-10.24-3.16-3.73,0-6.9,.72-9.5,2.16-2.6,1.44-4.71,3.37-6.33,5.79-1.62,2.42-2.8,5.17-3.54,8.26-.74,3.09-1.11,6.28-1.11,9.57s.37,6.22,1.11,9.2c.74,2.98,1.92,5.66,3.54,8.05,1.62,2.38,3.73,4.3,6.33,5.73,2.6,1.44,5.77,2.16,9.5,2.16,5.49,0,9.73-1.38,12.72-4.15,2.99-2.77,4.73-6.78,5.22-12.04h-16.68v-12.31h31.66v40.6h-10.55l-1.69-8.52c-2.96,3.79-6.23,6.43-9.82,7.94Z"/><path d="M500.59,165.49v13.88h-39.79v16.09h36.52v12.83h-36.52v18.41h40.64v13.88h-57.21v-75.1h56.36Z"/><path d="M524.45,222.07c.91,1.75,2.13,3.17,3.64,4.26,1.51,1.09,3.29,1.89,5.33,2.42,2.04,.53,4.15,.79,6.33,.79,1.48,0,3.06-.12,4.75-.37,1.69-.25,3.27-.72,4.75-1.42,1.48-.7,2.71-1.67,3.69-2.89,.98-1.23,1.48-2.79,1.48-4.68,0-2.03-.65-3.68-1.95-4.94-1.3-1.26-3.01-2.31-5.12-3.16s-4.5-1.58-7.18-2.21c-2.67-.63-5.38-1.33-8.13-2.1-2.82-.7-5.56-1.56-8.23-2.58-2.67-1.02-5.07-2.33-7.18-3.94-2.11-1.61-3.82-3.63-5.12-6.05-1.3-2.42-1.95-5.35-1.95-8.78,0-3.86,.83-7.21,2.48-10.05,1.65-2.84,3.82-5.21,6.49-7.1,2.67-1.89,5.7-3.3,9.08-4.21,3.38-.91,6.76-1.37,10.13-1.37,3.94,0,7.72,.44,11.35,1.32,3.62,.88,6.84,2.3,9.66,4.26,2.81,1.96,5.05,4.47,6.7,7.52,1.65,3.05,2.48,6.75,2.48,11.1h-16.04c-.14-2.24-.62-4.1-1.42-5.58-.81-1.47-1.88-2.63-3.22-3.47-1.34-.84-2.87-1.44-4.59-1.79-1.72-.35-3.61-.53-5.65-.53-1.34,0-2.67,.14-4.01,.42-1.34,.28-2.55,.77-3.64,1.47-1.09,.7-1.99,1.58-2.69,2.63-.7,1.05-1.06,2.38-1.06,4,0,1.47,.28,2.67,.84,3.58,.56,.91,1.67,1.75,3.32,2.52,1.65,.77,3.94,1.54,6.86,2.31,2.92,.77,6.74,1.75,11.45,2.95,1.41,.28,3.36,.79,5.86,1.53,2.5,.74,4.98,1.91,7.44,3.52,2.46,1.61,4.59,3.77,6.39,6.47,1.79,2.7,2.69,6.15,2.69,10.36,0,3.44-.67,6.63-2.01,9.57-1.34,2.95-3.32,5.49-5.96,7.63-2.64,2.14-5.91,3.8-9.82,5-3.91,1.19-8.43,1.79-13.56,1.79-4.15,0-8.18-.51-12.08-1.53-3.91-1.02-7.35-2.61-10.34-4.79-2.99-2.17-5.37-4.94-7.12-8.31-1.76-3.37-2.6-7.36-2.53-11.99h16.04c0,2.52,.46,4.66,1.37,6.42Z"/></g></svg>