<svg xmlns="http://www.w3.org/2000/svg" viewBox="28.151 21.829 244.932 71.178">
    <path
        d="m106.276 50.756-7.073 42.251h166.79l7.09-42.251H106.276Zm-23.2 35.953c-3.588 0-6.919-1.978-8.696-5.189-.974-1.752-1.435-3.747-1.367-5.83-2.306-1.058-4.134-2.689-5.552-4.459-.957 4.286-2.921 8.45-5.586 11.296-2.717 2.898-5.928 4.095-9.072 3.349-2.101-.486-3.707-1.892-4.749-4.043-3.571 4.286-6.936 4.824-9.208 4.442-2.478-.399-4.374-1.857-5.467-4.199-1.811-3.818-1.145-9.474.376-14.472-1.623.365-3.503.452-5.604.139l.684-4.754c4.493.659 7.175-1.354 7.756-2.204.051-.104.102-.191.17-.295l4.186 2.256-.256.468c-2.819 5.137-4.698 13.292-3.041 16.832.427.902 1.008 1.353 1.947 1.509 1.23.191 2.597-.451 4.049-1.943 1.128-1.145 2.136-2.586 3.024-4.147-.051-1.336.017-2.777.188-4.303.359-3.193 1.606-10.654 5.501-10.654 1.059 0 1.999.59 2.494 1.596 1.23 2.464-.649 9.058-3.365 14.384.085.868.239 1.649.444 2.326.649 2.099 1.606 2.325 1.93 2.394 1.487.347 3.024-.33 4.579-1.978 3.707-3.956 5.791-11.678 4.612-16.848-.085-.33-.136-.538-.153-.608l4.595-1.18c.051.174.086.347.137.521.427 1.527 2.238 7.114 6.423 9.682.376-.972.855-1.961 1.435-2.932 2.495-4.182 7.176-8.225 12.865-7.01 3.16.676 5.518 2.949 5.859 5.674.342 2.689-.563 5.222-2.528 7.114-2.956 2.845-8.047 4.043-13.855 3.314a6.29 6.29 0 0 0 .7 2.204c.94 1.683 2.7 2.741 4.579 2.741 3.16 0 5.586-1.319 6.594-2.603l3.724 2.968c-2.152 2.741-6.098 4.442-10.352 4.442Zm-4.493-14.506c4.988.607 8.302-.608 9.806-2.048.888-.85 1.247-1.839 1.093-3.019-.068-.573-.888-1.319-2.135-1.579-1.042-.226-4.664-.538-7.825 4.789a15.735 15.735 0 0 0-.939 1.857Z"
        style="stroke-width:1" />
    <path fill="#fff"
        d="M152.01 69.01v5.622c0 2.845-1.042 4.233-3.212 4.233-1.964 0-3.007-1.388-3.007-3.99V63.474h-5.945v13.118c0 4.564 2.887 7.791 7.056 7.791 2.255 0 4.373-.937 5.621-2.481v2.082h5.62v-20.51h-6.133v5.536Zm38.864-6.646v21.603h5.946V56.794h-5.946v5.57Zm18.177-5.57h-5.945v5.588h5.945v-5.588Zm-5.945 12.216v14.957h5.945V67.5h-5.945v1.51Zm-78.296-5.951c-2.443 0-4.288.902-5.62 2.776v-2.36h-8.149l-.974 5.587h3.178v20.926h5.945v-7.947c2.169 1.788 3.536 2.325 5.979 2.325 5.296 0 9.823-4.858 9.823-10.549 0-5.9-4.613-10.758-10.182-10.758Zm-.803 15.599c-2.767 0-5.022-2.204-5.022-4.928 0-2.776 2.255-4.963 5.022-4.963 2.768 0 4.972 2.204 4.972 4.928 0 2.776-2.204 4.963-4.972 4.963Zm131.889-.278v-6.524c0-5.293-2.887-8.798-7.175-8.798-2.409 0-4.22 1.024-5.535 3.141v-9.405h-5.928v27.19h5.928V73.105c0-2.69 1.196-4.112 3.485-4.112 2.323 0 3.297 1.232 3.297 4.32v10.671h7.944l.974-5.587h-2.99v-.017Zm-29.931-14.714c-.974-.625-2.101-1.007-3.519-1.007-4.288 0-7.705 3.054-7.705 6.802 0 2.082.957 3.835 2.648 4.893 1.281.816 1.521.903 5.262 1.961 2.204.659 2.802 1.093 2.802 2.117 0 1.058-.803 1.718-2.05 1.718-1.452 0-2.99-.243-3.246-1.753h-5.04l-.905 5.188h5.552c1.23.747 2.614 1.215 4.237 1.215 4.339 0 7.739-3.089 7.739-6.923 0-.937-.205-1.84-.564-2.655-.837-1.753-2.204-2.724-4.852-3.505l-2.614-.781c-2.118-.607-2.682-1.024-2.682-1.961 0-.85.803-1.475 1.879-1.475 1.247 0 2.682.174 2.836 1.354h5.04l.905-5.188h-5.723Zm-49.372-.608c-2.495 0-4.288.781-5.536 2.395v-8.676h-8.114l-.974 5.587h3.143v21.603h5.945v-2.291c1.641 1.909 3.366 2.69 5.689 2.69 5.296 0 9.789-4.893 9.789-10.602.017-5.9-4.476-10.706-9.942-10.706Zm-.837 15.599c-2.648 0-4.818-2.238-4.818-5.014 0-2.725 2.118-4.894 4.766-4.894s4.818 2.204 4.818 4.963-2.118 4.945-4.766 4.945Z"
        style="stroke-width:1" />
    <path
        d="M31.318 43.829v-17.18h5.566q3.165 0 4.125.258 1.477.387 2.473 1.682.996 1.295.996 3.345 0 1.582-.574 2.661-.574 1.078-1.459 1.693-.885.615-1.799.814-1.242.247-3.597.247h-2.262v6.48Zm3.469-14.273v4.875h1.898q2.051 0 2.742-.27.692-.27 1.084-.844.393-.574.393-1.336 0-.937-.551-1.547-.551-.609-1.394-.761-.621-.117-2.496-.117Zm11.752 7.875q0-1.641.809-3.176.809-1.535 2.291-2.344 1.482-.809 3.311-.809 2.824 0 4.628 1.834 1.805 1.834 1.805 4.635 0 2.824-1.822 4.682-1.822 1.857-4.588 1.857-1.711 0-3.264-.773-1.552-.774-2.361-2.268-.809-1.494-.809-3.638Zm3.375.175q0 1.852.879 2.836.879.985 2.168.985 1.289 0 2.162-.985.873-.984.873-2.859 0-1.828-.873-2.813-.873-.984-2.162-.984t-2.168.984q-.879.985-.879 2.836Zm14.367 6.223-3.937-12.445h3.199l2.332 8.156 2.145-8.156h3.176l2.074 8.156 2.379-8.156h3.246l-3.996 12.445h-3.164l-2.145-8.004-2.109 8.004Zm23.555-3.961 3.281.551q-.633 1.805-1.998 2.748-1.365.943-3.416.943-3.246 0-4.805-2.121-1.23-1.699-1.23-4.289 0-3.094 1.617-4.846 1.617-1.752 4.09-1.752 2.777 0 4.383 1.834 1.605 1.834 1.535 5.62h-8.25q.035 1.464.797 2.279.761.814 1.898.814.774 0 1.301-.422.527-.421.797-1.359Zm.187-3.328q-.035-1.43-.738-2.174t-1.711-.744q-1.078 0-1.781.785-.703.785-.692 2.133Zm9.105 7.289h-3.293V31.384h3.059v1.769q.785-1.254 1.412-1.652.627-.399 1.424-.399 1.125 0 2.168.622l-1.02 2.871q-.832-.539-1.547-.539-.691 0-1.172.38-.48.381-.756 1.377-.275.996-.275 4.172Zm13.396-3.961 3.281.551q-.633 1.805-1.998 2.748-1.365.943-3.416.943-3.246 0-4.805-2.121-1.23-1.699-1.23-4.289 0-3.094 1.617-4.846 1.617-1.752 4.09-1.752 2.777 0 4.383 1.834 1.605 1.834 1.535 5.62h-8.25q.035 1.464.797 2.279.761.814 1.898.814.774 0 1.301-.422.527-.421.797-1.359Zm.187-3.328q-.035-1.43-.738-2.174t-1.711-.744q-1.078 0-1.781.785-.703.785-.692 2.133Zm17.367 7.289h-3.059v-1.828q-.762 1.066-1.799 1.588-1.037.521-2.091.521-2.145 0-3.674-1.728-1.53-1.729-1.53-4.823 0-3.164 1.489-4.81 1.488-1.647 3.761-1.647 2.086 0 3.61 1.735v-6.188h3.293Zm-8.789-6.492q0 1.992.55 2.883.797 1.289 2.227 1.289 1.137 0 1.934-.967.797-.967.797-2.889 0-2.144-.774-3.088-.773-.943-1.98-.943-1.172 0-1.963.932-.791.931-.791 2.783Zm18.561 6.492v-17.18h3.293v6.188q1.524-1.735 3.61-1.735 2.273 0 3.761 1.647 1.489 1.646 1.489 4.728 0 3.188-1.518 4.911-1.518 1.722-3.686 1.722-1.066 0-2.103-.533-1.037-.533-1.787-1.576v1.828Zm3.27-6.492q0 1.933.609 2.859.856 1.313 2.274 1.313 1.089 0 1.857-.932t.768-2.936q0-2.132-.774-3.076-.773-.943-1.98-.943-1.184 0-1.969.92-.785.92-.785 2.795Zm9.972-5.953h3.504l2.977 8.836 2.906-8.836h3.41l-4.394 11.976-.786 2.168q-.433 1.09-.826 1.664-.392.574-.902.932-.51.357-1.254.557-.744.199-1.682.199-.949 0-1.863-.199l-.293-2.579q.774.153 1.395.153 1.148 0 1.699-.674.551-.674.844-1.717Z" />
</svg>