<svg xmlns="http://www.w3.org/2000/svg" viewBox="0 0 85.04 85.04"><defs><linearGradient id="Unbenannter_Verlauf_10" x1="0" x2="85.04" y1="42.52" y2="42.52" data-name="Unbenannter Verlauf 10" gradientUnits="userSpaceOnUse"><stop offset="0" stop-color="#b6e9a8"/><stop offset="1" stop-color="#98d6c0"/></linearGradient><style>.st1{fill:#195a7d}</style></defs><path id="Ebene_2" d="M0 0h85.04v85.04H0z" style="fill:url(#Unbenannter_Verlauf_10)"/><g id="Ebene_1"><path d="M61.29 55.41c4.97.18 8.29-1.07 10.97-4.98l5.29 2.86c-3.89 6.07-9.89 8.07-16.51 7.93-10.64-.21-18.31-8.24-18.24-18.86.08-11.29 8.98-19.22 19.67-18.64 10.68.58 18.14 10.55 16.61 21.68l-29.88-.1c.6 5.18 5.1 10.17 12.09 10.11m11.77-15.53c-1.55-8.52-7.3-10.78-13.49-10.19-5.01.48-9.79 4.45-10.37 10.38l23.85-.19ZM24.3 55.47c4.96.08 8.15-1.28 10.92-5.09l5.24 3.03c-6.41 9.2-18.86 10.21-27.76 3.99-5.24-3.67-7.24-10.24-6.91-16.37.31-5.79 3.26-11.56 8.96-14.76 6.21-3.49 13.91-3.53 19.77.62 5.45 3.86 8.44 10.91 7.22 18.51l-29.57-.07c.54 5.41 5.21 10.02 12.12 10.14ZM35.92 39.9c-1.47-8.51-7.24-10.74-13.45-10.23-4.99.42-9.67 4.59-10.39 10.39z" class="st1"/></g></svg>