<svg xmlns="http://www.w3.org/2000/svg" version="1.1" xmlns:xlink="http://www.w3.org/1999/xlink" xmlns:svgjs="http://svgjs.dev/svgjs" width="1000" height="1000"><g clip-path="url(#SvgjsClipPath1119)"><rect width="1000" height="1000" fill="#ffffff"></rect><g transform="matrix(8.108108108108109,0,0,8.108108108108109,272.97297297297297,49.99999999999994)"><svg xmlns="http://www.w3.org/2000/svg" version="1.1" xmlns:xlink="http://www.w3.org/1999/xlink" xmlns:svgjs="http://svgjs.dev/svgjs" width="56" height="111"><svg width="56" height="111" viewBox="0 0 56 111" fill="none" xmlns="http://www.w3.org/2000/svg">
<path d="M55.6 32V108.3H38.8V96.2H38.5C37.1 100.3 34.8 103.8 31.5 106.6C28.3 109.4 24.2 110.9 19.5 110.9C14.8 110.9 11.9 110 9.39999 108.3C6.89999 106.6 4.9 104.2 3.5 101.3C2.1 98.4 1.2 95.1 0.699997 91.3C0.199997 87.6 0 83.7 0 79.9V32H16.9V79.9C16.9 81.9 16.9 83.8 17.2 85.7C17.4 87.6 17.8 89.3 18.5 90.9C19.1 92.4 20.1 93.7 21.3 94.6C22.5 95.5 24.2 96 26.2 96C30 96 33 94.1 35.3 90.4C37.5 86.7 38.7 81.9 38.7 76.1V32H55.6Z" fill="#010101"></path>
<path d="M42.4 20.8C47.5915 20.8 51.8 16.1438 51.8 10.4C51.8 4.65624 47.5915 0 42.4 0C37.2085 0 33 4.65624 33 10.4C33 16.1438 37.2085 20.8 42.4 20.8Z" fill="#231F20"></path>
<path d="M12.4 20.8C17.5915 20.8 21.8 16.1438 21.8 10.4C21.8 4.65624 17.5915 0 12.4 0C7.20852 0 3 4.65624 3 10.4C3 16.1438 7.20852 20.8 12.4 20.8Z" fill="#231F20"></path>
</svg></svg></g></g><defs><clipPath id="SvgjsClipPath1119"><rect width="1000" height="1000" x="0" y="0" rx="150" ry="150"></rect></clipPath></defs></svg>