<svg xmlns="http://www.w3.org/2000/svg" version="1.1" xmlns:xlink="http://www.w3.org/1999/xlink" xmlns:svgjs="http://svgjs.dev/svgjs" width="250" height="250"><svg id="SvgjsSvg1037" viewBox="0 0 250 250" version="1.1" sodipodi:docname="WNTI-Logo-Tight-Offblack.svg" width="250" height="250" inkscape:version="1.4 (e7c3feb100, 2024-10-09)" xmlns:inkscape="http://www.inkscape.org/namespaces/inkscape" xmlns:sodipodi="http://sodipodi.sourceforge.net/DTD/sodipodi-0.dtd" xmlns="http://www.w3.org/2000/svg" xmlns:svg="http://www.w3.org/2000/svg">
  <sodipodi:namedview id="SvgjsSodipodi:namedview1036" pagecolor="#ffffff" bordercolor="#000000" borderopacity="0.25" inkscape:showpageshadow="2" inkscape:pageopacity="0.0" inkscape:pagecheckerboard="0" inkscape:deskcolor="#d1d1d1" inkscape:zoom="0.5" inkscape:cx="118" inkscape:cy="30" inkscape:window-width="1439" inkscape:window-height="933" inkscape:window-x="0" inkscape:window-y="0" inkscape:window-maximized="1" inkscape:current-layer="Content"></sodipodi:namedview>
  <defs id="SvgjsDefs1035">
    <style id="SvgjsStyle1034">
      .cls-1 {
        fill: #232524;
      }
    </style>
  </defs>
  <path class="cls-1" d="m 88.455,97.46 -16.65,57.12 h -15.58 l -8.16,-27.66 -8.16,27.66 H 24.325 L 7.595,97.46 h 16.07 l 8.73,37.04 8.57,-37.04 h 14.2 l 8.49,37.04 8.72,-37.04 h 16.07 z m 62.23,57.12 h -14.77 l -19.34,-30.11 v 30.11 h -15.1 V 97.46 h 14.77 l 19.34,31.82 V 97.46 h 15.1 z m 14.66,-57.12 h 26.93 c 3.86,0 7.26,-0.14 10.2,-0.41 2.94,-0.27 5.74,-0.82 8.4,-1.63 l 3.43,13.14 c -2.72,0.87 -5.39,1.47 -8,1.8 -2.56,0.33 -5.77,0.49 -9.63,0.49 v 43.73 h -15.1 v -43.74 h -16.24 V 97.46 Z m 77.06,57.12 h -15.01 V 97.46 h 15.01 z" id="SvgjsPath1033"></path>
</svg><style>@media (prefers-color-scheme: light) { :root { filter: none; } }
@media (prefers-color-scheme: dark) { :root { filter: none; } }
</style></svg>