<svg xmlns="http://www.w3.org/2000/svg" viewBox="0 0 300 130">
  <defs />
  <rect
    width="221.4"
    height="92.25"
    x="39.8"
    y="20.38"
    fill="#fde0db"
    stroke="#010101"
    stroke-miterlimit="10"
    stroke-width=".73"
    rx="5"
    ry="5"
  />
  <circle
    cx="242.79"
    cy="36.84"
    r="9.27"
    fill="none"
    stroke="#ee2a24"
    stroke-miterlimit="10"
    stroke-width="2.94"
    opacity=".5"
  />
  <path d="M181 80.93h68.82M181 87.57h68.82M181 94.35h68.82" class="c" />
  <path d="M256.38 98.69v4.95h-10.51" class="d" />
  <path d="M45.38 94.65h57.73M45.38 101.03h57.73" class="e" />
  <path
    d="M45.38 76.04h4.43v5.63h-4.43zM50.91 76.04h4.43v5.63h-4.43zM56.61 76.04h4.43v5.62h-4.43zM62.16 75.97h4.43v5.63h-4.43zM67.69 75.97h4.43v5.63h-4.43zM73.39 75.97h4.43v5.62h-4.43zM78.89 75.97h4.43v5.63h-4.43zM84.59 75.97h4.43v5.62h-4.43zM108.82 76.01h4.43v5.63h-4.43zM114.36 76.01h4.43v5.63h-4.43zM120.06 76.01h4.43v5.62h-4.43zM125.6 75.94h4.43v5.63h-4.43zM131.14 75.94h4.43v5.63h-4.43zM136.83 75.94h4.43v5.62h-4.43zM142.34 75.94h4.43v5.63h-4.43zM148.03 75.94h4.43v5.62h-4.43zM93.49 76.08h4.43v5.63h-4.43zM99.18 76.08h4.43v5.62h-4.43zM157.01 76.08h4.43v5.63h-4.43zM162.7 76.08h4.43v5.62h-4.43zM45.38 65.89h4.43v5.63h-4.43zM50.91 65.89h4.43v5.63h-4.43zM56.61 65.89h4.43v5.62h-4.43zM62.16 65.82h4.43v5.63h-4.43zM67.69 65.82h4.43v5.63h-4.43zM73.39 65.83h4.43v5.62h-4.43zM78.89 65.82h4.43v5.63h-4.43zM84.59 65.83h4.43v5.62h-4.43zM108.82 65.86h4.43v5.63h-4.43zM114.36 65.86h4.43v5.63h-4.43zM120.06 65.86h4.43v5.62h-4.43zM125.6 65.79h4.43v5.63h-4.43zM131.14 65.79h4.43v5.63h-4.43zM136.83 65.79h4.43v5.62h-4.43zM142.34 65.79h4.43v5.63h-4.43zM148.03 65.79h4.43v5.62h-4.43zM93.49 65.93h4.43v5.63h-4.43zM99.18 65.93h4.43v5.62h-4.43zM157.01 65.93h4.43v5.63h-4.43zM162.7 65.93h4.43v5.62h-4.43z"
    class="f"
  />
  <path d="M108.72 97.54v4.94h10.51" class="d" />
  <rect width="41.51" height="1.84" x="108.53" y="27.29" class="f" rx=".92" ry=".92" />
  <rect width="41.51" height="1.84" x="43.95" y="27.29" class="f" rx=".92" ry=".92" />
  <rect width="41.51" height="1.84" x="108.53" y="48.51" class="f" rx=".92" ry=".92" />
  <rect width="41.51" height="1.84" x="43.95" y="48.51" class="f" rx=".92" ry=".92" />
  <path
    fill="none"
    stroke="#010101"
    stroke-miterlimit="10"
    stroke-width=".72"
    d="M40.72 36.06h182.04"
  />
  <path
    fill="none"
    stroke="#010101"
    stroke-miterlimit="10"
    stroke-width=".76"
    d="M261.2 53.89h-38.75V20.38"
  />
  <path
    fill="#fde0db"
    stroke="#010101"
    stroke-miterlimit="10"
    stroke-width=".71"
    d="M174.02 35.92v76.24"
  />
</svg>
