<svg xmlns="http://www.w3.org/2000/svg" viewBox="0 0 120 80">
  <g fill="none" fill-rule="evenodd">
    <rect width="120" height="80" fill="#FFF" rx="4" />
    <path
      fill="#009CDE"
      d="M75.3592403 35.7609888c-.3755863 2.4643171-2.2588328 2.4643171-4.080958 2.4643171h-1.0364056l.7272556-4.6011209c.043405-.2779438.2834613-.4824184.5651511-.4824184h.4756836c1.2401435 0 2.4111933 0 3.0153204.7054816.3614132.4222268.4703687 1.0489281.3339529 1.9137406m-.792806-6.429885h-6.8703951c-.4703687 0-.869872.3416762-.9433948.805506l-2.7779215 17.6042885c-.0549206.3469872.2143677.661223.5651511.661223h3.5255508c.3286381 0 .6085562-.2389963.6599335-.562969l.788377-4.9914814c.072637-.4638298.4730262-.805506.9425091-.805506h2.1737944c4.5256379 0 7.1379116-2.1881437 7.8199906-6.5263686.3073784-1.8960371.0124014-3.3866657-.8760728-4.4302828-.977056-1.1471821-2.7088278-1.7544097-5.0075223-1.7544097"
    />
    <path
      fill="#003087"
      d="M26.3561213 35.7609888c-.3755864 2.4643171-2.2588329 2.4643171-4.080958 2.4643171h-1.0364056l.7272555-4.6011209c.0434051-.2779438.2834614-.4824184.5651512-.4824184h.4756836c1.2401435 0 2.4111933 0 3.0153203.7054816.3614133.4222268.4703687 1.0489281.333953 1.9137406m-.7928061-6.429885h-6.870395c-.4703687 0-.8698721.3416762-.9433949.805506l-2.7779214 17.6042885c-.0549207.3469872.2134818.661223.5651511.661223h3.2810654c.4694829 0 .8689862-.3416761.942509-.8046208l.7502869-4.7498296c.0726369-.4638298.4730261-.805506.942509-.805506h2.1737944c4.525638 0 7.1379117-2.1881437 7.8199906-6.5263686.3073785-1.8960371.0124015-3.3866657-.8760728-4.4302828-.9770559-1.1471821-2.7088277-1.7544097-5.0075223-1.7544097M41.5135981 42.0809367c-.3180083 1.8783336-1.8097237 3.1397029-3.713344 3.1397029-.9540247 0-1.7184846-.3071545-2.2092271-.8878269-.4863134-.5753614-.6696775-1.3959153-.5155453-2.308527.2958628-1.8624006 1.8123811-3.1636025 3.6867694-3.1636025.9345367 0 1.6927959.3098099 2.1932824.8957934.5040298.5904093.7024527 1.415389.5580646 2.3244601m4.5849877-6.398904h-3.2899236c-.2816897 0-.5217461.2044746-.5660369.4833036l-.1443881.9188079-.2294266-.3328245c-.7130825-1.032995-2.301352-1.379097-3.8869641-1.379097-3.6345062 0-6.7392941 2.752883-7.3434211 6.6131154-.314465 1.926133.1319867 3.7664043 1.2250846 5.050788 1.0036304 1.1799334 2.4359961 1.6712035 4.1429651 1.6712035 2.9302819 0 4.5548699-1.880104 4.5548699-1.880104l-.1470456.9134969c-.0549206.3469872.2134819.661223.566037.661223h2.9621713c.4703687 0 .8698721-.340791.9433949-.8046208l1.7787201-11.254069c.0549206-.3469871-.2143677-.661223-.5660369-.661223"
    />
    <path
      fill="#009CDE"
      d="M90.5168057 42.0809367c-.3180082 1.8783336-1.8097237 3.1397029-3.713344 3.1397029-.9540247 0-1.7184846-.3071545-2.2092271-.8878269-.4871992-.5753614-.6696775-1.3959153-.5155453-2.308527.2958628-1.8624006 1.8123811-3.1636025 3.6867694-3.1636025.9345368 0 1.6927959.3098099 2.1932824.8957934.5040298.5904093.7024527 1.415389.5580646 2.3244601m4.5849877-6.398904h-3.2899236c-.2816897 0-.5217461.2044746-.5660369.4833036l-.1443881.9188079-.2303124-.3328245c-.7121967-1.032995-2.3004662-1.379097-3.8860783-1.379097-3.6345062 0-6.7392941 2.752883-7.3434211 6.6131154-.314465 1.926133.1319867 3.7664043 1.2250846 5.050788 1.0036304 1.1799334 2.4359962 1.6712035 4.1429651 1.6712035 2.9302819 0 4.5548699-1.880104 4.5548699-1.880104l-.1470455.9134969c-.0549207.3469872.2134818.661223.5660369.661223h2.9621713c.4703687 0 .8698721-.340791.9433949-.8046208l1.7787201-11.254069c.0549207-.3469871-.2143676-.661223-.5660369-.661223"
    />
    <path
      fill="#003087"
      d="M63.6206619 35.682121h-3.306754c-.3162366 0-.6120994.1566753-.7892628.418686l-4.5619565 6.7131398-1.9328522-6.451129c-.1213569-.4036382-.4933999-.6806968-.9150487-.6806968h-3.2500618c-.3924169 0-.6687917.3859347-.5421199.7568215l3.640707 10.6804779-3.4245677 4.8286099c-.2684025.3788534.0026574.9028748.4677113.9028748h3.3032108c.3126933 0 .6058986-.1531346.7848336-.4098343l10.9965297-15.8605009c.2630875-.3797385-.0079724-.8984489-.4703688-.8984489"
    />
    <path
      fill="#009CDE"
      d="M98.9793678 29.8148508 96.159813 47.7413417c-.0549207.3469872.2134818.661223.5651511.661223h2.8363853c.4694826 0 .8698726-.3416761.9425086-.8055059l2.780579-17.6042885c.054921-.3469872-.213481-.6612231-.566037-.6612231h-3.1729953c-.2825755 0-.5226319.2044746-.5660369.4833036"
    />
  </g>
</svg>
