<svg xmlns="http://www.w3.org/2000/svg" viewBox="0 0 120 80">
  <g fill="none" fill-rule="evenodd">
    <rect width="120" height="80" fill="#FCD202" rx="4" />
    <path
      fill="#FFDB28"
      d="M93.9992748 0c-2.2087385 0-4.4172647 1.73684638-5.0006914 3.86403989C88.9985834 3.86403989 79 53 27 80h89.002512C118.210264 80 120 78.2169203 120 76.0054168V3.99458325C120 1.78843584 118.213205 0 116.000725 0H93.9992748Z"
    />
    <rect width="23" height="21" x="9" y="29" fill="#D9B23D" rx="4" />
    <path
      fill="#FFF"
      d="m60.0361293 21.77077212.6332193-3.03531622H8.99371996l-.63378585 3.03531622H60.0361293"
    />
    <path
      fill="#ED1C24"
      d="M66.2602437 14.59854371s.6929241-3.21573531.7025117-3.24591181h-4.4033365c0 .0203383-.9103889 4.26750004-.9103889 4.28766181h1.1282896c.0095876 0 .6924883-3.20576471.6924883-3.20576471h2.1371696s-.6728772 3.21560294-.6924883 3.23594118h3.2554358l-.4253421 1.98322058h-3.2362605c0 .02016177-.6528304 3.02532353-.6528304 3.02532353h-2.4439737c0 .00983824-.2179007 1.0817603-.2274883 1.09175736h3.601462c0-.00999706.6436786-3.03531618.6436786-3.03531618h3.2358247c0-.01001471.85112-4.11710294.85112-4.13691176h-3.2558716"
    />
    <path
      fill="#231F20"
      d="M58.2920525 15.55033824c.465 0 .7818275.32038235.7818275.85133823 0 .08995588-.0100234.17011765-.019611.26025h-2.0090441c.2078773-.67089706.6528304-1.11158823 1.2468276-1.11158823Zm.9992924 3.98695588.2575586-1.19219118c-.4353655.14995588-.8611434.27004412-1.4050235.27004412-.6336551 0-1.1875585-.22005882-1.217193-.99158824h3.2654592c.118538-.39088235.1878304-.78119117.1878304-1.14172058 0-1.10210295-.6332193-2.00391177-1.9889972-2.00391177-1.7615089 0-2.8300937 1.46311765-2.8300937 3.07583824 0 1.38211764.9103889 2.19379411 2.3254358 2.19379411.5739503 0 1.0289269-.09048529 1.4050234-.2102647Zm-5.3729944-1.01210294c-.6432427 0-1.0786082-.28036765-1.0786082-1.0917353 0-.95161764.5935614-1.74317647 1.5340206-1.74317647.2967807 0 .6332193.09013235.9696579.22058824l.2375117-1.14202941c-.3861199-.14011765-.8415323-.24044118-1.2965089-.24044118-1.5536317 0-2.8797751 1.17189706-2.8797751 2.97538235 0 1.48239706.9008014 2.18329412 2.1968745 2.18329412.4353655 0 .8014386-.07994118 1.0690206-.18992647l.2571228-1.17238235c-.2967807.11029411-.6236317.20042647-1.0093159.20042647Zm-6.8376354 1.07192647.5442287-2.53451471c.217552-1.02163235.7126223-1.37232353 1.2270421-1.37232353.6630717 0 .7422568.50117647.6133904 1.07192647l-.5937793 2.83491177h1.4152212l.6231959-2.90505883c.3068041-1.45244117-.3560497-2.21413235-1.3949565-2.21413235-.5742118 0-1.1281152.23055882-1.6032694.74152941l.1285178-.59073529h-1.3159021l-1.0588664 4.96839706h1.4151776Zm-5.0861064-1.43245589c0-.50060294.4352784-.78154411 1.1574011-.78154411.1389335 0 .4451711.01036764.7226458.05033823L43.8150815 17.714c-.1685243.59060294-.6429812.99180882-1.2067774.99180882-.4060361 0-.6136954-.20042647-.6136954-.54114706Zm1.365627-3.65660294c-.6532226 0-1.3162507.1504853-1.5338463.22058824l-.2374681 1.15208823c.3161302-.08995588.9397183-.26060294 1.4941448-.26060294.7419081 0 1.0091851.23042647 1.0091851.62126471 0 .06983823 0 .15030882-.0196111.23007353l-.0200468.10032353c-.3561369-.03997059-.6923576-.06979412-.8512072-.06979412-1.4047619 0-2.5325721.55058824-2.5325721 1.85311765 0 .85129411.6528303 1.36230882 1.5036888 1.36230882.6038027 0 1.1184405-.24044118 1.4546612-.64111765l-.1089503.52080883h1.2566766l.6136955-2.84470589c.0493762-.21079411.0689437-.43085294.0689437-.64111764 0-.85182353-.4647385-1.6032353-2.0972938-1.6032353Zm-6.8575951 5.08905883.5440979-2.53451471c.2179007-1.02163235.7122301-1.37232353 1.2273908-1.37232353.6630717 0 .7420389.50117647.6136954 1.07192647l-.5941279 2.83491177h1.4150033l.6230651-2.90505883c.3069349-1.45244117-.3557882-2.21413235-1.3945642-2.21413235-.5747347 0-1.1288561.23055882-1.6036181.74152941l.1285178-.59073529h-1.315902l-1.0588665 4.96839706h1.4153084Zm-2.5330951-6.34102941c-.0301139.45061764.2967371.80135294.7320154.80135294.484829 0 .8312474-.3507353.8605333-.80135294.0299831-.45066177-.2965192-.80139706-.7320155-.80139706-.4846546 0-.8310731.35073529-.8605332.80139706Zm-.1982896 1.37263235-1.0586922 4.96839706h1.4052849l1.0588665-4.96839706h-1.4054592Zm-3.9979977 4.96839706.5541214-2.59451471h2.1378233l.2575586-1.27217647h-2.1279307l.326851-1.59286765h2.2462507l.2769518-1.27235294h-3.7105867l-1.4052849 6.73191177h1.4442455Zm-1.3950436-3.87666177.2277498-1.09173529h-1.5137123l.2965192-1.38247059-1.4745773.33035294-.9202816 4.24720588c-.2568613 1.20251471.3957947 1.86326471 1.583179 1.86326471.2478838 0 .6630717-.04980882.9603317-.14977941l.2374682-1.09222059c-.2374682.06030882-.5347282.12026471-.7915895.12026471-.4062104 0-.6930548-.14011765-.5937793-.64125l.4652179-2.20363236h1.5234742Zm-5.363276 2.41407353c0 .4009853-.4846546.47082353-.8903421.47082353-.5147685 0-1.0884573-.13994118-1.3948692-.24044118l-.2379911 1.12191177c.4454761.11029412 1.0094901.20025 1.5436954.20025 1.2663514 0 2.295932-.48066177 2.295932-1.68269118 0-1.55272059-1.8405632-1.28214706-1.8405632-1.97320588 0-.31072059.2968678-.42101471.7616063-.42101471.4451711 0 1.0692821.18061765 1.2767672.24039706l.2374681-1.13170588c-.4253857-.12030882-.9301308-.19045588-1.3855431-.19045588-1.3751275 0-2.2062442.6212647-2.2062442 1.65304412 0 1.51222058 1.8400839 1.26202941 1.8400839 1.95308823Zm-5.3235745 1.61302941c1.5537188 0 2.6025619-1.14220588 2.84003-2.63466176.2475351-1.49276471-.5736889-2.63497059-2.127582-2.63497059-1.55341379 0-2.60238755 1.14220588-2.83989926 2.63497059-.24731724 1.49245588.57403749 2.63466176 2.12745126 2.63466176Zm.12904077-1.15204411c-.56431912 0-1.00949016-.45083824-.80200515-1.48261765.2077029-1.0317353.70272961-1.48239706 1.26674368-1.48239706.5641448 0 1.0094902.46045588.7915895 1.48239706-.2078772 1.02163235-.6925319 1.48261765-1.25632803 1.48261765Zm-5.96725304-1.05211765h.6235881c1.98899718 0 3.09741424-.99141177 3.09741424-2.64445588 0-1.23220589-.86157919-2.0337353-2.33580787-2.0337353H11.398306l-1.40531106 6.73191177h1.42487854l.43527835-2.05372059Zm.24736082-1.23216177.46508716-2.21364705h.59377929c.65317901 0 .9694836.27057352.9694836.90163235 0 .81136765-.50439644 1.3120147-1.43422212 1.3120147h-.59412793Z"
    />
  </g>
</svg>
