<svg xmlns="http://www.w3.org/2000/svg" viewBox="0 0 153 58">
  <radialGradient
    id="a"
    cx="22.357%"
    cy="8.811%"
    r="113.202%"
    gradientTransform="matrix(1 0 0 .91756 0 .007)"
  >
    <stop offset="0" stop-color="#fc0" />
    <stop offset=".09157" stop-color="#ffc800" />
    <stop offset=".1739" stop-color="#ffbd00" />
    <stop offset=".2528" stop-color="#ffab00" />
    <stop offset=".3295" stop-color="#ff9100" />
    <stop offset=".4046" stop-color="#ff7000" />
    <stop offset=".4786" stop-color="#ff4700" />
    <stop offset=".5503" stop-color="#ff1800" />
    <stop offset=".5822" stop-color="red" />
    <stop offset="1" stop-color="red" />
  </radialGradient>
  <radialGradient
    id="b"
    cx="2.552%"
    cy="14.432%"
    r="139.457%"
    gradientTransform="matrix(1 0 0 .68117 0 .046)"
  >
    <stop offset="0" stop-color="#00b4e6" />
    <stop offset=".201" stop-color="#00b0e3" />
    <stop offset=".3898" stop-color="#01a5db" />
    <stop offset=".5737" stop-color="#0292cd" />
    <stop offset=".7546" stop-color="#0377ba" />
    <stop offset=".9316" stop-color="#0455a1" />
    <stop offset="1" stop-color="#054696" />
  </radialGradient>
  <g fill="none">
    <path
      fill="#000"
      d="M150.90357 58H2.12275322C.94046029 58 0 57.0593142 0 55.8767377V2.12326228C0 .94068582.94046029 0 2.12275322 0H150.8767C152.058993 0 153 .94068582 153 2.12326228V55.8767377C153.026324 57.0593142 152.058993 58 150.90357 58z"
    />
    <path
      fill="#fff"
      d="M48 39.3882699c0 .5589601-.4019746 1.2510059-.8843441 1.5171773l-17.2313118 9.8749613c-.4823695.2927887-1.2863187.2927887-1.7686882 0l-17.2313118-9.8749613C10.4019746 40.6126586 10 39.94723 10 39.3882699V19.6117301c0-.5589601.4019746-1.2510059.8843441-1.5171773l17.2313118-9.87496134c.4823695-.29278861 1.2863187-.29278861 1.7686882 0l17.2313118 9.87496134C47.5980254 18.3873414 48 19.05277 48 19.6117301z"
    />
    <g fill="#fff">
      <path
        d="M142.839 20.684h-15.48v3.605h5.536v15.474h4.381V24.289h5.563zM72.534 20.684h-15.48v3.605h5.563v15.474h4.381V24.289h5.536zM117.334375 20.07894737c-4.864375 0-7.57875 3.05263158-7.57875 7.44736842V39.7631579h4.326875V27.42105263c0-1.92105263 1.155625-3.39473684 3.305625-3.39473684 2.123125 0 3.27875 1.7368421 3.27875 3.39473684V39.7631579h4.326875V27.52631579c0-4.39473684-2.795-7.44736842-7.659375-7.44736842zM100.968 20.684v19.079h4.353V20.684zM86.294 28.263l.161.842 4.058 10.658h1.774l5.536-19.079H93.55l-2.661 10.027-.134 1.078-.215-1.078-3.548-10.027h-1.397l-3.521 10.027-.215 1.078-.161-1.078-2.634-10.027h-4.273l5.537 19.079h1.773l4.058-10.658z"
      />
    </g>
    <path
      fill="url(#a)"
      d="m23.0029412 9.12820513-4.4205883 6.30769227-2.2764705-3.3846153 2.6205882-3.79487184c.4764706-.66666667 1.5352941-2.53846154.317647-5.07692308-.9794117-2.05128205-3.0970588-3.05128205-4.95-3.05128205-1.8529411 0-3.8911764.92307692-4.94999995 3.05128205-1.21764706 2.43589744-.15882353 4.35897436.29117647 5 0 0 1.45588238 2.07692312 2.67352938 3.82051282l1.9852941 2.7692308 2.9647059 4.3846154c.0264706.025641.5029412.7179487 1.3235294.7179487.7941177 0 1.2705883-.6923077 1.35-.7692308l6.9617647-9.97435897zm-8.7088236.15384615s-1.1647058-1.71794872-1.9058823-2.8974359c-.8205882-1.28205128.1058823-3.17948717 1.9058823-3.17948717 1.8264706 0 2.7264706 1.89743589 1.9058824 3.17948717-.7411765 1.20512821-1.9058824 2.8974359-1.9058824 2.8974359z"
      transform="translate(14 20)"
    />
    <path
      fill="url(#b)"
      d="M10.0058824 15.2307692 5.63823529 9.30769231s-1.16470588-1.71794872-1.90588235-2.8974359c-.82058823-1.28205128.10588235-3.17948718 1.90588235-3.17948718.2382353 0 .45.02564103.63529412.07692308L7.80882353.58974359C7.09411765.30769231 6.35294118.15384615 5.63823529.15384615c-1.85294117 0-3.89117647.92307693-4.95 3.05128206-1.21764706 2.43589743-.15882352 4.35897435.29117648 5L8.60294118 19.1538462c.05294117.1025641.55588235.7948717 1.35.7948717.82058822 0 1.27058822-.6666666 1.35000002-.7692307l2.3029412-3.3846154-1.9852942-2.8205128z"
      transform="translate(14 20)"
    />
  </g>
</svg>
