<svg xmlns="http://www.w3.org/2000/svg" width="300" height="130" viewBox="0 0 300 130"><defs><style>.a,.i{fill:#fde0db;}.a,.d,.g,.h,.i{stroke:#010101;}.a,.b,.c,.d,.e,.g,.h,.i{stroke-miterlimit:10;}.a,.d{stroke-width:0.73px;}.b,.d,.g,.h{fill:none;}.b,.c,.e{stroke:#ee2a24;}.b{stroke-width:2.94px;}.b,.c,.e,.f{opacity:0.5;}.c,.e,.f{fill:#ee2a24;}.c,.e{stroke-linecap:round;}.c{stroke-width:2.12px;}.e{stroke-width:1.47px;}.g{stroke-width:0.72px;}.h{stroke-width:0.76px;}.i{stroke-width:0.71px;}</style></defs><title>invoice-logo</title><rect class="a" x="39.8" y="20.38" width="221.4" height="92.25" rx="5" ry="5"/><circle class="b" cx="242.79" cy="36.84" r="9.27"/><line class="c" x1="181" y1="80.93" x2="249.82" y2="80.93"/><line class="c" x1="181" y1="87.57" x2="249.82" y2="87.57"/><line class="c" x1="181" y1="94.35" x2="249.82" y2="94.35"/><polyline class="d" points="256.38 98.69 256.38 103.64 245.87 103.64"/><line class="e" x1="45.38" y1="94.65" x2="103.11" y2="94.65"/><line class="e" x1="45.38" y1="101.03" x2="103.11" y2="101.03"/><rect class="f" x="45.38" y="76.04" width="4.43" height="5.63"/><rect class="f" x="50.91" y="76.04" width="4.43" height="5.63"/><rect class="f" x="56.61" y="76.04" width="4.43" height="5.62"/><rect class="f" x="62.16" y="75.97" width="4.43" height="5.63"/><rect class="f" x="67.69" y="75.97" width="4.43" height="5.63"/><rect class="f" x="73.39" y="75.97" width="4.43" height="5.62"/><rect class="f" x="78.89" y="75.97" width="4.43" height="5.63"/><rect class="f" x="84.59" y="75.97" width="4.43" height="5.62"/><rect class="f" x="108.82" y="76.01" width="4.43" height="5.63"/><rect class="f" x="114.36" y="76.01" width="4.43" height="5.63"/><rect class="f" x="120.06" y="76.01" width="4.43" height="5.62"/><rect class="f" x="125.6" y="75.94" width="4.43" height="5.63"/><rect class="f" x="131.14" y="75.94" width="4.43" height="5.63"/><rect class="f" x="136.83" y="75.94" width="4.43" height="5.62"/><rect class="f" x="142.34" y="75.94" width="4.43" height="5.63"/><rect class="f" x="148.03" y="75.94" width="4.43" height="5.62"/><rect class="f" x="93.49" y="76.08" width="4.43" height="5.63"/><rect class="f" x="99.18" y="76.08" width="4.43" height="5.62"/><rect class="f" x="157.01" y="76.08" width="4.43" height="5.63"/><rect class="f" x="162.7" y="76.08" width="4.43" height="5.62"/><rect class="f" x="45.38" y="65.89" width="4.43" height="5.63"/><rect class="f" x="50.91" y="65.89" width="4.43" height="5.63"/><rect class="f" x="56.61" y="65.89" width="4.43" height="5.62"/><rect class="f" x="62.16" y="65.82" width="4.43" height="5.63"/><rect class="f" x="67.69" y="65.82" width="4.43" height="5.63"/><rect class="f" x="73.39" y="65.83" width="4.43" height="5.62"/><rect class="f" x="78.89" y="65.82" width="4.43" height="5.63"/><rect class="f" x="84.59" y="65.83" width="4.43" height="5.62"/><rect class="f" x="108.82" y="65.86" width="4.43" height="5.63"/><rect class="f" x="114.36" y="65.86" width="4.43" height="5.63"/><rect class="f" x="120.06" y="65.86" width="4.43" height="5.62"/><rect class="f" x="125.6" y="65.79" width="4.43" height="5.63"/><rect class="f" x="131.14" y="65.79" width="4.43" height="5.63"/><rect class="f" x="136.83" y="65.79" width="4.43" height="5.62"/><rect class="f" x="142.34" y="65.79" width="4.43" height="5.63"/><rect class="f" x="148.03" y="65.79" width="4.43" height="5.62"/><rect class="f" x="93.49" y="65.93" width="4.43" height="5.63"/><rect class="f" x="99.18" y="65.93" width="4.43" height="5.62"/><rect class="f" x="157.01" y="65.93" width="4.43" height="5.63"/><rect class="f" x="162.7" y="65.93" width="4.43" height="5.62"/><polyline class="d" points="108.72 97.54 108.72 102.48 119.23 102.48"/><rect class="f" x="108.53" y="27.29" width="41.51" height="1.84" rx="0.92" ry="0.92"/><rect class="f" x="43.95" y="27.29" width="41.51" height="1.84" rx="0.92" ry="0.92"/><rect class="f" x="108.53" y="48.51" width="41.51" height="1.84" rx="0.92" ry="0.92"/><rect class="f" x="43.95" y="48.51" width="41.51" height="1.84" rx="0.92" ry="0.92"/><line class="g" x1="40.72" y1="36.06" x2="222.76" y2="36.06"/><polyline class="h" points="261.2 53.89 222.45 53.89 222.45 20.38"/><line class="i" x1="174.02" y1="35.92" x2="174.02" y2="112.16"/></svg>