<svg xmlns="http://www.w3.org/2000/svg" xmlns:xlink="http://www.w3.org/1999/xlink" viewBox="0 0 333 223.85"><defs><style>.cls-1{fill:none;}.cls-2{clip-path:url(#clip-path);}.cls-3{fill:#fff;}.cls-4{fill:#ff5f00;}.cls-5{fill:#eb001b;}.cls-6{fill:#f79e1b;}</style><clipPath id="clip-path"><rect id="_Clipping_Path_" data-name="&lt;Clipping Path&gt;" class="cls-1" x="18" y="17.99" width="297" height="187.81"/></clipPath></defs><title>Asset 3</title><g id="Layer_2" data-name="Layer 2"><g id="Layer_1-2" data-name="Layer 1"><g class="cls-2"><rect width="333" height="223.85"/><path id="_Compound_Path_" data-name="&lt;Compound Path&gt;" class="cls-3" d="M100.87,190.11V179.48c0-4-2.41-6.64-6.5-6.68a6.56,6.56,0,0,0-5.94,3,6.21,6.21,0,0,0-5.58-3,5.8,5.8,0,0,0-5.09,2.47v-2.05H74.37v16.89H77.8v-9.68c0-2.93,1.76-4.48,4.27-4.48s3.82,1.59,3.82,4.45v9.71h3.42v-9.68c0-2.93,1.84-4.48,4.28-4.48s3.85,1.59,3.85,4.45v9.71Zm55-16.89h-6.15V168.1h-3.42v5.12h-3.57v3.08h3.57v8c0,3.93,1.38,6.26,5.72,6.26a8.63,8.63,0,0,0,4.59-1.31l-1.06-3a6.8,6.8,0,0,1-3.25,1c-1.83,0-2.58-1.13-2.58-2.83v-8h6.15Zm31.34-.42a5.21,5.21,0,0,0-4.59,2.47v-2.05H179.3v16.89h3.39v-9.5c0-2.79,1.35-4.59,3.75-4.59a6,6,0,0,1,2.3.42l1.13-3.18a7.87,7.87,0,0,0-2.62-.46Zm-47.38,1.77A12.57,12.57,0,0,0,133,172.8c-4.27,0-6.89,2-6.89,5.37,0,2.76,1.91,4.42,5.69,5l1.73.24c2,.29,3.11,1,3.11,1.95,0,1.31-1.48,2.15-4,2.15A8.8,8.8,0,0,1,127,185.7l-1.73,2.65a12.65,12.65,0,0,0,7.31,2.19c4.88,0,7.56-2.26,7.56-5.48,0-3-2-4.49-5.75-5l-1.74-.24c-1.59-.22-3-.71-3-1.84s1.34-2.09,3.36-2.09a10.93,10.93,0,0,1,5.26,1.45Zm51.23,7.1c0,5.12,3.43,8.87,8.87,8.87a8.86,8.86,0,0,0,6.08-2l-1.77-2.65a7.44,7.44,0,0,1-4.42,1.52c-2.93,0-5.22-2.33-5.22-5.72s2.29-5.69,5.22-5.72a7.49,7.49,0,0,1,4.42,1.51l1.77-2.65a8.91,8.91,0,0,0-6.08-2c-5.44,0-8.87,3.75-8.87,8.87Zm-23.74-8.87c-5,0-8.34,3.57-8.34,8.83s3.53,8.91,8.59,8.91a10.27,10.27,0,0,0,6.92-2.37l-1.8-2.51a8,8,0,0,1-4.91,1.77,5,5,0,0,1-5.19-4.38h12.61c0-.46.07-.92.07-1.42,0-5.26-3.22-8.83-7.95-8.83Zm-.07,3.15a4.3,4.3,0,0,1,4.45,4.27h-9.11a4.51,4.51,0,0,1,4.66-4.27Zm-45.72,5.72v-8.45h-3.39v2.05a6.7,6.7,0,0,0-5.48-2.47c-4.73,0-8.34,3.71-8.34,8.87s3.61,8.87,8.34,8.87a6.71,6.71,0,0,0,5.48-2.48v2.05h3.39Zm-13.67,0c0-3.18,2-5.72,5.26-5.72s5.16,2.43,5.16,5.72-2,5.72-5.16,5.72-5.26-2.54-5.26-5.72Zm130.37-8.87a5.21,5.21,0,0,0-4.59,2.47v-2.05h-3.36v16.89h3.39v-9.5c0-2.79,1.34-4.59,3.75-4.59a5.89,5.89,0,0,1,2.29.42l1.13-3.18a7.77,7.77,0,0,0-2.61-.46Zm27.21,14.86a1.67,1.67,0,0,1,.67.14,1.73,1.73,0,0,1,.54.35,1.65,1.65,0,0,1,.36.54,1.58,1.58,0,0,1,0,1.3,1.61,1.61,0,0,1-.36.53,2,2,0,0,1-.54.36,1.67,1.67,0,0,1-1.34,0,1.87,1.87,0,0,1-.55-.36,1.77,1.77,0,0,1-.36-.53,1.69,1.69,0,0,1,0-1.3,1.82,1.82,0,0,1,.36-.54,1.86,1.86,0,0,1,1.22-.49Zm0,3a1.26,1.26,0,0,0,.51-.11,1.25,1.25,0,0,0,.41-.28,1.2,1.2,0,0,0,.28-.41,1.35,1.35,0,0,0,0-1,1.2,1.2,0,0,0-.28-.41,1.42,1.42,0,0,0-.41-.28,1.35,1.35,0,0,0-1,0,1.34,1.34,0,0,0-.42.28,1.2,1.2,0,0,0-.28.41,1.35,1.35,0,0,0,0,1,1.31,1.31,0,0,0,.7.69A1.26,1.26,0,0,0,265.48,190.65Zm.1-2.09a.68.68,0,0,1,.46.13.46.46,0,0,1,0,.68.6.6,0,0,1-.37.15l.51.59h-.4l-.47-.58h-.15v.58h-.34v-1.55Zm-.38.29v.41h.38a.41.41,0,0,0,.21,0,.18.18,0,0,0,.08-.16.16.16,0,0,0-.08-.15.33.33,0,0,0-.21-.05Zm-39.93-7.18v-8.45h-3.39v2.05a6.7,6.7,0,0,0-5.48-2.47c-4.73,0-8.34,3.71-8.34,8.87s3.61,8.87,8.34,8.87a6.71,6.71,0,0,0,5.48-2.48v2.05h3.39Zm-13.68,0c0-3.18,2-5.72,5.27-5.72s5.16,2.43,5.16,5.72-2.05,5.72-5.16,5.72-5.27-2.54-5.27-5.72Zm47.77,0V166.44H256v8.83a6.69,6.69,0,0,0-5.48-2.47c-4.73,0-8.33,3.71-8.33,8.87s3.6,8.87,8.33,8.87a6.69,6.69,0,0,0,5.48-2.48v2.05h3.39Zm-13.67,0c0-3.18,2-5.72,5.26-5.72s5.16,2.43,5.16,5.72-2.05,5.72-5.16,5.72S245.69,184.85,245.69,181.67Z"/><g id="_Group_" data-name="&lt;Group&gt;"><rect class="cls-4" x="135.93" y="44.71" width="61.15" height="99.88"/><path id="_Path_" data-name="&lt;Path&gt;" class="cls-5" d="M142.24,94.65A63.42,63.42,0,0,1,166.5,44.71a63.52,63.52,0,1,0,0,99.88A63.42,63.42,0,0,1,142.24,94.65Z"/><path class="cls-6" d="M263.21,134v-2H264v-.41h-2.1V132h.82v2Zm4.08,0v-2.47h-.65l-.74,1.7-.74-1.7h-.64V134H265v-1.86l.7,1.6h.47l.69-1.61V134Z"/><path class="cls-6" d="M269.27,94.65A63.52,63.52,0,0,1,166.5,144.59a63.53,63.53,0,0,0,0-99.88A63.52,63.52,0,0,1,269.27,94.65Z"/></g></g></g></g></svg>