<svg viewBox="0 0 350 73" fill="none" xmlns="http://www.w3.org/2000/svg">
  <path
    d="M318.699 33.7514C318.699 31.1325 319.631 28.9019 321.496 27.0584C323.361 25.2153 325.603 24.2937 328.225 24.2937C330.846 24.2937 333.083 25.2153 334.936 27.0584C336.788 28.9019 337.714 31.1325 337.714 33.7514C337.714 36.3704 336.788 38.5948 334.936 40.4247C333.083 42.2557 330.846 43.171 328.225 43.171C325.603 43.171 323.361 42.2557 321.496 40.4247C319.631 38.5948 318.699 36.3704 318.699 33.7514ZM309.342 22.8823C307.389 26.2134 306.412 29.8359 306.412 33.7514C306.412 37.667 307.389 41.2895 309.342 44.6196C311.295 47.9512 313.948 50.5829 317.3 52.5141C320.652 54.4466 324.294 55.4125 328.225 55.4125C331.174 55.4125 333.99 54.841 336.674 53.6965C339.358 52.5521 341.677 51.0145 343.63 49.0819C345.583 47.1498 347.133 44.8425 348.281 42.1604C349.426 39.4783 350 36.6749 350 33.7514C350 29.8359 349.03 26.2134 347.089 22.8823C345.149 19.5516 342.502 16.914 339.151 14.9691C335.798 13.0246 332.157 12.0521 328.225 12.0521C324.294 12.0521 320.652 13.0246 317.3 14.9691C313.948 16.914 311.295 19.5516 309.342 22.8823ZM302.614 43.3613C301.405 43.3613 300.497 43.056 299.892 42.4462C299.237 41.7855 298.934 40.4506 298.985 38.4416V38.1373V24.4456C298.985 24.0139 299.212 23.7974 299.665 23.7974H303.9C304.075 23.7974 304.233 23.7281 304.372 23.5882C304.51 23.4483 304.58 23.2892 304.58 23.1107V13.3484C304.58 13.1705 304.51 13.0122 304.372 12.871C304.233 12.7323 304.075 12.6622 303.9 12.6622H299.665C299.212 12.6622 298.985 12.4453 298.985 12.0136V0.648186C298.985 0.216499 298.771 1.52588e-05 298.343 1.52588e-05H286.888C286.434 1.52588e-05 286.207 0.216499 286.207 0.648186V12.0136C286.207 12.4453 285.992 12.6622 285.565 12.6622H281.293C280.864 12.6622 280.65 12.8911 280.65 13.3484V23.1107C280.65 23.5685 280.864 23.7974 281.293 23.7974H285.565C285.992 23.7974 286.207 24.0139 286.207 24.4456V44.3154C286.207 47.5444 287.115 50.0421 288.929 51.809C290.743 53.5764 293.39 54.5604 296.868 54.7645H297.095C297.573 54.7645 299.678 54.663 303.408 54.4589C303.761 54.4589 303.962 54.2683 304.013 53.8874L305.487 44.1246C305.538 43.921 305.492 43.7425 305.355 43.5903C305.216 43.4384 305.046 43.3613 304.845 43.3613H302.614ZM276.549 43.3613C275.339 43.3613 274.433 43.056 273.827 42.4462C273.172 41.7855 272.87 40.4506 272.92 38.4416V38.1373V24.4456C272.92 24.0139 273.148 23.7974 273.6 23.7974H277.835C278.011 23.7974 278.168 23.7281 278.307 23.5882C278.446 23.4483 278.515 23.2892 278.515 23.1107V13.3484C278.515 13.1705 278.446 13.0122 278.307 12.871C278.168 12.7323 278.011 12.6622 277.835 12.6622H273.6C273.148 12.6622 272.92 12.4453 272.92 12.0136V0.648186C272.92 0.216499 272.706 1.52588e-05 272.278 1.52588e-05H260.823C260.369 1.52588e-05 260.142 0.216499 260.142 0.648186V12.0136C260.142 12.4453 259.928 12.6622 259.5 12.6622H255.228C254.799 12.6622 254.586 12.8911 254.586 13.3484V23.1107C254.586 23.5685 254.799 23.7974 255.228 23.7974H259.5C259.928 23.7974 260.142 24.0139 260.142 24.4456V44.3154C260.142 47.5444 261.05 50.0421 262.865 51.809C264.678 53.5764 267.325 54.5604 270.803 54.7645H271.03C271.508 54.7645 273.613 54.663 277.343 54.4589C277.696 54.4589 277.897 54.2683 277.948 53.8874L279.423 44.1246C279.473 43.921 279.428 43.7425 279.29 43.5903C279.152 43.4384 278.981 43.3613 278.78 43.3613H276.549ZM225.175 29.0221C224.972 29.0221 224.802 28.94 224.664 28.7744C224.525 28.6101 224.481 28.4257 224.532 28.2216C224.809 26.7221 225.779 25.4442 227.442 24.3887C229.106 23.3336 230.958 22.8066 233 22.8066C235.217 22.8066 237.114 23.3212 238.689 24.3506C240.264 25.38 241.178 26.6712 241.43 28.2216C241.48 28.4257 241.436 28.6101 241.297 28.7744C241.158 28.94 240.988 29.0221 240.787 29.0221H225.175ZM251.486 23.1107L251.07 22.4245C251.018 22.3736 250.962 22.2979 250.9 22.1956C250.837 22.0951 250.792 22.0185 250.767 21.9667L250.54 21.5855C250.49 21.5089 250.427 21.4135 250.351 21.2997C250.277 21.1846 250.212 21.1029 250.162 21.052C250.112 20.9754 250.03 20.8676 249.917 20.7281C249.803 20.5882 249.721 20.4796 249.67 20.4038L249.52 20.2122C249.469 20.1617 249.399 20.08 249.311 19.9649C249.223 19.8511 249.154 19.7681 249.104 19.7172L248.99 19.564L248.726 19.7929L248.953 19.5268C248.801 19.3488 248.55 19.0814 248.197 18.7254L248.046 18.5731C248.046 18.5483 247.982 18.4717 247.857 18.3442C247.731 18.2168 247.63 18.1286 247.554 18.0769L247.478 18.0003C247.403 17.9506 247.289 17.8544 247.138 17.7145C246.987 17.5759 246.874 17.4672 246.798 17.3906L246.647 17.2383C246.546 17.1617 246.444 17.086 246.345 17.0094C246.243 16.9328 246.136 16.8507 246.023 16.7617C245.91 16.6727 245.815 16.6034 245.739 16.5516C245.714 16.5268 245.683 16.4883 245.645 16.4378C245.608 16.3869 245.575 16.3608 245.55 16.3608L245.475 16.3227C245.248 16.1456 244.883 15.9035 244.379 15.598L244.341 15.5603C244.265 15.5099 244.133 15.4268 243.944 15.3118C243.755 15.198 243.578 15.0906 243.415 14.9879C243.251 14.8865 243.118 14.8108 243.018 14.759C242.992 14.759 242.942 14.7342 242.867 14.6833C242.791 14.6328 242.739 14.6067 242.715 14.6067L242.564 14.8741L242.677 14.5686L242.64 14.5301L242.11 14.2631L241.997 14.2255C241.946 14.1998 241.58 14.0351 240.901 13.7296L240.787 13.6916C240.737 13.6663 240.636 13.6218 240.485 13.5576C240.333 13.4943 240.207 13.4503 240.107 13.4242C240.082 13.3993 240.044 13.3861 239.993 13.3861C239.942 13.3861 239.904 13.3732 239.88 13.3484C239.526 13.1953 239.25 13.0947 239.048 13.043H239.01C238.43 12.8658 238.116 12.776 238.066 12.776L237.801 12.7003C237.473 12.6237 236.855 12.4962 235.948 12.3182L235.684 12.281C234.852 12.1796 234.197 12.1154 233.718 12.0893H233.492C233.365 12.0893 233.195 12.0842 232.981 12.0705C232.767 12.0581 232.609 12.0521 232.508 12.0521C232.408 12.0521 232.243 12.0581 232.017 12.0705C231.79 12.0842 231.613 12.0893 231.488 12.0893H231.261H231.185C231.008 12.0893 230.769 12.1154 230.467 12.1659H230.353H230.164C230.038 12.192 229.868 12.2228 229.654 12.2613C229.44 12.2994 229.282 12.3182 229.181 12.3182H229.106C228.677 12.37 228.337 12.4333 228.085 12.5086L227.934 12.5471C227.581 12.5989 227.341 12.6493 227.215 12.7003H227.14C227.114 12.7003 227.084 12.7127 227.046 12.7375C227.008 12.7636 226.976 12.776 226.951 12.776C226.472 12.9031 226.157 12.9925 226.006 13.043C225.804 13.0947 225.502 13.1953 225.099 13.3484C225.073 13.3732 225.042 13.3861 225.004 13.3861C224.966 13.3861 224.934 13.3993 224.91 13.4242H224.834C224.758 13.4503 224.651 13.4943 224.513 13.5576C224.374 13.6218 224.267 13.6663 224.191 13.6916L224.116 13.7296C224.091 13.7557 224.06 13.7681 224.022 13.7681C223.984 13.7681 223.952 13.7805 223.927 13.8062C223.624 13.9337 223.334 14.0599 223.058 14.1874C222.655 14.3915 222.364 14.5434 222.188 14.6452C222.163 14.67 222.131 14.6833 222.093 14.6833C222.056 14.6833 222.024 14.6957 221.998 14.7205L221.962 14.759C221.91 14.7847 221.816 14.8356 221.677 14.9126C221.538 14.9879 221.432 15.0521 221.356 15.103L221.092 15.2549C220.739 15.4589 220.474 15.6237 220.297 15.7511C217.676 17.5053 215.534 19.7544 213.871 22.5011C213.82 22.5777 213.739 22.7052 213.625 22.8823C213.512 23.0603 213.43 23.201 213.379 23.3016L213.191 23.6455L213.077 23.874C213.052 23.8992 213.04 23.9313 213.04 23.9694C213.04 24.0075 213.026 24.0396 213.002 24.0648L212.888 24.2171C212.888 24.2428 212.876 24.2813 212.85 24.3318C212.825 24.3827 212.813 24.4212 212.813 24.4456C212.611 24.802 212.472 25.0818 212.397 25.2846C212.22 25.6666 212.019 26.2258 211.792 26.9634C211.211 28.7423 210.859 30.6241 210.733 32.6072C210.708 32.8619 210.695 33.243 210.695 33.7514C210.695 34.2341 210.708 34.6038 210.733 34.8575C210.758 35.8744 210.897 36.9545 211.149 38.0988C211.173 38.2262 211.211 38.4105 211.263 38.6518C211.313 38.8941 211.35 39.0649 211.376 39.1665C211.527 39.7258 211.665 40.1833 211.792 40.5396C212.094 41.4551 212.46 42.3447 212.888 43.2096C212.888 43.2343 212.9 43.2664 212.926 43.3045C212.95 43.343 212.976 43.3751 213.002 43.4L213.04 43.5138C213.089 43.5903 213.159 43.7046 213.247 43.8577C213.335 44.0099 213.392 44.1246 213.418 44.2005L213.455 44.3154C213.48 44.3659 213.619 44.5817 213.871 44.9637C215.534 47.709 217.676 49.9595 220.297 51.7136C220.474 51.8411 220.739 52.0066 221.092 52.2095L221.356 52.3617C221.432 52.4135 221.538 52.4769 221.677 52.5521C221.816 52.6291 221.91 52.6796 221.962 52.7045L221.998 52.7429C222.024 52.7429 222.056 52.7561 222.093 52.781C222.131 52.8071 222.163 52.8332 222.188 52.8576C222.465 53.01 222.741 53.1499 223.02 53.2774H223.058C223.334 53.4047 223.624 53.5319 223.927 53.6584C223.952 53.6584 223.984 53.6718 224.022 53.6965C224.06 53.7226 224.091 53.7351 224.116 53.7351L224.191 53.7733C224.267 53.798 224.374 53.8438 224.513 53.9066C224.651 53.9699 224.758 54.0144 224.834 54.0393H224.872C224.896 54.0393 224.934 54.053 224.985 54.0777C225.036 54.1035 225.073 54.1158 225.099 54.1158C225.502 54.2683 225.804 54.3695 226.006 54.4213C226.585 54.5736 226.9 54.663 226.951 54.6879C226.976 54.6879 227.008 54.7011 227.046 54.726C227.084 54.7507 227.114 54.7645 227.14 54.7645H227.215C227.291 54.7894 227.41 54.8149 227.574 54.841C227.739 54.8659 227.859 54.8914 227.934 54.9167L228.199 54.9934C228.275 55.0181 228.4 55.0439 228.576 55.0699C228.753 55.0947 228.891 55.1204 228.992 55.1451H229.181V55.1837C229.383 55.2085 229.711 55.2471 230.164 55.2989H230.353H230.429C230.731 55.3494 230.983 55.3741 231.185 55.3741H231.261H231.488C231.613 55.3741 231.79 55.3805 232.017 55.3938C232.243 55.4062 232.408 55.4125 232.508 55.4125C232.609 55.4125 232.767 55.4062 232.981 55.3938C233.195 55.3805 233.365 55.3741 233.492 55.3741H233.755C234.612 55.3236 235.269 55.2603 235.721 55.1837L235.948 55.1451C236.755 54.9934 237.372 54.8659 237.801 54.7645L238.066 54.6879C238.191 54.663 238.361 54.6182 238.576 54.5552C238.789 54.491 238.935 54.4466 239.01 54.4213H239.048C239.3 54.3448 239.578 54.2434 239.88 54.1158L240.144 54.0393C240.346 53.9639 240.572 53.8745 240.825 53.7733L240.901 53.7351C241.404 53.5319 241.783 53.3663 242.034 53.2388L242.11 53.2007C242.161 53.176 242.337 53.0742 242.64 52.8962L242.715 52.8576C242.739 52.8332 242.791 52.8071 242.867 52.781C242.942 52.7561 242.992 52.7305 243.018 52.7045L243.131 52.6291C243.685 52.3236 244.101 52.0823 244.379 51.904L244.454 51.8274C245.084 51.3957 245.437 51.1544 245.512 51.1034L245.739 50.9504C246.142 50.6457 246.444 50.4044 246.647 50.2264L246.42 49.9595L246.684 50.188L246.874 49.9976C246.949 49.9209 247.056 49.8255 247.195 49.7117C247.333 49.5967 247.428 49.5149 247.478 49.4631L247.516 49.4251L248.046 48.8916L248.197 48.7393C248.55 48.3834 248.801 48.116 248.953 47.938L249.066 47.7855C249.116 47.709 249.192 47.6136 249.293 47.4998C249.394 47.3848 249.469 47.3031 249.52 47.2513L249.67 47.099L249.897 46.7563V46.7935L250.05 46.6032C250.124 46.5012 250.243 46.3233 250.408 46.0695C250.572 45.8158 250.692 45.6379 250.767 45.5353C251.07 45.027 251.245 44.7348 251.296 44.6582L251.486 44.3536C251.612 44.1246 251.864 43.6287 252.242 42.8655C252.342 42.6885 252.336 42.498 252.223 42.2939C252.11 42.091 251.952 41.9637 251.75 41.9129L240.749 39.9296C240.472 39.879 240.258 39.9545 240.107 40.1586C238.116 42.7517 235.545 44.048 232.395 44.048C230.656 44.048 229.036 43.6092 227.538 42.7319C226.038 41.8549 224.846 40.6536 223.964 39.1281C223.838 38.8993 223.838 38.6777 223.964 38.4613C224.091 38.2459 224.279 38.1373 224.532 38.1373H253.3C253.678 38.1373 253.892 37.9466 253.943 37.5645C254.17 36.2937 254.283 35.0233 254.283 33.7514C254.283 31.641 253.981 29.5946 253.375 27.6116C252.947 26.1111 252.317 24.6116 251.486 23.1107ZM178.827 40.8069C177.076 38.8993 176.2 36.5486 176.2 33.7514C176.2 30.9543 177.076 28.5964 178.827 26.6763C180.58 24.7575 182.816 23.7974 185.538 23.7974C188.311 23.7974 190.673 24.7699 192.626 26.7148C194.579 28.6598 195.556 31.0051 195.556 33.7514C195.556 36.4968 194.579 38.8362 192.626 40.7686C190.673 42.7009 188.311 43.6668 185.538 43.6668C182.816 43.6668 180.58 42.7134 178.827 40.8069ZM176.692 14.9126C176.591 14.9631 176.484 14.9631 176.371 14.9126C176.257 14.8617 176.2 14.7727 176.2 14.6452V13.3861C176.2 12.9292 175.986 12.7003 175.558 12.7003H164.066C163.637 12.7003 163.423 12.9292 163.423 13.3861V67.1592C163.423 67.5909 163.637 67.8074 164.066 67.8074H175.558C175.986 67.8074 176.2 67.5909 176.2 67.1592V52.8576C176.2 52.7305 176.251 52.6351 176.351 52.5718C176.452 52.509 176.566 52.5016 176.692 52.5521C180.044 54.4589 183.648 55.4125 187.504 55.4125C191.435 55.4125 195.077 54.4466 198.429 52.5141C201.781 50.5829 204.433 47.9512 206.387 44.6196C208.339 41.2895 209.317 37.667 209.317 33.7514C209.317 29.8359 208.339 26.2134 206.387 22.8823C204.433 19.5516 201.781 16.914 198.429 14.9691C195.077 13.0246 191.435 12.0521 187.504 12.0521C183.648 12.0521 180.044 13.0049 176.692 14.9126ZM130.855 40.8069C129.103 38.8993 128.228 36.5486 128.228 33.7514C128.228 30.9543 129.103 28.5964 130.855 26.6763C132.607 24.7575 134.844 23.7974 137.565 23.7974C140.337 23.7974 142.7 24.7699 144.653 26.7148C146.607 28.6598 147.583 31.0051 147.583 33.7514C147.583 36.4968 146.607 38.8362 144.653 40.7686C142.7 42.7009 140.337 43.6668 137.565 43.6668C134.844 43.6668 132.607 42.7134 130.855 40.8069ZM128.719 14.9126C128.619 14.9631 128.511 14.9631 128.398 14.9126C128.285 14.8617 128.228 14.7727 128.228 14.6452V13.3861C128.228 12.9292 128.013 12.7003 127.585 12.7003H116.093C115.664 12.7003 115.45 12.9292 115.45 13.3861V67.1592C115.45 67.5909 115.664 67.8074 116.093 67.8074H127.585C128.013 67.8074 128.228 67.5909 128.228 67.1592V52.8576C128.228 52.7305 128.278 52.6351 128.379 52.5718C128.479 52.509 128.593 52.5016 128.719 52.5521C132.071 54.4589 135.675 55.4125 139.531 55.4125C143.462 55.4125 147.104 54.4466 150.456 52.5141C153.808 50.5829 156.46 47.9512 158.414 44.6196C160.366 41.2895 161.343 37.667 161.343 33.7514C161.343 29.8359 160.366 26.2134 158.414 22.8823C156.46 19.5516 153.808 16.914 150.456 14.9691C147.104 13.0246 143.462 12.0521 139.531 12.0521C135.675 12.0521 132.071 13.0049 128.719 14.9126ZM98.9682 12.7003C98.539 12.7003 98.3257 12.9292 98.3257 13.3861V36.039C98.3257 38.3784 98.0988 40.0312 97.645 40.9974C97.3668 41.6592 96.8002 42.179 95.9439 42.5611C95.0868 42.9422 94.0656 43.1329 92.8819 43.1329C91.6211 43.1329 90.6134 42.8276 89.8577 42.2174C89.3526 41.8114 88.9624 41.3152 88.6855 40.7301C88.2058 39.6885 87.9666 38.1247 87.9666 36.039V13.3861C87.9666 12.9292 87.7524 12.7003 87.3241 12.7003H75.0757C74.6474 12.7003 74.4332 12.9292 74.4332 13.3861V36.6873C74.4332 39.9669 74.7483 42.5797 75.3785 44.5247C76.0079 46.4691 77.3188 48.4475 79.3099 50.4554C79.6127 50.7346 79.927 51.0145 80.2556 51.2943L80.3303 51.3324C83.405 53.5952 86.7321 54.726 90.3106 54.726C93.2598 54.726 96.019 53.8364 98.5894 52.0562C98.69 51.9805 98.7977 51.9745 98.9109 52.0375C99.0246 52.102 99.081 52.1971 99.081 52.3236V53.4677C99.081 53.9006 99.2947 54.1158 99.7239 54.1158H111.216C111.645 54.1158 111.858 53.9006 111.858 53.4677V13.3861C111.858 12.9292 111.645 12.7003 111.216 12.7003H98.9682ZM62.5644 14.7975C62.4634 14.8741 62.357 14.8801 62.2429 14.8159C62.1301 14.7526 62.0737 14.6576 62.0737 14.5301V13.3861C62.0737 12.9292 61.8591 12.7003 61.4299 12.7003H49.9377C49.5097 12.7003 49.2951 12.9292 49.2951 13.3861V53.4677C49.2951 53.9006 49.5097 54.1158 49.9377 54.1158H62.1865C62.6403 54.1158 62.8672 53.9006 62.8672 53.4677V30.1663C62.8672 28.2092 63.0805 26.7726 63.5097 25.8574C63.6607 25.4754 63.9635 25.0754 64.4173 24.6561C64.8706 24.2368 65.4241 23.9497 66.0801 23.7974C67.1887 23.5437 68.7511 23.518 70.7681 23.7208C70.9696 23.7469 71.1401 23.696 71.2783 23.5685C71.4162 23.4423 71.4857 23.2892 71.4857 23.1107L71.8644 13.4242C71.8644 12.9664 71.6498 12.7375 71.2219 12.7375C67.542 12.7893 64.6564 13.4759 62.5644 14.7975ZM23.4377 43.6668H23.3619C20.6652 43.5903 18.3842 42.5984 16.52 40.6919C14.6548 38.7853 13.7227 36.4844 13.7227 33.7897C13.7227 31.0693 14.6917 28.7363 16.633 26.7914C18.573 24.8465 20.9177 23.874 23.6647 23.874C25.7065 23.874 27.4823 24.452 28.9945 25.6089C30.5076 26.7666 31.6285 28.3355 32.3594 30.3186C32.7618 31.3873 32.9641 32.544 32.9641 33.7897C32.9641 36.5609 32.0884 38.8993 30.3372 40.8069C28.5849 42.7134 26.3614 43.6668 23.6647 43.6668H23.4377ZM33.6446 12.8141C33.1909 12.8141 32.9641 13.0306 32.9641 13.4622V14.7205C32.9641 14.8493 32.9137 14.9443 32.8132 15.0076C32.7126 15.0709 32.5986 15.0769 32.4734 15.0264C29.1207 13.1195 25.5422 12.1659 21.7369 12.1659C18.7878 12.1659 15.9718 12.7375 13.2874 13.8819C10.6032 15.0264 8.2913 16.5649 6.35003 18.4966C4.40995 20.4287 2.86615 22.73 1.71942 25.3997C0.572864 28.0693 0 30.8664 0 33.7897C0 37.6795 0.968969 41.2832 2.91021 44.6012C4.85029 47.9191 7.49065 50.5443 10.8299 52.4769C14.1692 54.4081 17.8052 55.3741 21.7369 55.3741C25.5926 55.3741 29.1588 54.4342 32.4355 52.5521C32.535 52.5016 32.6366 52.5016 32.7373 52.5521C32.8379 52.6039 32.9015 52.6796 32.9262 52.781C33.2792 54.6369 32.9764 56.2517 32.0196 57.6246C31.3134 58.6415 30.2858 59.4616 28.938 60.0841C27.5901 60.7075 26.0586 61.0823 24.3453 61.2097C22.0263 61.3621 19.9086 60.9167 17.9941 59.8749C16.0787 58.8319 14.4782 57.6369 13.193 56.2896C12.9158 56.0104 12.6264 55.9851 12.3236 56.2139L3.89359 62.7735C3.71716 62.8996 3.6287 63.0718 3.6287 63.2882C3.6287 63.5034 3.70474 63.6754 3.85566 63.8029C10.0046 69.4468 16.5322 72.2689 23.4377 72.2689H23.9294H24.3073C31.2128 72.2689 36.5047 70.3683 40.1847 66.568C43.8637 62.7663 45.7043 57.3067 45.7043 50.188V46.0695V13.4622C45.7043 13.0306 45.4897 12.8141 45.0618 12.8141H33.6446Z"
    fill="#F084AD"
  />
</svg>