<svg xmlns="http://www.w3.org/2000/svg" xmlns:xlink="http://www.w3.org/1999/xlink" width="321.663" height="67.248" viewBox="0 0 321.663 67.248">
  <defs>
    <linearGradient id="linear-gradient" x1="0.403" y1="0.579" x2="0.999" y2="0.008" gradientUnits="objectBoundingBox">
      <stop offset="0.18" stop-color="#0758ff"/>
      <stop offset="1" stop-color="#91e0e0"/>
    </linearGradient>
  </defs>
  <g id="Gruppe_12987" data-name="Gruppe 12987" transform="translate(-0.001)">
    <path id="Pfad_1100" data-name="Pfad 1100" d="M210.228,43.847a12.21,12.21,0,0,0,4.45-2.392,8.348,8.348,0,0,0,2.587-6.18V33.264a8.493,8.493,0,0,0-2.587-6.219,8.406,8.406,0,0,0-6.144-2.591,8.761,8.761,0,0,0-3.476.7,8.474,8.474,0,0,0-2.782,1.894,9.291,9.291,0,0,0-1.855,2.822,8.6,8.6,0,0,0-.7,3.4V66.845a4.908,4.908,0,0,1-9.816,0V33.264a17.99,17.99,0,0,1,5.448-13.139,17.866,17.866,0,0,1,13.174-5.483,18.124,18.124,0,0,1,9.311,2.513,18.6,18.6,0,0,1,9.237,16.113v2.012a17.972,17.972,0,0,1-5.448,13.135,17.711,17.711,0,0,1-11.4,5.417c-.556.047-4.967-.356-4.967-4.983,0-3.859,4.024-4.626,4.963-5" transform="translate(-92.506 -7.133)"/>
    <path id="Pfad_1101" data-name="Pfad 1101" d="M279.077,16.453h0a4.946,4.946,0,0,1,4.945,4.947V48.907a4.945,4.945,0,1,1-9.891,0V21.4a4.946,4.946,0,0,1,4.945-4.947" transform="translate(-133.533 -8.016)"/>
    <path id="Pfad_1102" data-name="Pfad 1102" d="M312.273,20.124a18.47,18.47,0,0,1,26.121-.153l.153.153A17.99,17.99,0,0,1,344,33.263v14.8a4.908,4.908,0,1,1-9.816,0v-14.8a8.495,8.495,0,0,0-2.587-6.219,8.41,8.41,0,0,0-6.145-2.591,8.7,8.7,0,0,0-3.475.7,8.465,8.465,0,0,0-2.783,1.895,9.285,9.285,0,0,0-1.855,2.821,8.6,8.6,0,0,0-.7,3.4V48.061a4.908,4.908,0,0,1-9.816,0v-14.8a17.989,17.989,0,0,1,5.448-13.139" transform="translate(-149.455 -7.131)"/>
    <path id="Pfad_1103" data-name="Pfad 1103" d="M394.994,20.125a18.472,18.472,0,0,1,26.125-.149c.051.051.1.1.149.149a17.99,17.99,0,0,1,5.448,13.139V55.909a17.986,17.986,0,0,1-5.526,13.061,18.63,18.63,0,0,1-28.438-2.755,4.942,4.942,0,0,1,8.173-5.558,8.739,8.739,0,0,0,13.4,1.283,8.351,8.351,0,0,0,2.587-6.183V51.663A18.405,18.405,0,0,1,395,48.418a17.987,17.987,0,0,1-5.448-13.135V33.275A17.976,17.976,0,0,1,395,20.137M416.9,35.271V33.26a8.489,8.489,0,0,0-2.587-6.219,8.678,8.678,0,0,0-12.27-.1c-.031.031-.067.063-.1.1a8.481,8.481,0,0,0-2.587,6.219v2.012a8.345,8.345,0,0,0,2.587,6.18,8.765,8.765,0,0,0,12.364,0,8.349,8.349,0,0,0,2.587-6.18" transform="translate(-189.752 -7.131)"/>
    <path id="Pfad_1104" data-name="Pfad 1104" d="M477.713,20.125a18.472,18.472,0,0,1,26.125-.149c.051.051.1.1.149.149a16.768,16.768,0,0,1,5.221,10.047c.583,4.575-1.558,8.192-6.693,8.192H482.7a8.292,8.292,0,0,0,3.166,4.094,12.663,12.663,0,0,0,12.6.058,5.034,5.034,0,0,1,4.051-.317l.024.008a4.919,4.919,0,0,1,.79,8.892l-.082.047c-7.244,4.02-19.7,3.151-25.526-2.739a17.992,17.992,0,0,1-5.448-13.135V33.26a17.977,17.977,0,0,1,5.448-13.139M482.7,30.172H499a8.293,8.293,0,0,0-3.167-4.094,8.8,8.8,0,0,0-9.968,0,8.3,8.3,0,0,0-3.166,4.094" transform="translate(-230.045 -7.131)"/>
    <path id="Pfad_1105" data-name="Pfad 1105" d="M560.127,20.124a18.47,18.47,0,0,1,26.121-.153l.153.153a17.991,17.991,0,0,1,5.448,13.139v14.8a4.908,4.908,0,0,1-9.816,0v-14.8a8.494,8.494,0,0,0-2.587-6.219,8.409,8.409,0,0,0-6.145-2.591,8.7,8.7,0,0,0-3.475.7,8.468,8.468,0,0,0-2.783,1.895,9.283,9.283,0,0,0-1.855,2.821,8.6,8.6,0,0,0-.7,3.4V48.061a4.908,4.908,0,0,1-9.816,0v-14.8a17.99,17.99,0,0,1,5.448-13.139" transform="translate(-270.188 -7.131)"/>
    <path id="icon" d="M57.378,0H9.882A9.735,9.735,0,0,0,3.977,1.973,7.858,7.858,0,0,0,.827,8.322,8.1,8.1,0,0,0,4.09,14.857L29.277,33.765a9.352,9.352,0,0,0,11.8.1l8.849-7.116v1.56a4.041,4.041,0,0,0,3.824,4.09,3.925,3.925,0,0,0,4.031-3.927V17.22a3.953,3.953,0,0,0-3.947-3.947H42.515a4.042,4.042,0,0,0-4.09,3.829,3.925,3.925,0,0,0,3.927,4.031h2.008l-8.219,6.609a1.463,1.463,0,0,1-1.865-.03c-.064-.054-.128-.108-.192-.157L9.508,9.1a.707.707,0,0,1-.241-.792.634.634,0,0,1,.615-.448h47.5a5.025,5.025,0,0,1,5.02,5.02V44.646a5.025,5.025,0,0,1-5.02,5.02H12.884a5.025,5.025,0,0,1-5.02-5.02V28.022a4.041,4.041,0,0,0-3.824-4.09A3.925,3.925,0,0,0,.01,27.86V44.641A12.894,12.894,0,0,0,12.889,57.52H57.383A12.894,12.894,0,0,0,70.262,44.641V12.879A12.894,12.894,0,0,0,57.383,0Z" transform="translate(-0.009)" fill="url(#linear-gradient)"/>
  </g>
</svg>
