<svg version="1.1" id="Слой_1" xmlns="http://www.w3.org/2000/svg" xmlns:xlink="http://www.w3.org/1999/xlink" x="0px" y="0px" width="40px" height="5.8px" viewBox="0 0 40 5.8" enable-background="new 0 0 40 5.8" xml:space="preserve">
<g>
	<polygon fill="#0E9F50" points="0,5.2 11.8,2.7 0,0.3  "/>
	<path fill="#010101" d="M11,4.6h-0.4v0.2h1.8V4.6H12V3.2c0-0.5,0.1-1,0.5-1.2c0.1,0,0.2,0,0.2,0c0.1,0.2-0.1,0.2-0.2,0.4   c-0.1,0.1,0,0.4,0,0.5c0.1,0.2,0.3,0.3,0.5,0.2c0.2,0,0.4-0.2,0.4-0.4c0.1-0.2,0-0.4-0.2-0.6c-0.2-0.2-0.5-0.3-0.8-0.2   c-0.3,0-0.5,0.2-0.6,0.5l0-0.5h-1.4V2L11,2V4.6z"/>
	<path fill="#010101" d="M32.6,4.6h-0.4v0.1H34V4.6h-0.4V3.2c0-0.5,0.1-1,0.5-1.2c0.1,0,0.2,0,0.2,0c0.1,0.2-0.1,0.2-0.2,0.4   c-0.1,0.1,0,0.4,0,0.5c0.1,0.2,0.3,0.3,0.5,0.2c0.2,0,0.4-0.2,0.4-0.4c0.1-0.2,0-0.4-0.2-0.6c-0.2-0.2-0.5-0.3-0.8-0.2   c-0.3,0-0.5,0.2-0.6,0.5l0-0.5h-1.4V2l0.4,0C32.6,2,32.6,4.6,32.6,4.6z"/>
	<path fill="#010101" d="M19.7,0v0.2h-0.5v4.4c0.5,0,1,0.1,1.4-0.2c0.4-0.2,0.8-0.7,0.8-1.1h0.1v1.5h-4V4.6H18V0.2h-0.5V0L19.7,0   L19.7,0z"/>
	<path fill="#010101" d="M25.4,1.9h0.5V2h-0.5v2.3c0,0.1,0.1,0.3,0.3,0.3c0.3,0,0.4-0.3,0.4-0.7h0.2c0,0.3,0,0.6-0.3,0.8   c-0.3,0.2-0.8,0.2-1.1,0c-0.4-0.2-0.4-0.5-0.4-0.9V2H24V1.9h0.4V0.6c0.1,0.1,0.2,0.2,0.5,0.2c0.3,0,0.4-0.1,0.5-0.2L25.4,1.9   L25.4,1.9z"/>
	<path fill="#010101" d="M27.8,1.9h0.5V2h-0.5v2.3c0,0.1,0.1,0.3,0.3,0.3c0.3,0,0.4-0.3,0.4-0.7h0.2c0,0.3,0,0.6-0.3,0.8   c-0.3,0.2-0.8,0.2-1.1,0c-0.4-0.2-0.4-0.5-0.4-0.9V2h-0.4V1.9h0.4V0.6c0.1,0.1,0.2,0.2,0.5,0.2c0.3,0,0.4-0.1,0.5-0.2V1.9z"/>
	<path fill="#010101" d="M39.2,2c0.1,0,0.2,0,0.2-0.1l0-0.1h0.1v0.9h-0.1C39.4,2.3,39.1,2,38.6,2c-0.3,0-0.5,0.1-0.4,0.4   c0,0.1,0.2,0.2,0.3,0.3c0.3,0.1,0.7,0.2,1,0.4C39.8,3.1,40,3.4,40,3.8c0,0.4-0.2,0.8-0.5,0.9C39,5,38.3,4.8,37.9,4.6   c-0.1,0-0.3,0-0.4,0.1V3.6c0.1,0.7,0.6,1.2,1.5,1.2c0.3,0,0.4-0.3,0.4-0.4c0-0.3-0.2-0.4-0.4-0.4c-0.4-0.1-1.3-0.3-1.5-1   c-0.1-0.3,0.1-0.6,0.3-0.8C38.2,1.7,38.8,1.7,39.2,2"/>
	<path fill="#010101" d="M17.4,3.3c0,0.8-0.8,1.5-1.8,1.5c-1,0-1.8-0.7-1.8-1.5c0-1,0.9-1.5,1.8-1.5C16.4,1.8,17.4,2.2,17.4,3.3    M15.6,1.9c-0.4,0-0.7,0.6-0.7,1.4c0,0.7,0.3,1.4,0.7,1.4c0.5,0,0.7-0.7,0.7-1.4C16.3,2.6,16.1,1.9,15.6,1.9"/>
	<path fill="#010101" d="M31.9,3.3h-2c0,0.6,0.1,1.3,0.7,1.4C31.3,4.8,31.7,4,31.7,4l0.1,0.1c-0.2,0.4-0.5,0.8-1.3,0.8   c-1.1,0-1.7-0.8-1.7-1.5c0-1,1-1.5,1.7-1.5C31,1.8,31.9,2.1,31.9,3.3 M30.4,2c-0.3,0-0.5,0.5-0.5,1.2h1.1C30.9,2.6,30.8,2,30.4,2"/>
	<rect x="37.3" y="3.5" fill="#0E9F50" width="0.2" height="2.2"/>
	<polygon fill="#010101" points="23.3,1.9 23.3,4.6 23.7,4.6 23.7,4.8 21.9,4.8 21.9,4.6 22.3,4.6 22.3,2 21.9,2 21.9,1.9  "/>
	<path fill="#010101" d="M22.8,1.3c0.3,0,0.5-0.2,0.5-0.5c0-0.3-0.2-0.5-0.5-0.5c-0.3,0-0.5,0.2-0.5,0.5C22.3,1.1,22.5,1.3,22.8,1.3   "/>
	<polygon fill="#010101" points="36.6,1.9 36.6,4.6 37.1,4.6 37.1,4.8 35.2,4.8 35.2,4.6 35.7,4.6 35.7,2 35.2,2 35.2,1.9  "/>
	<path fill="#010101" d="M36.1,1.2c0.3,0,0.5-0.2,0.5-0.5c0-0.3-0.2-0.5-0.5-0.5c-0.3,0-0.5,0.2-0.5,0.5S35.9,1.2,36.1,1.2"/>
	<path fill="#1E1819" d="M7.9,2.4V0.2h0.4c1.1,0,1.1,0.8,1.1,1.1c0,0.6,0,1.2-1.2,1.2C8.2,2.4,7.9,2.4,7.9,2.4z M6.3,0.2h0.4v4.4   H6.3v0.1h2.1V4.6H7.9v-2h0.8c0.9,0,1.8-0.3,1.8-1.3c0-1.1-1-1.3-1.9-1.3H6.3V0.2z"/>
	<rect y="-0.5" fill="none" width="40" height="6.8"/>
</g>
<script xmlns=""/></svg>