<?xml version="1.0" encoding="UTF-8"?>
<svg version="1.1" xmlns="http://www.w3.org/2000/svg" width="359" height="359">
    <path d="M0 0 C21.8763242 -0.08986388 43.74310194 0.15881339 65.61688232 0.46356201 C70.07660073 0.52527713 74.53634847 0.58479593 78.99609375 0.64453125 C87.66409166 0.76094116 96.33205557 0.87967368 105 1 C105 5.29 105 9.58 105 14 C101.7 14.33 98.4 14.66 95 15 C94.62132052 21.01858666 95.9270942 25.66772217 97.9375 31.3125 C98.21529297 32.12267578 98.49308594 32.93285156 98.77929688 33.76757812 C100.20974973 37.95825679 100.20974973 37.95825679 102 42 C103.39008944 37.44755281 104.77752207 32.89430719 106.16259766 28.34033203 C106.63323875 26.79421635 107.10457989 25.24831358 107.57666016 23.70263672 C108.25872151 21.46899393 108.93818384 19.23457393 109.6171875 17 C109.82560272 16.31945557 110.03401794 15.63891113 110.24874878 14.93774414 C111.65108928 10.31076171 112.82416593 5.70333629 114 1 C119.94 1 125.88 1 132 1 C133.94307086 6.1815223 135.77583259 11.26709249 137.4453125 16.52734375 C137.88666739 17.90952161 138.32807509 19.29168261 138.76953125 20.67382812 C139.45301389 22.82202246 140.13547565 24.97053489 140.81689453 27.11938477 C141.48210614 29.2145413 142.15100183 31.30849376 142.8203125 33.40234375 C143.21492676 34.64491943 143.60954102 35.88749512 144.01611328 37.16772461 C144.72399189 39.86929724 144.72399189 39.86929724 146 41 C146.8465686 38.1700421 147.67738086 35.33692438 148.5 32.5 C148.73847656 31.70851562 148.97695312 30.91703125 149.22265625 30.1015625 C150.71916185 24.88517155 151.2488739 20.42545097 151 15 C148.03 14.67 145.06 14.34 142 14 C142 9.71 142 5.42 142 1 C153.88 1 165.76 1 178 1 C178 5.29 178 9.58 178 14 C176.90429688 14.20625 175.80859375 14.4125 174.6796875 14.625 C170.88056145 15.63119578 170.88056145 15.63119578 169.3203125 18.5625 C168.92585937 19.696875 168.53140625 20.83125 168.125 22 C167.89433838 22.639375 167.66367676 23.27875 167.42602539 23.9375 C166.89768291 25.41856053 166.38352391 26.90472478 165.88037109 28.39453125 C164.87977713 31.35580102 163.84120797 34.30249464 162.80078125 37.25 C159.03602749 47.97054726 155.37679503 58.72579588 151.875 69.53515625 C151 72 151 72 150 73 C148.65732587 73.08631874 147.31025678 73.10706473 145.96484375 73.09765625 C145.15595703 73.09443359 144.34707031 73.09121094 143.51367188 73.08789062 C142.66353516 73.07951172 141.81339844 73.07113281 140.9375 73.0625 C140.08349609 73.05798828 139.22949219 73.05347656 138.34960938 73.04882812 C136.23304337 73.03700373 134.11651315 73.01906769 132 73 C131.74831055 72.23445801 131.49662109 71.46891602 131.23730469 70.68017578 C130.07813508 67.16069886 128.91410136 63.64284862 127.75 60.125 C127.35425781 58.92101562 126.95851562 57.71703125 126.55078125 56.4765625 C124.25459988 49.55037606 121.81859032 42.73157123 119 36 C118.46258179 37.62796509 118.46258179 37.62796509 117.91430664 39.28881836 C116.58855136 43.30219173 115.25887056 47.31425515 113.92797852 51.32592773 C113.35170451 53.06482844 112.77650631 54.80408604 112.20239258 56.54370117 C111.37861894 59.03918801 110.55102809 61.5333801 109.72265625 64.02734375 C109.46533218 64.80963852 109.20800812 65.59193329 108.94288635 66.39793396 C107.11387171 71.88612829 107.11387171 71.88612829 106 73 C104.65732587 73.08631874 103.31025678 73.10706473 101.96484375 73.09765625 C101.15595703 73.09443359 100.34707031 73.09121094 99.51367188 73.08789062 C98.66353516 73.07951172 97.81339844 73.07113281 96.9375 73.0625 C96.08349609 73.05798828 95.22949219 73.05347656 94.34960938 73.04882812 C92.23304337 73.03700373 90.11651315 73.01906769 88 73 C85.7023012 66.97859528 83.58399126 60.9134813 81.53125 54.8046875 C80.87127322 52.85280389 80.21111144 50.90098283 79.55078125 48.94921875 C78.52197622 45.90413298 77.49449403 42.85862307 76.47021484 39.81201172 C75.47363065 36.84990232 74.47160842 33.88967759 73.46875 30.9296875 C73.16553833 30.02330536 72.86232666 29.11692322 72.54992676 28.18307495 C70.98803207 23.58649191 69.30545753 19.27492182 67 15 C63.86069448 14.50432018 62.01787917 14.22900897 59 15 C57.16257023 16.69729365 57.16257023 16.69729365 55.6171875 18.9609375 C55.01608154 19.78037842 54.41497559 20.59981934 53.7956543 21.4440918 C53.20308838 22.2875415 52.61052246 23.13099121 52 24 C51.46608643 24.75772705 50.93217285 25.5154541 50.38208008 26.29614258 C48.79800055 28.58078196 47.2394943 30.88096082 45.6875 33.1875 C41.20179159 39.8131794 36.65073589 46.37571392 31.89526367 52.8112793 C29.67096862 55.61346358 29.67096862 55.61346358 29 59 C41.64152245 59.66033428 41.64152245 59.66033428 52.875 54.8125 C55.29847337 51.60496172 56.60093843 48.75537579 58 45 C64.75 44.875 64.75 44.875 67 46 C66.35343144 54.89031769 64.12977433 63.37193748 62 72 C58.22966057 72.87451521 54.7314269 73.13144312 50.86450195 73.14526367 C49.04285271 73.15483345 49.04285271 73.15483345 47.18440247 73.16459656 C45.23107246 73.16626579 45.23107246 73.16626579 43.23828125 73.16796875 C41.88258326 73.17118386 40.52688562 73.17454812 39.17118835 73.17805481 C36.33766881 73.18402744 33.50417969 73.18589641 30.6706543 73.18530273 C27.03550268 73.18520071 23.40054462 73.1989025 19.76543903 73.21607494 C16.96967159 73.22717169 14.1739515 73.22922274 11.37816429 73.22869301 C9.38501415 73.2304496 7.39187878 73.24129625 5.39875793 73.25224304 C4.19378159 73.24916641 2.98880524 73.24608978 1.74731445 73.24291992 C0.68317825 73.24434494 -0.38095795 73.24576996 -1.4773407 73.24723816 C-4 73 -4 73 -6 71 C-5.95565755 65.05811174 -2.75647903 61.39011826 0.6875 56.875 C1.8751999 55.27585403 3.06134177 53.67554996 4.24609375 52.07421875 C5.17204346 50.82970947 5.17204346 50.82970947 6.11669922 49.56005859 C9.23514433 45.3210107 12.24246441 41.0056117 15.25 36.6875 C15.83305908 35.85234863 16.41611816 35.01719727 17.0168457 34.15673828 C21.69560154 27.45010228 26.35685206 20.73133617 31 14 C20.49373837 13.27980859 20.49373837 13.27980859 11 17 C8.49114089 20.80994101 6.67448899 24.76452784 5 29 C2.03 28.67 -0.94 28.34 -4 28 C-3.2393065 18.56740056 -1.6025796 9.31748694 0 0 Z " fill="#B2D7AF" transform="translate(6,161)"/>
    <path d="M0 0 C1 1 1 1 1.11352539 4.59947205 C1.11337551 6.24202308 1.10759824 7.88457866 1.09765625 9.52709961 C1.09619598 10.42136154 1.09473572 11.31562347 1.0932312 12.23698425 C1.08941542 14.18553655 1.08328868 16.13408534 1.07516479 18.08262444 C1.06245887 21.16231351 1.05590039 24.24195978 1.05102539 27.32167053 C1.03761634 34.97222085 1.01342124 42.62273064 0.98962402 50.27325439 C0.96993923 56.73164703 0.95427833 63.19002465 0.94406128 69.64843941 C0.93755376 72.68972065 0.92504443 75.7309407 0.91235352 78.77220154 C0.90872222 80.62930243 0.90537033 82.48640389 0.90234375 84.34350586 C0.89459427 85.62076538 0.89459427 85.62076538 0.88668823 86.92382812 C0.77257625 91.09486797 0.77257625 91.09486797 2 95 C6.62 95 11.24 95 16 95 C16.65797395 91.71013027 17.12948332 89.18349833 17.20532227 85.9440918 C17.22526749 85.18368088 17.24521271 84.42326996 17.26576233 83.63981628 C17.28247482 82.8344191 17.29918732 82.02902191 17.31640625 81.19921875 C17.33718735 80.36284378 17.35796844 79.52646881 17.37937927 78.66474915 C17.44451034 76.00574579 17.5035895 73.34664772 17.5625 70.6875 C17.60571992 68.87954769 17.6493353 67.07160478 17.69335938 65.26367188 C17.80015416 60.84254378 17.90152325 56.42132088 18 52 C13.05 52.495 13.05 52.495 8 53 C7.15953583 49.63814334 6.86495136 47.21396412 6.875 43.8125 C6.87113281 42.49185547 6.87113281 42.49185547 6.8671875 41.14453125 C7 39 7 39 8 38 C10.65463121 37.54540142 13.32189138 37.29756762 16 37 C16.268125 36.071875 16.53625 35.14375 16.8125 34.1875 C17.0909375 33.23230469 17.0909375 33.23230469 17.375 32.2578125 C17.82389416 30.63618235 18.23636671 29.00430524 18.625 27.3671875 C21.26058074 16.61521606 25.93032217 9.53196996 35 3 C42.44448507 -1.38169495 52.64058796 -0.9744365 61 0 C65.88786683 1.34433573 69.35441842 3.61655837 72 8 C72.43359375 10.69140625 72.43359375 10.69140625 72.4375 13.5625 C72.45683594 14.51253906 72.47617187 15.46257812 72.49609375 16.44140625 C72 19 72 19 70.21875 20.78515625 C66.85468764 22.62709885 63.81780992 23.11407799 60 23 C56.1998622 21.56439238 55.2074656 20.36485329 53.1875 16.8125 C52.5996875 15.4203125 52.5996875 15.4203125 52 14 C50.02 14 48.04 14 46 14 C43.0975684 18.977869 42.3312365 23.2593205 41.8125 28.875 C41.73064453 29.65875 41.64878906 30.4425 41.56445312 31.25 C41.36588325 33.16561529 41.18148253 35.08269042 41 37 C46.28 37.33 51.56 37.66 57 38 C57 42.62 57 47.24 57 52 C51.39 52 45.78 52 40 52 C40.1205929 56.677465 40.24354819 61.35475144 40.37231445 66.03198242 C40.41533386 67.61951145 40.45702837 69.207077 40.49731445 70.79467773 C40.80223817 82.92768193 40.80223817 82.92768193 42 95 C47.445 95.495 47.445 95.495 53 96 C53 100.62 53 105.24 53 110 C24.62 110 -3.76 110 -33 110 C-33.33 105.38 -33.66 100.76 -34 96 C-31.8034375 95.7834375 -31.8034375 95.7834375 -29.5625 95.5625 C-26.48153302 95.46504174 -26.48153302 95.46504174 -24 94 C-23.89976256 91.66812441 -23.86380795 89.36585948 -23.87060547 87.03344727 C-23.86885315 86.30499603 -23.86710083 85.5765448 -23.86529541 84.82601929 C-23.86087644 82.40612439 -23.86381533 79.98630196 -23.8671875 77.56640625 C-23.8665144 75.89110805 -23.86554432 74.21580995 -23.86428833 72.54051208 C-23.86281124 69.02398756 -23.864966 65.50748838 -23.86962891 61.9909668 C-23.87532182 57.4768932 -23.87205004 52.96287912 -23.86605644 48.44880772 C-23.8624474 44.98735605 -23.86359108 41.52591856 -23.86618423 38.06446648 C-23.86685278 36.3998406 -23.8660276 34.73521345 -23.86370468 33.07058907 C-23.86117302 30.7456737 -23.86502623 28.42085538 -23.87060547 26.09594727 C-23.86756912 25.05713158 -23.86756912 25.05713158 -23.86447144 23.99732971 C-23.83945505 20.37625543 -23.83945505 20.37625543 -25 17 C-27.12576782 16.53348793 -27.12576782 16.53348793 -29.5625 16.375 C-31.026875 16.25125 -32.49125 16.1275 -34 16 C-34 11.38 -34 6.76 -34 2 C-29.83361143 1.66283561 -25.66694588 1.33014346 -21.5 1 C-19.74042969 0.85691406 -19.74042969 0.85691406 -17.9453125 0.7109375 C-5.9623085 -0.23154596 -5.9623085 -0.23154596 0 0 Z " fill="#B2D7AF" transform="translate(287,124)"/>
    <path d="M0 0 C7.39029721 5.20462705 13.49970585 12.09723137 15.51171875 21.1171875 C17.3545642 34.52900713 16.00777472 46.54701477 7.74609375 57.453125 C2.17250795 64.03273147 -4.39486804 68.91069877 -13.14160156 70.07617188 C-16.46163308 70.24788023 -19.75010987 70.27081427 -23.07421875 70.23828125 C-24.18990234 70.26212891 -25.30558594 70.28597656 -26.45507812 70.31054688 C-35.75396325 70.29420437 -41.7841337 67.6054058 -49.38671875 62.48828125 C-57.06545992 54.63502324 -60.09914315 46.24103287 -60.51171875 35.48828125 C-60.28974113 23.52923709 -56.48014818 14.31997673 -48.32421875 5.77734375 C-43.49969111 1.16680725 -38.4688354 -1.32120226 -32.13671875 -3.32421875 C-31.54761719 -3.51757812 -30.95851562 -3.7109375 -30.3515625 -3.91015625 C-20.35446664 -5.77910186 -8.75106799 -5.42342239 0 0 Z M-33.13671875 14.67578125 C-38.01354102 23.09432615 -37.13130699 35.52774468 -35.38671875 44.80078125 C-33.89355207 50.19677669 -31.77723877 53.69777893 -26.88671875 56.61328125 C-22.19269369 57.94325502 -19.8749011 57.82211569 -15.13671875 56.67578125 C-10.16419324 53.64902659 -8.84781635 50.5912814 -7.51171875 45.11328125 C-6.42372155 35.13997356 -6.13683265 23.49319717 -11.37890625 14.55859375 C-13.69801504 11.69058347 -15.60890832 9.86813148 -19.30859375 9.40234375 C-25.54462595 9.15668188 -28.91623681 9.63179064 -33.13671875 14.67578125 Z " fill="#B2D7AF" transform="translate(239.13671875,164.32421875)"/>
    <path d="M0 0 C2.75329021 1.79562405 4.52627461 3.05254922 6 6 C6.39447548 10.18144011 6.45035186 12.30946048 4.125 15.875 C1.21289342 18.78710658 0.3997223 18.96068305 -3.8125 19.375 C-7.16084564 19.30791111 -8.03191618 18.97938747 -11 17.0625 C-13.6601163 12.98919692 -13.98443537 9.74480111 -13 5 C-9.31754563 0.09006083 -5.99877304 -0.5083706 0 0 Z " fill="#B2D7AF" transform="translate(207,132)"/>
    <path d="M0 0 C3.38031589 1.18767855 3.93216817 1.89825225 6 5 C6.60182519 8.09014087 6.61143646 10.91035203 6 14 C2.95666217 17.63715985 1.12108584 18.82298645 -3.5625 19.5625 C-7.52374737 18.91429589 -9.18799374 17.81200626 -12 15 C-13.55024464 11.89951072 -13.28992015 9.42105782 -13 6 C-9.24675489 0.24502417 -6.74280473 -0.34876576 0 0 Z " fill="#B2D7AF" transform="translate(234,132)"/>
</svg>