<?xml version="1.0" encoding="utf-8"?>
<!-- Generator: Adobe Illustrator 26.0.2, SVG Export Plug-In . SVG Version: 6.00 Build 0)  -->
<svg version="1.1" id="Ebene_1" xmlns="http://www.w3.org/2000/svg" xmlns:xlink="http://www.w3.org/1999/xlink" x="0px" y="0px"
	 viewBox="0 0 425.2 17.3" style="enable-background:new 0 0 425.2 17.3;" xml:space="preserve">
<path d="M67.3,9.6v3.5L59,1.3h-3v15.5h2.2V4l9.1,12.9h2.2V1.3h-2.2V9.6z M81.8,13.3l1.9,0.7c-0.7,2-2.7,3.3-4.8,3.2
	c-3.1,0-5.1-2.1-5.1-5.8s2.1-5.9,5-5.9c3.3,0,5.2,2.8,4.8,6.4h-7.8c0.1,2.6,1.6,3.5,3.1,3.5C80.2,15.5,81.4,14.6,81.8,13.3
	L81.8,13.3z M75.9,10.3h5.6c0.1-1.5-1-2.9-2.5-3h-0.2C77.2,7.3,75.9,8.7,75.9,10.3L75.9,10.3z M94.8,10.7c0,1.7-0.1,4.7-2.9,4.7
	c-1.4,0-2.3-0.8-2.3-2.8V5.9h-2.1v7.2c0,2.4,1.1,4.1,3.6,4.1c1.6,0,3-0.8,3.7-2.2v1.8h2v-11h-2C94.8,5.8,94.8,10.7,94.8,10.7z
	 M108.9,13.3l1.9,0.7c-0.7,2-2.7,3.3-4.8,3.2c-3.1,0-5.1-2.1-5.1-5.8s2.1-5.9,5-5.9c3.3,0,5.2,2.8,4.8,6.4H103
	c0.1,2.6,1.6,3.5,3.1,3.5C107.4,15.5,108.5,14.6,108.9,13.3z M103,10.3h5.6c0.1-1.5-1-2.9-2.5-3h-0.2C104.3,7.3,103,8.6,103,10.3
	L103,10.3z M116.9,8.2V5.9h-2.1v11h2.1v-5c0-2.6,1-4.1,3.5-4.1c0.4,0,0.8,0,1.2,0.1v-2c-0.3-0.1-0.7-0.1-1-0.1
	C118.9,5.8,117.5,6.7,116.9,8.2L116.9,8.2z M146,12.6c0,2.9-2.3,4.3-5.1,4.3h-7.1V1.3h6.8c3.3,0,4.9,1.6,4.9,3.8
	c0.1,1.8-1.2,3.3-2.9,3.6C144.5,9,146,10.7,146,12.6z M136,7.8h4.3c1.7,0,2.8-0.9,2.8-2.3s-1.1-2.1-2.8-2.1H136V7.8z M143.6,12.3
	c0-1.6-1.2-2.5-3.1-2.5H136v5h4.5C142.4,14.8,143.7,13.8,143.6,12.3L143.6,12.3z M157.4,13.3l1.9,0.7c-0.7,2-2.7,3.3-4.9,3.2
	c-3.1,0-5.1-2.1-5.1-5.8s2.1-5.9,5-5.9c3.3,0,5.2,2.8,4.9,6.4h-7.8c0.1,2.6,1.6,3.5,3.1,3.5C155.8,15.5,157,14.6,157.4,13.3
	L157.4,13.3z M151.5,10.2h5.6c0.1-1.5-1-2.9-2.5-3h-0.2C152.7,7.3,151.5,8.6,151.5,10.2L151.5,10.2z M165.3,8.2V5.9h-2.1v11h2.1v-5
	c0-2.6,1-4.1,3.5-4.1c0.4,0,0.8,0,1.2,0.1v-2c-0.3-0.1-0.7-0.1-1-0.1C167.4,5.8,166,6.7,165.3,8.2L165.3,8.2z M179,5.5
	c-1.5,0-2.9,0.8-3.6,2.2V5.9h-2v11h2.1v-4.8c0-1.6,0-4.8,2.9-4.8c1.4,0,2.3,0.8,2.3,2.8v6.7h2.1V9.6C182.8,7.2,181.7,5.6,179,5.5
	L179,5.5z M194.7,13.3l1.9,0.7c-0.7,2-2.7,3.3-4.9,3.2c-3.1,0-5.1-2.1-5.1-5.8s2.1-5.9,5-5.9c3.3,0,5.2,2.8,4.9,6.4h-7.8
	c0.1,2.6,1.6,3.5,3.1,3.5C193.1,15.5,194.3,14.6,194.7,13.3C194.6,13.4,194.7,13.4,194.7,13.3z M188.8,10.3h5.6c0.1-1.5-1-2.9-2.5-3
	h-0.2C190.1,7.3,188.8,8.7,188.8,10.3L188.8,10.3z M202.7,8.2V5.9h-2.1v11h2.1v-5c0-2.6,1-4.1,3.5-4.1c0.4,0,0.8,0,1.2,0.1v-2
	c-0.3-0.1-0.7-0.1-1-0.1C204.7,5.8,203.3,6.8,202.7,8.2L202.7,8.2z M223.7,11.8c0,2.3-0.6,3.4-2.2,3.4s-2.2-1.2-2.2-3.6l-2.3,0.6
	c0,3.1,1.6,5,4.5,5s4.4-1.7,4.4-5.3V1.3h-2.2V11.8z M240.4,11.4c0,3.4-2.3,5.8-5.2,5.8s-5.2-2.5-5.2-5.8s2.2-5.8,5.2-5.8
	S240.3,8.1,240.4,11.4L240.4,11.4z M238.2,11.4c0-2.7-1.2-4.1-3.1-4.1s-3.1,1.3-3.1,4.1s1.2,4,3.1,4S238.2,14.1,238.2,11.4
	L238.2,11.4z M251.4,10.7c0,1.7-0.1,4.7-2.9,4.7c-1.4,0-2.3-0.8-2.3-2.8V5.9h-2.1v7.2c0,2.4,1.1,4.1,3.6,4.1c1.5,0,3-0.8,3.7-2.2
	v1.8h2v-11h-2.1L251.4,10.7z M260.4,8.2V5.9h-2v11h2.1v-5c0-2.6,1-4.1,3.5-4.1c0.4,0,0.8,0,1.2,0.1v-2c-0.3-0.1-0.7-0.1-1-0.1
	C262.5,5.8,261,6.7,260.4,8.2L260.4,8.2z M274,5.5c-1.5,0-2.9,0.8-3.6,2.2V5.9h-2v11h2.1v-4.8c0-1.6,0-4.8,2.9-4.8
	c1.4,0,2.3,0.8,2.3,2.8v6.7h2.1V9.6C277.8,7.2,276.6,5.6,274,5.5L274,5.5z M291.4,15.1h1.1v1.8H291c-1.6,0-1.9-0.7-2-1.7
	c-0.7,1.3-2.1,2.1-3.6,2c-2.2,0-3.6-1.2-3.6-3.2c0-3.1,3.4-4.1,6.9-4.4V9.3c0-1.3-0.7-2-2.3-2c-1.3-0.1-2.5,0.7-2.8,2l-2-0.6
	c0.4-1.5,1.9-3.1,4.9-3.1s4.4,1.5,4.4,3.9v5C290.8,15,290.9,15.1,291.4,15.1L291.4,15.1z M288.6,11.2c-2.6,0.3-4.8,0.9-4.8,2.7
	c0,1,0.6,1.6,2,1.6c1.6,0,2.8-1.3,2.9-2.8l0,0c0-0.1,0-0.2,0-0.3L288.6,11.2z M295.6,16.9h2.1V1.3h-2.1V16.9z M302.4,3.9h2.2V1.4
	h-2.2V3.9z M302.5,17h2.1V5.9h-2.1V17z M314,10.4l-1.3-0.2c-1.5-0.3-1.9-0.7-1.9-1.4s0.7-1.5,2.1-1.5c1.2-0.1,2.3,0.7,2.7,1.8
	l1.9-0.7C317,7,315.7,5.6,313,5.6c-2.3,0-4.2,1.4-4.2,3.3s1.6,2.8,3.5,3.2l1.3,0.2c1.5,0.3,2,0.8,2,1.6c0,1-0.8,1.5-2.4,1.5
	c-1.4,0.1-2.6-0.8-2.9-2.1l-2,0.6c0.5,2.1,2.5,3.2,4.9,3.2c2.9,0,4.5-1.3,4.5-3.4C317.7,11.4,315.3,10.6,314,10.4L314,10.4z
	 M334.1,5.6c-1.6-0.1-3.1,0.8-3.7,2.3c-0.5-1.4-1.9-2.3-3.4-2.3c-1.4,0-2.7,0.8-3.3,2V5.9h-2v11h2v-5.2c0-1.5,0.1-4.3,2.7-4.3
	c1.4,0,2.3,0.7,2.3,2.8v6.7h2v-5.2c0-1.5,0.1-4.3,2.7-4.3c1.4,0,2.3,0.7,2.3,2.8v6.7h2.1V9.5C337.9,7,336.5,5.5,334.1,5.6L334.1,5.6
	z M349.7,10.7c0,1.7-0.1,4.7-2.9,4.7c-1.4,0-2.3-0.8-2.3-2.8V5.9h-2.1v7.2c0,2.4,1.1,4.1,3.6,4.1c1.5,0,3-0.8,3.7-2.2v1.8h2v-11h-2
	L349.7,10.7z M361.1,10.4l-1.3-0.2c-1.5-0.3-1.9-0.7-1.9-1.4s0.7-1.5,2.1-1.5c1.2-0.1,2.3,0.7,2.7,1.8l1.8-0.7
	c-0.4-1.4-1.8-2.8-4.5-2.8c-2.3,0-4.2,1.4-4.2,3.3s1.6,2.8,3.5,3.2l1.3,0.2c1.5,0.3,2,0.8,2,1.6c0,1-0.8,1.5-2.4,1.5
	c-1.4,0.2-2.6-0.8-2.9-2.1l-2,0.6c0.5,2.1,2.5,3.2,4.9,3.2c2.8,0,4.5-1.3,4.5-3.4C364.9,11.4,362.4,10.6,361.1,10.4L361.1,10.4z"/>
</svg>
