<?xml version="1.0" encoding="utf-8"?>
<!-- Generator: Adobe Illustrator 26.0.2, SVG Export Plug-In . SVG Version: 6.00 Build 0)  -->
<svg version="1.1" id="Ebene_1" xmlns="http://www.w3.org/2000/svg" xmlns:xlink="http://www.w3.org/1999/xlink" x="0px" y="0px"
	 viewBox="0 0 425.2 49.3" style="enable-background:new 0 0 425.2 49.3;" xml:space="preserve">
<path d="M135.9,34.3c0,10-7.1,14.8-15.8,14.8c-11.1,0-17.3-4.9-17.3-14.8V16c0-3.1-0.7-3.7-4.5-3.9v-4h20.3v4
	c-3.7,0.2-4.4,0.9-4.4,3.9v17c0,6,1.7,9.9,7.5,9.9c5,0,8.8-2.1,8.8-10.4V16c0-3.1-1.3-3.7-5.1-3.9v-4h15v4c-3.8,0.2-4.5,0.9-4.5,3.9
	L135.9,34.3z M383.1,27.7c0,13-8.2,20.8-21.6,20.8h-20.7v-4c3.9-0.2,4.5-0.9,4.5-3.9V16c0-3.1-0.7-3.7-4.5-3.9v-4h18.7
	C374.4,8.1,383.1,15.2,383.1,27.7L383.1,27.7z M370.9,28.3c0-9.9-4.6-16-13.1-16h-1.2v28c0,3.4,1.1,4,3.9,4h0.5
	C367.4,44.3,370.9,39.3,370.9,28.3L370.9,28.3z M209.2,12c4.5,0,5.8,3.3,8.3,9.8h4.5l-0.9-13.6h-37.6l-0.9,13.6h4.5
	c2.6-6.4,3.8-9.8,8.3-9.8h1.2v28.6c0,3-1.1,3.7-4.9,3.9v4h21v-4c-3.8-0.2-4.8-0.9-4.8-3.9V12H209.2z M424.3,8.1h-37.5l-0.9,13.6h4.5
	c2.6-6.4,3.8-9.7,8.3-9.7h1.2v28.6c0,3-1.1,3.7-4.9,3.9v4h21v-4c-3.8-0.2-4.8-0.9-4.8-3.9V12h1.1c4.5,0,5.7,3.3,8.3,9.8h4.5
	L424.3,8.1z M166,48.4h-22.6v-4c3.9-0.2,4.5-0.9,4.5-3.9V16c0-3.1-0.7-3.7-4.5-3.9v-4h20.4c11.2,0,16.2,5.5,16.2,12.4
	c0,7.9-5.1,12.5-16.2,12.5h-4.4v7.5c0,3,1.7,3.7,6.6,3.9L166,48.4z M159.4,29.3h1.6c4.9,0,7.7-3,7.7-8.7c0-5.2-3.2-8.3-8.1-8.3h-1.2
	L159.4,29.3z M242.4,22.3c-6-1.5-8.1-2.7-8.1-6.1c0-2.6,1.9-4.7,5.6-4.7c5.3,0,7.1,3.6,8.7,8.3h4.9V11c-2.9-2.1-7.3-3.4-12.9-3.4
	c-8.7,0-14.9,4.9-14.9,13.2c0,7.5,4.1,10.9,13.1,13.3c6.3,1.7,8,3,8,5.9c0,3.5-2.6,5-6.1,5c-5.3,0-8-3-9.6-9.5h-5.8l0.6,9.6
	c2.9,2.1,8,3.8,13.9,3.8c8.9,0,15.9-4,15.9-13C255.8,27.9,250.9,24.5,242.4,22.3L242.4,22.3z M98.7,44.5v4H78.8v-4
	c3.3-0.2,4-0.8,4-2.5c-0.1-0.8-0.3-1.6-0.6-2.3l-1.4-3.5h-14l-1.3,3.5C65.2,40.4,65,41.2,65,42c0,1.8,0.6,2.4,4,2.5v4H56v-4
	c1.5-0.3,2.7-0.6,3.3-2.1l11.8-29.7l-2-4.6h11.8l14.6,34.3C96,43.8,97.1,44.2,98.7,44.5z M79.2,32.2l-5.6-13.8l-5.3,13.8H79.2z
	 M31,0h22.8v4C49.2,4.2,48,5,48,8.8v31c0,3.8,1.2,4.5,5.8,4.8v4H31v-4c4.5-0.2,5.7-1,5.7-4.8v-5c-1.8-5.5-7.6-8.5-13.1-6.7
	c-3.2,1-5.6,3.5-6.7,6.7v5c0,3.8,1.2,4.5,5.7,4.8v4H0v-4c4.6-0.2,5.7-1,5.7-4.8v-31C5.7,5,4.6,4.2,0,4V0h22.7v4
	C18.2,4.2,17,5,17,8.8v6.9h19.8V8.8C36.8,5,35.6,4.2,31,4V0z M36.8,19.5H17v8.2c5.3-5.5,14-5.6,19.5-0.3l0,0l0.3,0.3L36.8,19.5z
	 M296.6,8.1H259l-0.9,13.6h4.5c2.6-6.4,3.8-9.7,8.4-9.7h1.2v28.6c0,3-1.1,3.7-4.9,3.9v4h21v-4c-3.8-0.2-4.8-0.9-4.8-3.9V12h1.1
	c4.5,0,5.7,3.3,8.3,9.8h4.5L296.6,8.1z M338.6,44.5v4h-19.9v-4c3.3-0.2,4-0.8,4-2.5c0-0.8-0.3-1.6-0.6-2.3l-1.4-3.5h-14l-1.3,3.5
	c-0.3,0.7-0.5,1.5-0.5,2.3c0,1.8,0.6,2.4,4,2.5v4h-13v-4c1.5-0.3,2.6-0.6,3.3-2.1l11.8-29.7l-2-4.6h11.8l14.6,34.3
	C335.9,43.8,336.9,44.2,338.6,44.5L338.6,44.5z M319,32.2l-5.5-13.8l-5.3,13.8H319z"/>
</svg>
