<svg xmlns="http://www.w3.org/2000/svg" xml:space="preserve" viewBox="0 0 477 94">
  <path d="M0 25c3.98 0 7.81-.04 11.63.06.46.01 1.14.73 1.31 1.25 1.43 4.45 2.78 8.92 4.14 13.39 1.79 5.9 3.55 11.82 5.35 17.72.13.42.5.77 1.11 1.67 1.11-3.86 2.1-7.26 3.08-10.67 2.07-7.22 4.15-14.43 6.2-21.65.37-1.31 1.02-1.91 2.5-1.8 2.15.15 4.31.1 6.47.01 1.15-.05 1.74.34 2.05 1.44 2.43 8.52 4.88 17.03 7.34 25.53.65 2.25 1.36 4.48 2.05 6.71.23 0 .46.01.69.01.63-1.95 1.3-3.89 1.89-5.85 1.98-6.59 3.94-13.19 5.9-19.79.63-2.12 1.29-4.24 1.88-6.37.32-1.17.95-1.71 2.21-1.68 3.12.06 6.23.07 9.35 0 1.5-.03 1.56.66 1.17 1.77-2.21 6.34-4.43 12.68-6.63 19.03-1.6 4.63-3.15 9.27-4.74 13.9-1.26 3.66-2.5 7.32-3.88 10.93-.21.54-1.09 1.15-1.68 1.17-3.59.11-7.19.02-10.79.07-1 .01-1.34-.4-1.62-1.29-2.12-6.71-4.31-13.4-6.45-20.1-.53-1.66-.91-3.37-1.41-5.04-.12-.38-.45-.7-.68-1.05-.26.35-.66.66-.77 1.06-1.47 5.09-2.84 10.21-4.35 15.29-.95 3.18-2.11 6.3-3.14 9.47-.4 1.22-1.05 1.74-2.43 1.69-3.11-.12-6.24-.17-9.34.01-1.89.11-2.66-.66-3.2-2.3-1.83-5.47-3.79-10.9-5.65-16.36-3.16-9.29-6.29-18.57-9.56-28.23zm175.68 6.65c2.82-2.98 5.62-4.98 9.11-5.87 7.71-1.98 14.92-.93 21.13 4.13 7.22 5.88 9.35 13.8 8.36 22.79-.5 4.6-1.97 8.83-4.84 12.46-3.54 4.49-8.3 7.12-13.92 7.86-5.76.76-11.47.41-16.57-2.88-.99-.64-1.87-1.44-3.03-2.34-.08.75-.18 1.33-.18 1.9-.01 6.52-.06 13.05.03 19.57.02 1.64-.39 2.25-2.12 2.16-2.55-.14-5.11-.1-7.66-.01-1.33.05-1.81-.36-1.77-1.73.09-3.34.03-6.68.03-10.03 0-17.11.03-34.22-.04-51.32-.01-1.92.37-2.73 2.45-2.53 1.98.19 4 .15 5.98.01 1.58-.11 2.34.31 2.37 1.99.02 1.07.35 2.15.67 3.84zm14.11 4.21c-7.97.02-13.14 5.14-13.21 13.07-.07 7.77 5.41 13.34 13.35 13.42 7.59.08 13.37-6.12 13.24-13.25-.16-7.94-5.34-13.22-13.38-13.24zm100.79-4.97c.62-.34 1-.46 1.25-.7 5.43-5.28 11.99-6.42 19.21-5.27 7.33 1.18 12.91 4.84 16.02 11.64 2.84 6.2 3.26 12.75 1.5 19.33-2.31 8.63-7.93 13.91-16.67 16.09-5.67 1.41-11.06 1.02-16.16-1.76-1.76-.96-3.21-2.49-5.08-3.98-.27 1.57-.43 2.96-.8 4.3-.14.5-.75 1.21-1.16 1.23-2.71.11-5.43.02-8.15.08-1.12.02-1.33-.53-1.3-1.46.04-1.35.01-2.71.01-4.06v-57.34c0-2.64.01-2.64 2.73-2.64 2.16 0 4.32.09 6.47-.03 1.55-.09 2.05.39 2.03 1.98-.08 6.61-.04 13.22-.03 19.83.01.81.08 1.65.13 2.76zm14.41 31.08c8.39.12 13.32-6.7 13.14-13.6-.21-8.07-5.18-13.07-13.15-13.32-7.57-.24-13.77 6.04-13.65 13.5.12 7.32 5.34 13.59 13.66 13.42zm133.91-30.53c.86-.69 1.26-.94 1.58-1.27 5.01-5.14 11.14-6.03 17.84-4.62 7.32 1.54 11.26 6.44 12.79 13.39.64 2.92.9 5.98.95 8.98.13 7.25-.03 14.5.09 21.74.03 1.85-.54 2.32-2.29 2.2-2.31-.15-4.64-.13-6.95 0-1.68.09-2.18-.48-2.16-2.15.08-6.77.08-13.54.01-20.31-.02-2.13-.09-4.32-.59-6.37-1.24-5.11-5.15-7.61-10.42-7.36-6.42.31-10.6 5.83-10.73 11.31-.18 7.48-.14 14.97-.08 22.46.02 1.8-.36 2.58-2.35 2.43-2.3-.18-4.64-.15-6.95-.01-1.75.11-2.13-.58-2.12-2.2.07-7.41.03-14.81.03-22.22 0-12.9.03-25.81-.04-38.71-.01-1.8.37-2.6 2.36-2.45 2.38.18 4.8.13 7.19.01 1.54-.08 1.87.52 1.86 1.93-.06 6.69-.03 13.38-.03 20.07.01.87.01 1.73.01 3.15zm-324.06 21.7c-5.43 0-10.86-.01-16.29.01-2.03.01-2.14.18-1.37 2.02 2.31 5.56 7.13 7.2 12.51 7.47 4.17.21 8.25-.75 11.75-3.15 1.27-.87 1.96-.55 2.84.29 1.73 1.65 3.5 3.25 5.17 4.96.23.23.19 1.15-.06 1.36-1.32 1.11-2.63 2.33-4.15 3.09-10.39 5.17-20.79 5.55-30.86-.71-5.5-3.41-8.23-8.78-9.22-15.06-1.04-6.64-.21-12.97 3.47-18.72 3.99-6.24 9.91-9.48 17.16-10.17 5.75-.54 11.45-.21 16.68 2.74 5.06 2.85 8.24 7.19 9.44 12.72.8 3.68.76 7.54 1.14 11.31.16 1.52-.51 1.87-1.93 1.86-5.42-.06-10.85-.02-16.28-.02zm-17.54-9.75c.14.07.27.2.41.2 7.5.03 15 .03 22.5.07 1.99.01 1.52-1.34 1.16-2.28-.89-2.34-2.34-4.23-4.66-5.48-3.05-1.64-6.3-1.66-9.53-1.32-5.34.58-9.89 5.1-9.88 8.81zm160.79 22.9c-2.51 1.6-4.6 3.15-6.88 4.34-11.21 5.89-24.84-.72-26.9-13.23-.78-4.75-.77-9.64-.91-14.48-.14-5.01.02-10.03-.06-15.05-.02-1.52.37-2.15 2.01-2.06 2.39.13 4.8.15 7.19 0 1.9-.13 2.23.66 2.22 2.35-.05 7.72-.07 15.45.12 23.17.09 3.6 1.45 6.84 4.57 8.99 5.26 3.63 12.83 2.07 16.25-3.77 1.69-2.89 1.92-6.01 1.95-9.17.07-6.45.07-12.9-.01-19.35-.02-1.62.41-2.29 2.14-2.2 2.47.13 4.95.09 7.43.01 1.27-.04 1.62.42 1.62 1.65-.03 14.25-.04 28.51 0 42.76 0 1.26-.4 1.66-1.64 1.61-2.15-.08-4.33-.16-6.47.02-1.76.15-2.23-.74-2.36-2.15-.1-1.03-.17-2.06-.27-3.44zm159.8-35.9c-1.83 2.17-3.61 4.2-5.29 6.3-.64.81-1.04 1.2-2.08.42-4.67-3.49-9.89-4.07-15.43-2.62-2.08.54-3.45 2.01-3.57 3.71-.12 1.75.91 3.39 3.08 4.03 2.26.67 4.65.88 6.98 1.36 3.48.72 7.02 1.26 10.39 2.31 9.9 3.07 10.44 17.5 3.03 23.05-3.01 2.25-6.3 3.7-10.01 4.08-9.03.91-17.64.18-24.78-6.37-1.2-1.1-1.34-1.95-.41-3.17 1.24-1.64 2.51-3.26 3.59-5 .71-1.14 1.13-1.09 2.17-.31 4.99 3.78 10.6 5.62 16.92 5.07 3.05-.27 5.49-2 5.95-4.26.59-2.84-.92-4.75-4.34-5.28-3.46-.54-6.97-.77-10.4-1.44-4.76-.93-9.1-2.81-11.73-7.21-2.91-4.88-2.26-13.05 4.26-17.14 6.18-3.87 12.95-3.99 19.83-3.14 4.42.54 8.33 2.45 11.84 5.61zm-68.05 8.68c0 10.19-.05 20.39.05 30.58.02 1.83-.52 2.32-2.28 2.21-2.31-.15-4.64-.14-6.95 0-1.74.1-2.17-.59-2.13-2.2.09-4.06.03-8.12.03-12.18v-48.5c0-2.64.01-2.64 2.57-2.65 2.16-.01 4.32.11 6.47-.04 1.75-.12 2.3.36 2.28 2.2-.09 10.2-.04 20.39-.04 30.58zm9.7 9.23c0-7 .07-13.99-.05-20.99-.03-1.95.61-2.47 2.44-2.35 2.22.14 4.47.03 6.7.03 2.55.01 2.56.01 2.56 2.67.01 9.78 0 19.56 0 29.34 0 4.05.01 8.11 0 12.16-.01 2.65-.02 2.65-2.56 2.66-2.15.01-4.31 0-6.46 0-2.62-.01-2.63-.01-2.63-2.54v-20.98zm-219.27 17.14c-.41-4.62 3.04-8.33 8.2-8.34 5.02-.01 8.56 3.25 8.56 8.34 0 4.92-3.38 8.15-8.46 8.22-5.18.08-8.89-3.83-8.3-8.22zm225.18-46.11c-4.96.29-8.42-4.02-8.31-8.1.13-5.15 3.75-8.35 8.49-8.22 4.96.14 8.04 3.32 8.22 8.28.13 3.91-3.42 8.39-8.4 8.04z"/>
</svg>