<svg xmlns="http://www.w3.org/2000/svg" version="1.1" id="Ebene_1" viewBox="0 0 1400 1400" width="1400" height="1400"><path d="M189.6,557.2c.1,194.3.2,353.6.3,353.9.1.8,305.5.4,309.6-.4,1.7-.3,7.9-1.3,13.9-2.2,58-8.7,107.4-40.6,136-87.7,8.9-14.7,20.7-42.7,23-54.8.2-1.4,1.1-5.4,2-9,.8-3.6,1.7-8.5,2.1-11,.3-2.5.8-5.6,1-7,1.9-11.1,2.6-39.5,1.4-54.5-1.5-18.2-3.6-30.1-8.1-46-5.4-19.2-14.7-39.8-24.8-55-20.6-30.8-51.7-56.1-85.5-69.5-4.4-1.8-8.2-3.4-8.4-3.6-.2-.1,2.4-5.4,5.7-11.6s8.5-16.3,11.7-22.3c3.2-6.1,7.4-14.2,9.5-18,2-3.9,6.6-12.4,10-19,3.5-6.6,8-15.2,10-19,2-3.9,6.1-11.5,9-17,9.8-18.6,15.3-29,19.5-37,2.3-4.4,6.8-13,10-19,8.8-16.7,15.4-29.3,19.5-37,13.4-25.2,13-24.5,30.5-58,3.7-7.2,7.8-14.8,9-17s5.5-10.2,9.4-17.8l7.2-13.7h-130.6l-26.1,51.8c-23.1,45.9-80.6,159.7-110.5,219.1-5.9,11.7-11.1,21.6-11.4,22-.4.3-30.8.6-67.6.6h-66.9V204h-110.5l.1,353.2ZM489.5,604.5c10.5,1.8,11,1.9,18,4.6,27.2,10.2,48,37.3,53.1,69.3.3,2.1.8,4.8,1.1,6,1.3,5.2,1.1,32.6-.3,41.6-6.6,43.5-32.6,72.7-70.5,79-3,.5-47.1.9-98.1.9l-92.8.1v-202.9h90.8c71.8.1,92.4.4,98.7,1.4Z"></path><path d="M901.8,205.1c-14.4,1.6-16.8,2-28.3,4.3-7.2,1.5-16,3.9-22,5.9-52.2,17.9-90.3,51.6-112.9,99.9-6.7,14.2-13.5,35.7-15.9,50.3-.3,1.6-.8,4.3-1.1,6-3.5,17.8-3.8,56.8-.7,77,1.9,12.3,2.3,14.3,5.3,25.4,12.5,47.9,39.2,86,78.8,112.6,7,4.7,27.7,15.5,36.7,19.1,2.1.8,2.2,1.1,1,3.4-.7,1.4-4.2,7.9-7.7,14.5-3.4,6.6-8.4,16-11,21-2.6,4.9-9.1,17.3-14.5,27.5s-12.2,23.2-15.3,29c-10.4,19.9-15.5,29.5-19.2,36.5-6.2,11.7-13.4,25.4-19.5,37-3.2,6-7.7,14.6-10,19-8.7,16.4-21,39.7-29.3,55.5-3,5.8-7.1,13.6-9.2,17.5-2.1,3.8-6.8,12.8-10.5,20-3.7,7.1-8.1,15.4-9.7,18.3-1.6,3-2.7,5.7-2.3,6,.4.4,31,.7,68,.7h67.3l25.3-50c13.8-27.5,35.4-70.3,47.9-95,12.5-24.8,34.2-67.7,48.3-95.5l25.5-50.5h128v142c.1,78.1.1,143.6.1,145.5l.1,3.5h115.5V204l-151,.1c-83,.1-154,.5-157.7,1ZM1191,229.9c.4,59.5,0,661.4-.4,661.8-.4.5-69.4.8-75.3.4-1-.1-1.3-29.9-1.3-145.6v-145.4l-79.7.2-79.8.2-13.3,26.5c-7.4,14.6-28.6,56.6-47.2,93.5-18.6,36.8-45.7,90.4-60.1,119l-26.2,52-45.4-.1c-24.9,0-45.6-.3-45.9-.6-.3-.4,1.6-4.6,4.2-9.5,2.5-4.8,6.9-13.1,9.7-18.3,2.7-5.2,6.6-12.7,8.7-16.5,2.1-3.9,7.2-13.8,11.5-22,4.3-8.3,8.1-15.5,8.5-16,.4-.6,4.5-8.2,9-17,10.8-20.7,19.1-36.5,30.5-58,4.1-7.8,8.6-16.2,19.5-37,2.9-5.5,6.9-13.2,9-17,2-3.9,6.8-12.9,10.5-20,3.7-7.2,8-15.3,9.5-18,1.5-2.8,6-11.3,10-19s9-17.2,11.2-21.2l3.8-7.2-7.2-2.2c-52.7-15.9-91.6-50.5-111.7-99.3-5.3-12.7-9.8-28.4-11.7-40-.3-2.1-.7-4.8-1-6-.2-1.1-.6-4.8-1-8.1-.3-3.3-.7-7.6-1-9.5-.6-4.5-.5-28.8.1-36,2.1-23.4,6-41.1,13.2-60,3.4-8.9,12.7-27.9,14.3-29,.4-.3,1.3-1.6,2-3,4.6-8.8,21.8-28.2,34-38.2,26.2-21.6,63.3-36,102-39.4,4.1-.3,7.6-.7,7.8-.9.1-.1,63-.2,139.7-.2h139.5v6.6Z"></path><path d="M918.7,295.6c-.1.1-3.3.4-7.1.8-12.4,1.2-22.1,3.9-32.9,9.2-31.4,15.6-51.3,46.3-56.5,87.2-1.4,11.2-.7,37.6,1.3,47.2.3,1.4.8,4.1,1.1,6s2,7.5,3.6,12.5c12.2,36.4,38.3,60.5,73.8,68.2,7.9,1.7,15.4,1.8,110,1.8h101.5l.3-116.3c.2-92.6,0-116.2-1-116.3-2.2-.1-194-.4-194.1-.3ZM1094.6,412.2l-.1,97.3-90.5-.1c-83.5,0-91.1-.1-98.4-1.8-30.4-6.9-51.7-28.2-60.6-60.6-1-3.6-2-8.1-2.4-10-.3-1.9-.9-5.3-1.2-7.5-1.3-7.4-.6-30.8,1.1-40.5,6.7-38.6,29.1-64.7,61.9-72,7.5-1.7,15.1-1.8,99.2-1.9l91.2-.1-.2,97.2Z"></path><path d="M188,1109.5v85.5l2.3.1c3.3.1,12.8.1,15.7,0l2.5-.1v-34.8c-.1-19.1.1-35.3.3-36,.3-.9,5.6-1.2,21.7-1.2h21.2l17.8,35.2c9.7,19.4,18.1,35.7,18.6,36.2.6.7,12.6,1.1,22.6.7l2.3-.1-2.4-4.3c-1.3-2.3-5.4-10.1-9.1-17.2-3.7-7.2-8-15.3-9.5-18-1.5-2.8-5.8-10.9-9.5-18-3.8-7.2-7.3-13.8-7.9-14.7-1.2-2-1.6-1.7,5.9-5.3s16.1-12.2,19.7-19.5c7.8-16.3,6.9-38.7-2.3-53.2-3.9-6.1-10.5-12-16.8-15.2-10-5.1-14.5-5.6-55.3-5.6h-37.8v85.5ZM268.1,1045.7c10.3,4.6,15.8,13.9,16,27.3.2,13-5.9,23.8-16,28.2-4.2,1.9-6.9,2.1-31.8,2.2-15,.1-27.4,0-27.4-.4-.3-1.3-.5-57.6-.2-58.5.2-.7,9.6-1,27.6-1,25.1.1,27.5.3,31.8,2.2Z"></path><path d="M354,1109.5c0,67.7.3,85.5,1.3,85.5,2.2.1,101.1.1,105,.1l3.8-.1-.3-9.7-.3-9.6h-44.2c-39.8,0-44.3-.2-44.4-1.6v-47.4l.1-6.7h80v-9.5c0-5.2-.3-9.6-.7-9.6-.5-.1-18.3-.3-39.8-.4-21.4-.1-39.2-.3-39.5-.4-.4-.1-.4-24.5-.1-52.1l.1-4.5h89v-19.5h-110v85.5Z"></path><path d="M508,1109.4v85.5l9.1.3c4.9.2,9.6.1,10.2-.2,1-.4,1.2-9.2,1.2-36.8,0-19.9.2-36.3.5-36.3.3-.1,17.8-.2,39-.3l38.5-.1v-19l-39-.5-39-.5v-28.3c0-18.1.3-28.6,1-29,.5-.4,20.1-.7,43.5-.7h42.5v-19l-53.7-.3-53.8-.2v85.4Z"></path><path d="M652,1109.5v85.5l10.3.1h88.8l6.5-.1-.1-8.9c0-5-.4-9.3-.8-9.7s-19.2-.7-41.7-.7-41.3-.4-41.6-.9-.6-34.6-.6-75.8v-75h-20.8v85.5Z"></path><path d="M789,1109.5c0,47,.3,85.5.8,85.5,5.7.4,108.3,0,108.9-.3.4-.3.7-4.7.5-9.9l-.3-9.3h-89.2l.1-26c0-14.3.1-26.8.1-27.7.1-1.7,2.9-1.8,39.9-2l39.7-.3v-19h-39.7c-21.9,0-39.8-.2-39.9-.5,0-.3-.1-13.1-.1-28.5l-.1-28h89.3l.1-2.5c0-1.4.1-5.8.2-9.8l.2-7.2h-110.5v85.5Z"></path><path d="M942.3,1109.4v85.5l8.1.3c4.4.2,9.1.2,10.4,0l2.2-.3v-76.9l2.3-.1c18-.6,59.7.2,64.3,1.2,9.4,2.1,17.6,9.3,20.4,17.9.2.8.5,14,.7,29.3.1,15.4.4,28.1.7,28.4.7.7,17.5.7,18.3-.1,1.1-1.1.6-56.7-.6-61.8-3.2-13.8-14.2-27.2-26.3-32.1-3.6-1.4-7.9-2.8-9.4-3-1.8-.2-2.8-.9-2.7-1.8.2-.8,4.6-10,9.9-20.4,5.3-10.5,13.3-26.3,17.8-35.3l8.2-16.2h-24.7l-17.9,36.5-18,36.5h-43v-73h-20.7v85.4Z"></path><path d="M1091.1,1033.5c.1,5.2.4,9.6.8,9.6.3.1,11.3.2,24.3.3s23.9.4,24.3.8c.3.3.6,34.4.6,75.7v75.1l6,.1c3.2,0,7.5.1,9.4.1s4-.1,4.5-.1c.7-.1,1-26.1,1-75.9v-75.7h50v-19.5h-121l.1,9.5Z"></path></svg>