<svg xmlns="http://www.w3.org/2000/svg" viewBox="0 0 82.34 13.77">
  <g style="fill:#fff">
    <path d="M13.35 13.77h8.84v-1.55H15V7.71h6.43V6.16H15v-4.6h7.19V.01h-8.84zM25.73 13.77h1.65V7.84h6.25V6.28h-6.25V1.56h7.01V.01h-8.66zM38.98.01h-1.65v13.76h8.46v-1.55h-6.81zM48.34 13.77h8.83v-1.55h-7.19V7.71h6.44V6.16h-6.44v-4.6h7.19V.01h-8.83zM72.64.01v1.55h4.03v12.21h1.64V1.56h4.03V.01zM69.06 6.33c-.44-.23-.91-.39-1.4-.45l3-5.88h-2l-2.88 5.88H62.3V0h-1.64v13.76h1.64V7.53H67c.44 0 .87.1 1.27.27a2 2 0 0 1 .85.78c.21.35.31.76.3 1.17v4h1.55V9.83c.02-.73-.15-1.45-.49-2.1a3.5 3.5 0 0 0-1.42-1.4M6.89 7.77c.23-.09.45-.19.66-.31.61-.31 1.12-.8 1.45-1.4.67-1.31.67-2.86 0-4.17C8.68 1.3 8.19.81 7.6.49 6.95.16 6.24-.01 5.51 0H0v13.77h1.65V7.95h3.48l2.94 5.82h2zM5.53 6.4H1.65V1.55h3.88c.41 0 .82.09 1.18.3.33.2.6.5.77.85.19.4.29.83.28 1.27 0 .44-.1.88-.29 1.28-.17.34-.44.62-.77.81-.35.22-.76.34-1.17.34"/>
  </g>
</svg>
