<?xml version="1.0" encoding="UTF-8"?>
<svg id="Ebene_1" xmlns="http://www.w3.org/2000/svg" version="1.1" viewBox="0 0 82.34 13.77">
  <g style="fill: #ffffff;">
    <polygon points="13.35 13.77 22.19 13.77 22.19 12.22 15 12.22 15 7.71 21.43 7.71 21.43 6.16 15 6.16 15 1.56 22.19 1.56 22.19 .01 13.35 .01 13.35 13.77"/>
    <polygon points="25.73 13.77 27.38 13.77 27.38 7.84 33.63 7.84 33.63 6.28 27.38 6.28 27.38 1.56 34.39 1.56 34.39 .01 25.73 .01 25.73 13.77"/>
    <polygon points="38.98 .01 37.33 .01 37.33 13.77 45.79 13.77 45.79 12.22 38.98 12.22 38.98 .01"/>
    <polygon points="48.34 13.77 57.17 13.77 57.17 12.22 49.98 12.22 49.98 7.71 56.42 7.71 56.42 6.16 49.98 6.16 49.98 1.56 57.17 1.56 57.17 .01 48.34 .01 48.34 13.77"/>
    <polygon points="72.64 .01 72.64 1.56 76.67 1.56 76.67 13.77 78.31 13.77 78.31 1.56 82.34 1.56 82.34 .01 72.64 .01"/>
    <path d="M69.06,6.33c-.44-.23-.91-.39-1.4-.45L70.66,0h-2l-2.88,5.88h-3.48V0h-1.64v13.76h1.64v-6.23h4.7c.44,0,.87.1,1.27.27.35.17.65.44.85.78.21.35.31.76.3,1.17v4h1.55v-3.92c.02-.73-.15-1.45-.49-2.1-.33-.6-.82-1.08-1.42-1.4Z"/>
    <path d="M6.89,7.77c.23-.09.45-.19.66-.31.61-.31,1.12-.8,1.45-1.4.67-1.31.67-2.86,0-4.17-.32-.59-.81-1.08-1.4-1.4C6.95.16,6.24-.01,5.51,0H0v13.77h1.65v-5.82h3.48l2.94,5.82h2l-3.18-6ZM5.53,6.4H1.65V1.55h3.88c.41,0,.82.09,1.18.3.33.2.6.5.77.85.19.4.29.83.28,1.27,0,.44-.1.88-.29,1.28-.17.34-.44.62-.77.81-.35.22-.76.34-1.17.34Z"/>
  </g>
</svg>
