<svg viewBox="0 0 82.34 79.71" xmlns="http://www.w3.org/2000/svg">
  <path d="M7.55 73.4A3.43 3.43 0 009 72a4.6 4.6 0 000-4.17 3.43 3.43 0 00-1.4-1.4 4.39 4.39 0 00-2.09-.49H0v13.77h1.65v-5.82h3.48l2.94 5.82h2l-3.18-6a4.86 4.86 0 00.66-.31zm-2-1.06h-3.9v-4.85h3.88a2.28 2.28 0 011.18.3 2 2 0 01.77.85 2.76 2.76 0 01.28 1.27 2.91 2.91 0 01-.29 1.28 2 2 0 01-.77.81 2.24 2.24 0 01-1.17.34zM13.35 79.71h8.84v-1.55H15v-4.51h6.43V72.1H15v-4.6h7.19v-1.55h-8.84zM25.73 79.71h1.65v-5.93h6.25v-1.56h-6.25V67.5h7.01v-1.55h-8.66zM38.98 65.95h-1.65v13.76h8.46v-1.55h-6.81zM48.34 79.71h8.83v-1.55h-7.19v-4.51h6.44V72.1h-6.44v-4.6h7.19v-1.55h-8.83zM72.64 65.95v1.55h4.03v12.21h1.64V67.5h4.03v-1.55zM69.06 72.27a4.11 4.11 0 00-1.4-.45l3-5.88h-2l-2.88 5.88H62.3v-5.88h-1.64V79.7h1.64v-6.23H67a3.49 3.49 0 011.27.27 2 2 0 01.85.78 2.21 2.21 0 01.3 1.17v4h1.55v-3.92a4.29 4.29 0 00-.49-2.1 3.47 3.47 0 00-1.42-1.4zM37.43 31.55a14.65 14.65 0 00-5.91-5.87 14.87 14.87 0 00-2.3-1L42.21 0H31.74L19.83 23.62H9V0H.13v56.91h22.68a18.18 18.18 0 008.75-2.06A14.66 14.66 0 0037.45 49a17.88 17.88 0 002.08-8.72 17.73 17.73 0 00-2.1-8.73zM26.81 47.43a6.83 6.83 0 01-3.7 1H9V32.1h14.11a6.83 6.83 0 013.69 1 6.58 6.58 0 012.47 2.83 11 11 0 010 8.66 6.59 6.59 0 01-2.46 2.84zM54.84 8.56a7.89 7.89 0 00-2.91 3.35 11.27 11.27 0 00-1 4.83 11.28 11.28 0 001 4.84 7.82 7.82 0 002.94 3.35 8 8 0 004.32 1.18h15.26V7.38H59.19a8.08 8.08 0 00-4.35 1.18zm18.08 16H59.19a6.58 6.58 0 01-3.52-.95 6.31 6.31 0 01-2.35-2.71 9.63 9.63 0 01-.86-4.18 9.69 9.69 0 01.86-4.18 6.32 6.32 0 012.34-2.7 6.52 6.52 0 013.53-.95h13.73z"/>
  <path d="M59.49 0a18.23 18.23 0 00-8.79 2.07A14.78 14.78 0 0044.76 8a18 18 0 00-2.09 8.75 17.83 17.83 0 002.11 8.76 14.89 14.89 0 006 5.92 16.47 16.47 0 002 .93L39.85 56.89h10.94l11.81-23.4h10.32v23.4h9.29V0zm21.19 55.36h-6.23V32H61.66L49.85 55.36h-7.46L55 31.46l-.88-.28a14.32 14.32 0 01-2.63-1.11 13.34 13.34 0 01-5.35-5.31 16.35 16.35 0 01-1.92-8 16.4 16.4 0 011.91-8 13.12 13.12 0 015.32-5.3 16.58 16.58 0 018.06-1.89h21.17z"/>
</svg>
